G04 #@! TF.GenerationSoftware,KiCad,Pcbnew,7.0.5*
G04 #@! TF.CreationDate,2023-08-11T11:43:47-04:00*
G04 #@! TF.ProjectId,Tadpole,54616470-6f6c-4652-9e6b-696361645f70,rev?*
G04 #@! TF.SameCoordinates,Original*
G04 #@! TF.FileFunction,Copper,L2,Inr*
G04 #@! TF.FilePolarity,Positive*
%FSLAX46Y46*%
G04 Gerber Fmt 4.6, Leading zero omitted, Abs format (unit mm)*
G04 Created by KiCad (PCBNEW 7.0.5) date 2023-08-11 11:43:47*
%MOMM*%
%LPD*%
G01*
G04 APERTURE LIST*
G04 #@! TA.AperFunction,ComponentPad*
%ADD10O,1.700000X1.700000*%
G04 #@! TD*
G04 #@! TA.AperFunction,ComponentPad*
%ADD11R,1.700000X1.700000*%
G04 #@! TD*
G04 #@! TA.AperFunction,ComponentPad*
%ADD12R,3.800000X3.800000*%
G04 #@! TD*
G04 #@! TA.AperFunction,ComponentPad*
%ADD13C,3.800000*%
G04 #@! TD*
G04 #@! TA.AperFunction,ComponentPad*
%ADD14C,1.700000*%
G04 #@! TD*
G04 #@! TA.AperFunction,Conductor*
%ADD15C,1.500000*%
G04 #@! TD*
G04 APERTURE END LIST*
D10*
X156000000Y-97610000D03*
X156000000Y-95070000D03*
D11*
X156000000Y-92530000D03*
X156000000Y-89990000D03*
D10*
X156000000Y-87450000D03*
X120100000Y-119400000D03*
X122640000Y-119400000D03*
X125180000Y-119400000D03*
X127720000Y-119400000D03*
X130260000Y-119400000D03*
D11*
X132800000Y-119400000D03*
D10*
X137000000Y-119400000D03*
X139540000Y-119400000D03*
X142080000Y-119400000D03*
X144620000Y-119400000D03*
X147160000Y-119400000D03*
D11*
X149700000Y-119400000D03*
D10*
X132800000Y-78300000D03*
X130260000Y-78300000D03*
X127720000Y-78300000D03*
X125180000Y-78300000D03*
X122640000Y-78300000D03*
D11*
X120100000Y-78300000D03*
D10*
X149900000Y-78300000D03*
X147360000Y-78300000D03*
X144820000Y-78300000D03*
X142280000Y-78300000D03*
X139740000Y-78300000D03*
D11*
X137200000Y-78300000D03*
D12*
X154600000Y-110000000D03*
D13*
X154600000Y-105000000D03*
D10*
X148295000Y-110300000D03*
X145755000Y-110300000D03*
X143215000Y-110300000D03*
X140675000Y-110300000D03*
X138135000Y-110300000D03*
X135595000Y-110300000D03*
X133055000Y-110300000D03*
X130515000Y-110300000D03*
X127975000Y-110300000D03*
D14*
X117815200Y-104521000D03*
X120355200Y-104521000D03*
X122895200Y-104521000D03*
X125435200Y-104521000D03*
X120355200Y-89281000D03*
X127975200Y-104521000D03*
X130515200Y-104521000D03*
X133055200Y-104521000D03*
X135595200Y-104521000D03*
X138135200Y-104521000D03*
X140675200Y-104521000D03*
X143215200Y-104521000D03*
X145755200Y-104521000D03*
X148295200Y-104521000D03*
X148295200Y-89281000D03*
X145755200Y-89281000D03*
X143215200Y-89281000D03*
X140675200Y-89281000D03*
X138135200Y-89281000D03*
X135595200Y-89281000D03*
X133055200Y-89281000D03*
X130515200Y-89281000D03*
X127975200Y-89281000D03*
X125435200Y-89281000D03*
X122895200Y-89281000D03*
X117815200Y-89281000D03*
X115275200Y-104521000D03*
X115275200Y-89281000D03*
X144500000Y-100100000D03*
X147040000Y-100100000D03*
X149580000Y-100100000D03*
X136880000Y-112800000D03*
D11*
X139420000Y-112800000D03*
D14*
X141960000Y-112800000D03*
X144500000Y-112800000D03*
X147040000Y-112800000D03*
D11*
X149580000Y-112800000D03*
D14*
X127950000Y-100070000D03*
X130490000Y-100070000D03*
X133030000Y-100070000D03*
X120330000Y-112770000D03*
D11*
X122870000Y-112770000D03*
D14*
X125410000Y-112770000D03*
X127950000Y-112770000D03*
X130490000Y-112770000D03*
D11*
X133030000Y-112770000D03*
D14*
X144500000Y-82524600D03*
X147040000Y-82524600D03*
X149580000Y-82524600D03*
X136880000Y-95224600D03*
D11*
X139420000Y-95224600D03*
D14*
X141960000Y-95224600D03*
X144500000Y-95224600D03*
X147040000Y-95224600D03*
D11*
X149580000Y-95224600D03*
X133130000Y-95224600D03*
D14*
X130590000Y-95224600D03*
X128050000Y-95224600D03*
X125510000Y-95224600D03*
D11*
X122970000Y-95224600D03*
D14*
X120430000Y-95224600D03*
X133130000Y-82524600D03*
X130590000Y-82524600D03*
X128050000Y-82524600D03*
D13*
X114000000Y-120000000D03*
X156000000Y-78000000D03*
X156000000Y-120000000D03*
X114000000Y-78000000D03*
D15*
X115275200Y-88078919D02*
X115275200Y-89281000D01*
X116435319Y-86918800D02*
X115275200Y-88078919D01*
X156000000Y-87450000D02*
X155468800Y-86918800D01*
X155468800Y-86918800D02*
X116435319Y-86918800D01*
G04 #@! TA.AperFunction,Conductor*
G36*
X154533760Y-90845087D02*
G01*
X154600770Y-90864856D01*
X154646458Y-90917718D01*
X154654273Y-90940565D01*
X154655906Y-90947477D01*
X154706202Y-91082328D01*
X154706203Y-91082330D01*
X154706204Y-91082331D01*
X154783576Y-91185687D01*
X154783578Y-91185689D01*
X154807995Y-91251153D01*
X154793144Y-91319426D01*
X154783578Y-91334311D01*
X154706203Y-91437669D01*
X154706202Y-91437671D01*
X154655908Y-91572517D01*
X154649501Y-91632116D01*
X154649501Y-91632123D01*
X154649500Y-91632135D01*
X154649500Y-93427870D01*
X154649501Y-93427876D01*
X154655908Y-93487483D01*
X154706202Y-93622328D01*
X154706206Y-93622335D01*
X154792452Y-93737544D01*
X154792455Y-93737547D01*
X154907664Y-93823793D01*
X154907671Y-93823797D01*
X155042517Y-93874091D01*
X155042516Y-93874091D01*
X155049444Y-93874835D01*
X155102127Y-93880500D01*
X156897872Y-93880499D01*
X156957483Y-93874091D01*
X157092331Y-93823796D01*
X157207546Y-93737546D01*
X157293796Y-93622331D01*
X157344091Y-93487483D01*
X157350500Y-93427873D01*
X157350499Y-91632128D01*
X157344091Y-91572517D01*
X157293796Y-91437669D01*
X157293795Y-91437668D01*
X157293793Y-91437664D01*
X157216422Y-91334310D01*
X157192004Y-91268846D01*
X157206855Y-91200573D01*
X157216411Y-91185702D01*
X157293796Y-91082331D01*
X157344091Y-90947483D01*
X157344091Y-90947474D01*
X157344841Y-90944306D01*
X157346102Y-90942089D01*
X157346802Y-90940215D01*
X157347105Y-90940328D01*
X157379410Y-90883587D01*
X157441318Y-90851197D01*
X157465669Y-90848812D01*
X158276867Y-90849843D01*
X158343880Y-90869613D01*
X158389568Y-90922475D01*
X158400706Y-90973132D01*
X158468554Y-102801284D01*
X158533684Y-114155659D01*
X158549285Y-116875289D01*
X158529985Y-116942440D01*
X158477445Y-116988497D01*
X158425287Y-117000000D01*
X153250000Y-117000000D01*
X153250000Y-117924907D01*
X153230315Y-117991946D01*
X153177511Y-118037701D01*
X153124912Y-118048902D01*
X119172912Y-117751078D01*
X119106048Y-117730806D01*
X119060758Y-117677603D01*
X119050000Y-117627083D01*
X119050000Y-116875289D01*
X119050000Y-113689770D01*
X119069684Y-113622735D01*
X119122488Y-113576980D01*
X119191646Y-113567036D01*
X119255202Y-113596061D01*
X119275572Y-113618648D01*
X119291500Y-113641395D01*
X119291501Y-113641396D01*
X119291505Y-113641401D01*
X119458599Y-113808495D01*
X119555384Y-113876264D01*
X119652165Y-113944032D01*
X119652167Y-113944033D01*
X119652170Y-113944035D01*
X119866337Y-114043903D01*
X120094592Y-114105063D01*
X120271034Y-114120500D01*
X120329999Y-114125659D01*
X120330000Y-114125659D01*
X120330001Y-114125659D01*
X120388966Y-114120500D01*
X120565408Y-114105063D01*
X120793663Y-114043903D01*
X121007830Y-113944035D01*
X121201401Y-113808495D01*
X121323329Y-113686566D01*
X121384648Y-113653084D01*
X121454340Y-113658068D01*
X121510274Y-113699939D01*
X121527189Y-113730917D01*
X121576202Y-113862328D01*
X121576206Y-113862335D01*
X121662452Y-113977544D01*
X121662455Y-113977547D01*
X121777664Y-114063793D01*
X121777671Y-114063797D01*
X121912517Y-114114091D01*
X121912516Y-114114091D01*
X121919444Y-114114835D01*
X121972127Y-114120500D01*
X123767872Y-114120499D01*
X123827483Y-114114091D01*
X123962331Y-114063796D01*
X124077546Y-113977546D01*
X124163796Y-113862331D01*
X124212810Y-113730916D01*
X124254681Y-113674984D01*
X124320145Y-113650566D01*
X124388418Y-113665417D01*
X124416672Y-113686569D01*
X124538599Y-113808495D01*
X124635384Y-113876264D01*
X124732165Y-113944032D01*
X124732167Y-113944033D01*
X124732170Y-113944035D01*
X124946337Y-114043903D01*
X125174592Y-114105063D01*
X125351034Y-114120500D01*
X125409999Y-114125659D01*
X125410000Y-114125659D01*
X125410001Y-114125659D01*
X125468966Y-114120500D01*
X125645408Y-114105063D01*
X125873663Y-114043903D01*
X126087830Y-113944035D01*
X126281401Y-113808495D01*
X126448495Y-113641401D01*
X126578424Y-113455842D01*
X126633002Y-113412217D01*
X126702500Y-113405023D01*
X126764855Y-113436546D01*
X126781575Y-113455842D01*
X126911500Y-113641395D01*
X126911505Y-113641401D01*
X127078599Y-113808495D01*
X127175384Y-113876264D01*
X127272165Y-113944032D01*
X127272167Y-113944033D01*
X127272170Y-113944035D01*
X127486337Y-114043903D01*
X127714592Y-114105063D01*
X127891034Y-114120500D01*
X127949999Y-114125659D01*
X127950000Y-114125659D01*
X127950001Y-114125659D01*
X128008966Y-114120500D01*
X128185408Y-114105063D01*
X128413663Y-114043903D01*
X128627830Y-113944035D01*
X128821401Y-113808495D01*
X128988495Y-113641401D01*
X129124035Y-113447830D01*
X129223903Y-113233663D01*
X129285063Y-113005408D01*
X129305659Y-112770000D01*
X129285063Y-112534592D01*
X129223903Y-112306337D01*
X129124035Y-112092171D01*
X129118425Y-112084158D01*
X128988494Y-111898597D01*
X128821402Y-111731506D01*
X128821401Y-111731505D01*
X128698325Y-111645326D01*
X128654702Y-111590750D01*
X128647509Y-111521251D01*
X128679031Y-111458897D01*
X128698323Y-111442180D01*
X128846401Y-111338495D01*
X129013495Y-111171401D01*
X129143426Y-110985840D01*
X129198001Y-110942217D01*
X129267499Y-110935023D01*
X129329854Y-110966546D01*
X129346574Y-110985841D01*
X129476505Y-111171401D01*
X129643599Y-111338495D01*
X129734392Y-111402069D01*
X129837165Y-111474032D01*
X129837167Y-111474033D01*
X129837170Y-111474035D01*
X130051337Y-111573903D01*
X130279592Y-111635063D01*
X130467918Y-111651539D01*
X130514999Y-111655659D01*
X130515000Y-111655659D01*
X130515001Y-111655659D01*
X130554234Y-111652226D01*
X130750408Y-111635063D01*
X130978663Y-111573903D01*
X131192830Y-111474035D01*
X131386401Y-111338495D01*
X131553495Y-111171401D01*
X131683426Y-110985841D01*
X131738002Y-110942217D01*
X131807500Y-110935023D01*
X131869855Y-110966546D01*
X131886575Y-110985842D01*
X132016500Y-111171395D01*
X132016505Y-111171401D01*
X132080654Y-111235550D01*
X132080655Y-111235551D01*
X132114139Y-111296875D01*
X132109154Y-111366566D01*
X132067283Y-111422500D01*
X132036306Y-111439414D01*
X131937671Y-111476202D01*
X131937664Y-111476206D01*
X131822455Y-111562452D01*
X131822452Y-111562455D01*
X131736206Y-111677664D01*
X131736202Y-111677671D01*
X131685908Y-111812517D01*
X131679501Y-111872116D01*
X131679501Y-111872123D01*
X131679500Y-111872135D01*
X131679500Y-113667870D01*
X131679501Y-113667876D01*
X131685908Y-113727483D01*
X131736202Y-113862328D01*
X131736206Y-113862335D01*
X131822452Y-113977544D01*
X131822455Y-113977547D01*
X131937664Y-114063793D01*
X131937671Y-114063797D01*
X132072517Y-114114091D01*
X132072516Y-114114091D01*
X132079444Y-114114835D01*
X132132127Y-114120500D01*
X133927872Y-114120499D01*
X133987483Y-114114091D01*
X134122331Y-114063796D01*
X134237546Y-113977546D01*
X134323796Y-113862331D01*
X134374091Y-113727483D01*
X134380500Y-113667873D01*
X134380499Y-111872128D01*
X134374091Y-111812517D01*
X134372859Y-111809215D01*
X134323797Y-111677671D01*
X134323793Y-111677664D01*
X134237547Y-111562455D01*
X134237544Y-111562452D01*
X134122335Y-111476206D01*
X134122329Y-111476203D01*
X134060109Y-111452996D01*
X134004176Y-111411124D01*
X133979759Y-111345660D01*
X133994611Y-111277387D01*
X134015756Y-111249139D01*
X134093495Y-111171401D01*
X134223426Y-110985841D01*
X134278002Y-110942217D01*
X134347500Y-110935023D01*
X134409855Y-110966546D01*
X134426575Y-110985842D01*
X134556500Y-111171395D01*
X134556505Y-111171401D01*
X134723599Y-111338495D01*
X134814392Y-111402069D01*
X134917165Y-111474032D01*
X134917167Y-111474033D01*
X134917170Y-111474035D01*
X135131337Y-111573903D01*
X135359592Y-111635063D01*
X135547918Y-111651539D01*
X135594999Y-111655659D01*
X135595000Y-111655659D01*
X135595001Y-111655659D01*
X135627255Y-111652837D01*
X135824858Y-111635548D01*
X135893356Y-111649314D01*
X135943539Y-111697929D01*
X135959473Y-111765958D01*
X135936098Y-111831802D01*
X135923346Y-111846757D01*
X135841503Y-111928600D01*
X135705965Y-112122169D01*
X135705964Y-112122171D01*
X135606098Y-112336335D01*
X135606094Y-112336344D01*
X135544938Y-112564586D01*
X135544936Y-112564596D01*
X135524341Y-112799999D01*
X135524341Y-112800000D01*
X135544936Y-113035403D01*
X135544938Y-113035413D01*
X135606094Y-113263655D01*
X135606096Y-113263659D01*
X135606097Y-113263663D01*
X135675369Y-113412217D01*
X135705965Y-113477830D01*
X135705967Y-113477834D01*
X135788751Y-113596061D01*
X135841505Y-113671401D01*
X136008599Y-113838495D01*
X136105384Y-113906264D01*
X136202165Y-113974032D01*
X136202167Y-113974033D01*
X136202170Y-113974035D01*
X136416337Y-114073903D01*
X136644592Y-114135063D01*
X136821034Y-114150500D01*
X136879999Y-114155659D01*
X136880000Y-114155659D01*
X136880001Y-114155659D01*
X136938966Y-114150500D01*
X137115408Y-114135063D01*
X137343663Y-114073903D01*
X137557830Y-113974035D01*
X137751401Y-113838495D01*
X137873329Y-113716566D01*
X137934648Y-113683084D01*
X138004340Y-113688068D01*
X138060274Y-113729939D01*
X138077189Y-113760917D01*
X138126202Y-113892328D01*
X138126206Y-113892335D01*
X138212452Y-114007544D01*
X138212455Y-114007547D01*
X138327664Y-114093793D01*
X138327671Y-114093797D01*
X138462517Y-114144091D01*
X138462516Y-114144091D01*
X138469444Y-114144835D01*
X138522127Y-114150500D01*
X140317872Y-114150499D01*
X140377483Y-114144091D01*
X140512331Y-114093796D01*
X140627546Y-114007546D01*
X140713796Y-113892331D01*
X140762810Y-113760916D01*
X140804681Y-113704984D01*
X140870145Y-113680566D01*
X140938418Y-113695417D01*
X140966673Y-113716569D01*
X141088599Y-113838495D01*
X141185384Y-113906264D01*
X141282165Y-113974032D01*
X141282167Y-113974033D01*
X141282170Y-113974035D01*
X141496337Y-114073903D01*
X141724592Y-114135063D01*
X141901034Y-114150500D01*
X141959999Y-114155659D01*
X141960000Y-114155659D01*
X141960001Y-114155659D01*
X142018966Y-114150500D01*
X142195408Y-114135063D01*
X142423663Y-114073903D01*
X142637830Y-113974035D01*
X142831401Y-113838495D01*
X142998495Y-113671401D01*
X143128424Y-113485842D01*
X143183002Y-113442217D01*
X143252500Y-113435023D01*
X143314855Y-113466546D01*
X143331575Y-113485842D01*
X143461500Y-113671395D01*
X143461505Y-113671401D01*
X143628599Y-113838495D01*
X143725384Y-113906264D01*
X143822165Y-113974032D01*
X143822167Y-113974033D01*
X143822170Y-113974035D01*
X144036337Y-114073903D01*
X144264592Y-114135063D01*
X144441034Y-114150500D01*
X144499999Y-114155659D01*
X144500000Y-114155659D01*
X144500001Y-114155659D01*
X144558966Y-114150500D01*
X144735408Y-114135063D01*
X144963663Y-114073903D01*
X145177830Y-113974035D01*
X145371401Y-113838495D01*
X145538495Y-113671401D01*
X145674035Y-113477830D01*
X145773903Y-113263663D01*
X145835063Y-113035408D01*
X145855659Y-112800000D01*
X145835063Y-112564592D01*
X145773903Y-112336337D01*
X145674035Y-112122171D01*
X145668425Y-112114158D01*
X145538494Y-111928597D01*
X145459530Y-111849633D01*
X145426045Y-111788310D01*
X145431029Y-111718618D01*
X145472901Y-111662685D01*
X145538365Y-111638268D01*
X145558006Y-111638423D01*
X145739200Y-111654276D01*
X145754999Y-111655659D01*
X145755000Y-111655659D01*
X145755001Y-111655659D01*
X145794234Y-111652226D01*
X145990408Y-111635063D01*
X146218663Y-111573903D01*
X146432830Y-111474035D01*
X146626401Y-111338495D01*
X146793495Y-111171401D01*
X146923426Y-110985841D01*
X146978002Y-110942217D01*
X147047500Y-110935023D01*
X147109855Y-110966546D01*
X147126575Y-110985842D01*
X147256500Y-111171395D01*
X147256505Y-111171401D01*
X147423599Y-111338495D01*
X147514392Y-111402069D01*
X147617165Y-111474032D01*
X147617167Y-111474033D01*
X147617170Y-111474035D01*
X147831337Y-111573903D01*
X148059592Y-111635063D01*
X148142954Y-111642356D01*
X148208022Y-111667808D01*
X148249001Y-111724399D01*
X148252879Y-111794161D01*
X148248329Y-111809215D01*
X148235908Y-111842517D01*
X148229879Y-111898598D01*
X148229501Y-111902123D01*
X148229500Y-111902135D01*
X148229500Y-113697870D01*
X148229501Y-113697876D01*
X148235908Y-113757483D01*
X148286202Y-113892328D01*
X148286206Y-113892335D01*
X148372452Y-114007544D01*
X148372455Y-114007547D01*
X148487664Y-114093793D01*
X148487671Y-114093797D01*
X148622517Y-114144091D01*
X148622516Y-114144091D01*
X148629444Y-114144835D01*
X148682127Y-114150500D01*
X150477872Y-114150499D01*
X150537483Y-114144091D01*
X150672331Y-114093796D01*
X150787546Y-114007546D01*
X150873796Y-113892331D01*
X150924091Y-113757483D01*
X150930500Y-113697873D01*
X150930499Y-111947870D01*
X152199500Y-111947870D01*
X152199501Y-111947876D01*
X152205908Y-112007483D01*
X152256202Y-112142328D01*
X152256206Y-112142335D01*
X152342452Y-112257544D01*
X152342455Y-112257547D01*
X152457664Y-112343793D01*
X152457671Y-112343797D01*
X152592517Y-112394091D01*
X152592516Y-112394091D01*
X152599444Y-112394835D01*
X152652127Y-112400500D01*
X156547872Y-112400499D01*
X156607483Y-112394091D01*
X156742331Y-112343796D01*
X156857546Y-112257546D01*
X156943796Y-112142331D01*
X156994091Y-112007483D01*
X157000500Y-111947873D01*
X157000499Y-108052128D01*
X156994091Y-107992517D01*
X156943796Y-107857669D01*
X156943795Y-107857668D01*
X156943793Y-107857664D01*
X156857547Y-107742455D01*
X156857544Y-107742452D01*
X156742335Y-107656206D01*
X156742328Y-107656202D01*
X156607482Y-107605908D01*
X156607483Y-107605908D01*
X156547883Y-107599501D01*
X156547881Y-107599500D01*
X156547873Y-107599500D01*
X156547864Y-107599500D01*
X152652129Y-107599500D01*
X152652123Y-107599501D01*
X152592516Y-107605908D01*
X152457671Y-107656202D01*
X152457664Y-107656206D01*
X152342455Y-107742452D01*
X152342452Y-107742455D01*
X152256206Y-107857664D01*
X152256202Y-107857671D01*
X152205908Y-107992517D01*
X152199501Y-108052116D01*
X152199501Y-108052123D01*
X152199500Y-108052135D01*
X152199500Y-111947870D01*
X150930499Y-111947870D01*
X150930499Y-111902128D01*
X150924091Y-111842517D01*
X150912901Y-111812516D01*
X150873797Y-111707671D01*
X150873793Y-111707664D01*
X150787547Y-111592455D01*
X150787544Y-111592452D01*
X150672335Y-111506206D01*
X150672328Y-111506202D01*
X150537482Y-111455908D01*
X150537483Y-111455908D01*
X150477883Y-111449501D01*
X150477881Y-111449500D01*
X150477873Y-111449500D01*
X150477865Y-111449500D01*
X149354758Y-111449500D01*
X149287719Y-111429815D01*
X149241964Y-111377011D01*
X149232020Y-111307853D01*
X149261045Y-111244297D01*
X149267077Y-111237819D01*
X149269345Y-111235551D01*
X149333495Y-111171401D01*
X149469035Y-110977830D01*
X149568903Y-110763663D01*
X149630063Y-110535408D01*
X149650659Y-110300000D01*
X149630063Y-110064592D01*
X149568903Y-109836337D01*
X149469035Y-109622171D01*
X149463425Y-109614158D01*
X149333494Y-109428597D01*
X149166402Y-109261506D01*
X149166395Y-109261501D01*
X148972834Y-109125967D01*
X148972830Y-109125965D01*
X148972828Y-109125964D01*
X148758663Y-109026097D01*
X148758659Y-109026096D01*
X148758655Y-109026094D01*
X148530413Y-108964938D01*
X148530403Y-108964936D01*
X148295001Y-108944341D01*
X148294999Y-108944341D01*
X148059596Y-108964936D01*
X148059586Y-108964938D01*
X147831344Y-109026094D01*
X147831335Y-109026098D01*
X147617171Y-109125964D01*
X147617169Y-109125965D01*
X147423597Y-109261505D01*
X147256505Y-109428597D01*
X147126575Y-109614158D01*
X147071998Y-109657783D01*
X147002500Y-109664977D01*
X146940145Y-109633454D01*
X146923425Y-109614158D01*
X146793494Y-109428597D01*
X146626402Y-109261506D01*
X146626395Y-109261501D01*
X146432834Y-109125967D01*
X146432830Y-109125965D01*
X146432828Y-109125964D01*
X146218663Y-109026097D01*
X146218659Y-109026096D01*
X146218655Y-109026094D01*
X145990413Y-108964938D01*
X145990403Y-108964936D01*
X145755001Y-108944341D01*
X145754999Y-108944341D01*
X145519596Y-108964936D01*
X145519586Y-108964938D01*
X145291344Y-109026094D01*
X145291335Y-109026098D01*
X145077171Y-109125964D01*
X145077169Y-109125965D01*
X144883597Y-109261505D01*
X144716505Y-109428597D01*
X144586575Y-109614158D01*
X144531998Y-109657783D01*
X144462500Y-109664977D01*
X144400145Y-109633454D01*
X144383425Y-109614158D01*
X144253494Y-109428597D01*
X144086402Y-109261506D01*
X144086395Y-109261501D01*
X143892834Y-109125967D01*
X143892830Y-109125965D01*
X143892828Y-109125964D01*
X143678663Y-109026097D01*
X143678659Y-109026096D01*
X143678655Y-109026094D01*
X143450413Y-108964938D01*
X143450403Y-108964936D01*
X143215001Y-108944341D01*
X143214999Y-108944341D01*
X142979596Y-108964936D01*
X142979586Y-108964938D01*
X142751344Y-109026094D01*
X142751335Y-109026098D01*
X142537171Y-109125964D01*
X142537169Y-109125965D01*
X142343597Y-109261505D01*
X142176505Y-109428597D01*
X142046575Y-109614158D01*
X141991998Y-109657783D01*
X141922500Y-109664977D01*
X141860145Y-109633454D01*
X141843425Y-109614158D01*
X141713494Y-109428597D01*
X141546402Y-109261506D01*
X141546395Y-109261501D01*
X141352834Y-109125967D01*
X141352830Y-109125965D01*
X141352828Y-109125964D01*
X141138663Y-109026097D01*
X141138659Y-109026096D01*
X141138655Y-109026094D01*
X140910413Y-108964938D01*
X140910403Y-108964936D01*
X140675001Y-108944341D01*
X140674999Y-108944341D01*
X140439596Y-108964936D01*
X140439586Y-108964938D01*
X140211344Y-109026094D01*
X140211335Y-109026098D01*
X139997171Y-109125964D01*
X139997169Y-109125965D01*
X139803597Y-109261505D01*
X139636505Y-109428597D01*
X139506575Y-109614158D01*
X139451998Y-109657783D01*
X139382500Y-109664977D01*
X139320145Y-109633454D01*
X139303425Y-109614158D01*
X139173494Y-109428597D01*
X139006402Y-109261506D01*
X139006395Y-109261501D01*
X138812834Y-109125967D01*
X138812830Y-109125965D01*
X138812828Y-109125964D01*
X138598663Y-109026097D01*
X138598659Y-109026096D01*
X138598655Y-109026094D01*
X138370413Y-108964938D01*
X138370403Y-108964936D01*
X138135001Y-108944341D01*
X138134999Y-108944341D01*
X137899596Y-108964936D01*
X137899586Y-108964938D01*
X137671344Y-109026094D01*
X137671335Y-109026098D01*
X137457171Y-109125964D01*
X137457169Y-109125965D01*
X137263597Y-109261505D01*
X137096505Y-109428597D01*
X136966575Y-109614158D01*
X136911998Y-109657783D01*
X136842500Y-109664977D01*
X136780145Y-109633454D01*
X136763425Y-109614158D01*
X136633494Y-109428597D01*
X136466402Y-109261506D01*
X136466395Y-109261501D01*
X136272834Y-109125967D01*
X136272830Y-109125965D01*
X136272828Y-109125964D01*
X136058663Y-109026097D01*
X136058659Y-109026096D01*
X136058655Y-109026094D01*
X135830413Y-108964938D01*
X135830403Y-108964936D01*
X135595001Y-108944341D01*
X135594999Y-108944341D01*
X135359596Y-108964936D01*
X135359586Y-108964938D01*
X135131344Y-109026094D01*
X135131335Y-109026098D01*
X134917171Y-109125964D01*
X134917169Y-109125965D01*
X134723597Y-109261505D01*
X134556505Y-109428597D01*
X134426575Y-109614158D01*
X134371998Y-109657783D01*
X134302500Y-109664977D01*
X134240145Y-109633454D01*
X134223425Y-109614158D01*
X134093494Y-109428597D01*
X133926402Y-109261506D01*
X133926395Y-109261501D01*
X133732834Y-109125967D01*
X133732830Y-109125965D01*
X133732828Y-109125964D01*
X133518663Y-109026097D01*
X133518659Y-109026096D01*
X133518655Y-109026094D01*
X133290413Y-108964938D01*
X133290403Y-108964936D01*
X133055001Y-108944341D01*
X133054999Y-108944341D01*
X132819596Y-108964936D01*
X132819586Y-108964938D01*
X132591344Y-109026094D01*
X132591335Y-109026098D01*
X132377171Y-109125964D01*
X132377169Y-109125965D01*
X132183597Y-109261505D01*
X132016505Y-109428597D01*
X131886575Y-109614158D01*
X131831998Y-109657783D01*
X131762500Y-109664977D01*
X131700145Y-109633454D01*
X131683425Y-109614158D01*
X131553494Y-109428597D01*
X131386402Y-109261506D01*
X131386395Y-109261501D01*
X131192834Y-109125967D01*
X131192830Y-109125965D01*
X131192828Y-109125964D01*
X130978663Y-109026097D01*
X130978659Y-109026096D01*
X130978655Y-109026094D01*
X130750413Y-108964938D01*
X130750403Y-108964936D01*
X130515001Y-108944341D01*
X130514999Y-108944341D01*
X130279596Y-108964936D01*
X130279586Y-108964938D01*
X130051344Y-109026094D01*
X130051335Y-109026098D01*
X129837171Y-109125964D01*
X129837169Y-109125965D01*
X129643597Y-109261505D01*
X129476505Y-109428597D01*
X129346575Y-109614158D01*
X129291998Y-109657783D01*
X129222500Y-109664977D01*
X129160145Y-109633454D01*
X129143425Y-109614158D01*
X129013494Y-109428597D01*
X128846402Y-109261506D01*
X128846395Y-109261501D01*
X128652834Y-109125967D01*
X128652830Y-109125965D01*
X128652828Y-109125964D01*
X128438663Y-109026097D01*
X128438659Y-109026096D01*
X128438655Y-109026094D01*
X128210413Y-108964938D01*
X128210403Y-108964936D01*
X127975001Y-108944341D01*
X127974999Y-108944341D01*
X127739596Y-108964936D01*
X127739586Y-108964938D01*
X127511344Y-109026094D01*
X127511335Y-109026098D01*
X127297171Y-109125964D01*
X127297169Y-109125965D01*
X127103597Y-109261505D01*
X126936505Y-109428597D01*
X126800965Y-109622169D01*
X126800964Y-109622171D01*
X126701098Y-109836335D01*
X126701094Y-109836344D01*
X126639938Y-110064586D01*
X126639936Y-110064596D01*
X126619341Y-110299999D01*
X126619341Y-110300000D01*
X126639936Y-110535403D01*
X126639938Y-110535413D01*
X126701094Y-110763655D01*
X126701096Y-110763659D01*
X126701097Y-110763663D01*
X126705000Y-110772032D01*
X126800965Y-110977830D01*
X126800967Y-110977834D01*
X126909281Y-111132521D01*
X126936504Y-111171400D01*
X126936506Y-111171402D01*
X127103597Y-111338493D01*
X127103603Y-111338498D01*
X127226672Y-111424672D01*
X127270297Y-111479249D01*
X127277491Y-111548747D01*
X127245968Y-111611102D01*
X127226673Y-111627822D01*
X127078594Y-111731508D01*
X126911505Y-111898597D01*
X126781575Y-112084158D01*
X126726998Y-112127783D01*
X126657500Y-112134977D01*
X126595145Y-112103454D01*
X126578425Y-112084158D01*
X126448494Y-111898597D01*
X126281402Y-111731506D01*
X126281395Y-111731501D01*
X126271252Y-111724399D01*
X126204518Y-111677671D01*
X126087834Y-111595967D01*
X126087830Y-111595965D01*
X126040518Y-111573903D01*
X125873663Y-111496097D01*
X125873659Y-111496096D01*
X125873655Y-111496094D01*
X125645413Y-111434938D01*
X125645403Y-111434936D01*
X125410001Y-111414341D01*
X125409999Y-111414341D01*
X125174596Y-111434936D01*
X125174586Y-111434938D01*
X124946344Y-111496094D01*
X124946335Y-111496098D01*
X124732171Y-111595964D01*
X124732169Y-111595965D01*
X124538600Y-111731503D01*
X124416673Y-111853430D01*
X124355350Y-111886914D01*
X124285658Y-111881930D01*
X124229725Y-111840058D01*
X124212810Y-111809081D01*
X124163797Y-111677671D01*
X124163793Y-111677664D01*
X124077547Y-111562455D01*
X124077544Y-111562452D01*
X123962335Y-111476206D01*
X123962328Y-111476202D01*
X123827482Y-111425908D01*
X123827483Y-111425908D01*
X123767883Y-111419501D01*
X123767881Y-111419500D01*
X123767873Y-111419500D01*
X123767864Y-111419500D01*
X121972129Y-111419500D01*
X121972123Y-111419501D01*
X121912516Y-111425908D01*
X121777671Y-111476202D01*
X121777664Y-111476206D01*
X121662455Y-111562452D01*
X121662452Y-111562455D01*
X121576206Y-111677664D01*
X121576203Y-111677669D01*
X121527189Y-111809083D01*
X121485317Y-111865016D01*
X121419853Y-111889433D01*
X121351580Y-111874581D01*
X121323326Y-111853430D01*
X121201402Y-111731506D01*
X121201395Y-111731501D01*
X121191252Y-111724399D01*
X121124518Y-111677671D01*
X121007834Y-111595967D01*
X121007830Y-111595965D01*
X120960518Y-111573903D01*
X120793663Y-111496097D01*
X120793659Y-111496096D01*
X120793655Y-111496094D01*
X120565413Y-111434938D01*
X120565403Y-111434936D01*
X120330001Y-111414341D01*
X120329999Y-111414341D01*
X120094596Y-111434936D01*
X120094586Y-111434938D01*
X119866344Y-111496094D01*
X119866335Y-111496098D01*
X119652171Y-111595964D01*
X119652169Y-111595965D01*
X119458597Y-111731505D01*
X119291504Y-111898598D01*
X119275571Y-111921352D01*
X119220993Y-111964975D01*
X119151494Y-111972166D01*
X119089140Y-111940641D01*
X119053729Y-111880410D01*
X119050000Y-111850233D01*
X119050000Y-105404780D01*
X119069684Y-105337745D01*
X119122488Y-105291990D01*
X119191646Y-105282046D01*
X119255202Y-105311071D01*
X119275574Y-105333660D01*
X119316705Y-105392401D01*
X119483799Y-105559495D01*
X119580584Y-105627264D01*
X119677365Y-105695032D01*
X119677367Y-105695033D01*
X119677370Y-105695035D01*
X119891537Y-105794903D01*
X120119792Y-105856063D01*
X120308118Y-105872539D01*
X120355199Y-105876659D01*
X120355200Y-105876659D01*
X120355201Y-105876659D01*
X120394434Y-105873226D01*
X120590608Y-105856063D01*
X120818863Y-105794903D01*
X121033030Y-105695035D01*
X121226601Y-105559495D01*
X121393695Y-105392401D01*
X121523626Y-105206841D01*
X121578202Y-105163217D01*
X121647700Y-105156023D01*
X121710055Y-105187546D01*
X121726775Y-105206842D01*
X121856700Y-105392395D01*
X121856705Y-105392401D01*
X122023799Y-105559495D01*
X122120584Y-105627264D01*
X122217365Y-105695032D01*
X122217367Y-105695033D01*
X122217370Y-105695035D01*
X122431537Y-105794903D01*
X122659792Y-105856063D01*
X122848118Y-105872539D01*
X122895199Y-105876659D01*
X122895200Y-105876659D01*
X122895201Y-105876659D01*
X122934434Y-105873226D01*
X123130608Y-105856063D01*
X123358863Y-105794903D01*
X123573030Y-105695035D01*
X123766601Y-105559495D01*
X123933695Y-105392401D01*
X124063626Y-105206840D01*
X124118201Y-105163217D01*
X124187699Y-105156023D01*
X124250054Y-105187546D01*
X124266774Y-105206841D01*
X124396705Y-105392401D01*
X124563799Y-105559495D01*
X124660584Y-105627264D01*
X124757365Y-105695032D01*
X124757367Y-105695033D01*
X124757370Y-105695035D01*
X124971537Y-105794903D01*
X125199792Y-105856063D01*
X125388118Y-105872539D01*
X125435199Y-105876659D01*
X125435200Y-105876659D01*
X125435201Y-105876659D01*
X125474434Y-105873226D01*
X125670608Y-105856063D01*
X125898863Y-105794903D01*
X126113030Y-105695035D01*
X126306601Y-105559495D01*
X126473695Y-105392401D01*
X126603626Y-105206841D01*
X126658202Y-105163217D01*
X126727700Y-105156023D01*
X126790055Y-105187546D01*
X126806775Y-105206842D01*
X126936700Y-105392395D01*
X126936705Y-105392401D01*
X127103799Y-105559495D01*
X127200584Y-105627264D01*
X127297365Y-105695032D01*
X127297367Y-105695033D01*
X127297370Y-105695035D01*
X127511537Y-105794903D01*
X127739792Y-105856063D01*
X127928118Y-105872539D01*
X127975199Y-105876659D01*
X127975200Y-105876659D01*
X127975201Y-105876659D01*
X128014434Y-105873226D01*
X128210608Y-105856063D01*
X128438863Y-105794903D01*
X128653030Y-105695035D01*
X128846601Y-105559495D01*
X129013695Y-105392401D01*
X129143626Y-105206840D01*
X129198201Y-105163217D01*
X129267699Y-105156023D01*
X129330054Y-105187546D01*
X129346774Y-105206841D01*
X129476705Y-105392401D01*
X129643799Y-105559495D01*
X129740584Y-105627264D01*
X129837365Y-105695032D01*
X129837367Y-105695033D01*
X129837370Y-105695035D01*
X130051537Y-105794903D01*
X130279792Y-105856063D01*
X130468118Y-105872539D01*
X130515199Y-105876659D01*
X130515200Y-105876659D01*
X130515201Y-105876659D01*
X130554434Y-105873226D01*
X130750608Y-105856063D01*
X130978863Y-105794903D01*
X131193030Y-105695035D01*
X131386601Y-105559495D01*
X131553695Y-105392401D01*
X131683626Y-105206841D01*
X131738202Y-105163217D01*
X131807700Y-105156023D01*
X131870055Y-105187546D01*
X131886775Y-105206842D01*
X132016700Y-105392395D01*
X132016705Y-105392401D01*
X132183799Y-105559495D01*
X132280584Y-105627264D01*
X132377365Y-105695032D01*
X132377367Y-105695033D01*
X132377370Y-105695035D01*
X132591537Y-105794903D01*
X132819792Y-105856063D01*
X133008118Y-105872539D01*
X133055199Y-105876659D01*
X133055200Y-105876659D01*
X133055201Y-105876659D01*
X133094434Y-105873226D01*
X133290608Y-105856063D01*
X133518863Y-105794903D01*
X133733030Y-105695035D01*
X133926601Y-105559495D01*
X134093695Y-105392401D01*
X134223626Y-105206841D01*
X134278202Y-105163217D01*
X134347700Y-105156023D01*
X134410055Y-105187546D01*
X134426775Y-105206842D01*
X134556700Y-105392395D01*
X134556705Y-105392401D01*
X134723799Y-105559495D01*
X134820584Y-105627264D01*
X134917365Y-105695032D01*
X134917367Y-105695033D01*
X134917370Y-105695035D01*
X135131537Y-105794903D01*
X135359792Y-105856063D01*
X135548118Y-105872539D01*
X135595199Y-105876659D01*
X135595200Y-105876659D01*
X135595201Y-105876659D01*
X135634434Y-105873226D01*
X135830608Y-105856063D01*
X136058863Y-105794903D01*
X136273030Y-105695035D01*
X136466601Y-105559495D01*
X136633695Y-105392401D01*
X136763626Y-105206841D01*
X136818202Y-105163217D01*
X136887700Y-105156023D01*
X136950055Y-105187546D01*
X136966775Y-105206842D01*
X137096700Y-105392395D01*
X137096705Y-105392401D01*
X137263799Y-105559495D01*
X137360584Y-105627265D01*
X137457365Y-105695032D01*
X137457367Y-105695033D01*
X137457370Y-105695035D01*
X137671537Y-105794903D01*
X137899792Y-105856063D01*
X138088118Y-105872539D01*
X138135199Y-105876659D01*
X138135200Y-105876659D01*
X138135201Y-105876659D01*
X138174434Y-105873226D01*
X138370608Y-105856063D01*
X138598863Y-105794903D01*
X138813030Y-105695035D01*
X139006601Y-105559495D01*
X139173695Y-105392401D01*
X139303626Y-105206841D01*
X139358202Y-105163217D01*
X139427700Y-105156023D01*
X139490055Y-105187546D01*
X139506775Y-105206842D01*
X139636700Y-105392395D01*
X139636705Y-105392401D01*
X139803799Y-105559495D01*
X139900584Y-105627265D01*
X139997365Y-105695032D01*
X139997367Y-105695033D01*
X139997370Y-105695035D01*
X140211537Y-105794903D01*
X140439792Y-105856063D01*
X140628118Y-105872539D01*
X140675199Y-105876659D01*
X140675200Y-105876659D01*
X140675201Y-105876659D01*
X140714434Y-105873226D01*
X140910608Y-105856063D01*
X141138863Y-105794903D01*
X141353030Y-105695035D01*
X141546601Y-105559495D01*
X141713695Y-105392401D01*
X141843626Y-105206841D01*
X141898202Y-105163217D01*
X141967700Y-105156023D01*
X142030055Y-105187546D01*
X142046775Y-105206842D01*
X142176700Y-105392395D01*
X142176705Y-105392401D01*
X142343799Y-105559495D01*
X142440584Y-105627265D01*
X142537365Y-105695032D01*
X142537367Y-105695033D01*
X142537370Y-105695035D01*
X142751537Y-105794903D01*
X142979792Y-105856063D01*
X143168118Y-105872539D01*
X143215199Y-105876659D01*
X143215200Y-105876659D01*
X143215201Y-105876659D01*
X143254434Y-105873226D01*
X143450608Y-105856063D01*
X143678863Y-105794903D01*
X143893030Y-105695035D01*
X144086601Y-105559495D01*
X144253695Y-105392401D01*
X144383626Y-105206841D01*
X144438202Y-105163217D01*
X144507700Y-105156023D01*
X144570055Y-105187546D01*
X144586775Y-105206842D01*
X144716700Y-105392395D01*
X144716705Y-105392401D01*
X144883799Y-105559495D01*
X144980584Y-105627265D01*
X145077365Y-105695032D01*
X145077367Y-105695033D01*
X145077370Y-105695035D01*
X145291537Y-105794903D01*
X145519792Y-105856063D01*
X145708118Y-105872539D01*
X145755199Y-105876659D01*
X145755200Y-105876659D01*
X145755201Y-105876659D01*
X145794434Y-105873226D01*
X145990608Y-105856063D01*
X146218863Y-105794903D01*
X146433030Y-105695035D01*
X146626601Y-105559495D01*
X146793695Y-105392401D01*
X146923626Y-105206841D01*
X146978202Y-105163217D01*
X147047700Y-105156023D01*
X147110055Y-105187546D01*
X147126775Y-105206842D01*
X147256700Y-105392395D01*
X147256705Y-105392401D01*
X147423799Y-105559495D01*
X147520584Y-105627265D01*
X147617365Y-105695032D01*
X147617367Y-105695033D01*
X147617370Y-105695035D01*
X147831537Y-105794903D01*
X148059792Y-105856063D01*
X148248118Y-105872539D01*
X148295199Y-105876659D01*
X148295200Y-105876659D01*
X148295201Y-105876659D01*
X148334434Y-105873226D01*
X148530608Y-105856063D01*
X148758863Y-105794903D01*
X148973030Y-105695035D01*
X149166601Y-105559495D01*
X149333695Y-105392401D01*
X149469235Y-105198830D01*
X149569103Y-104984663D01*
X149630263Y-104756408D01*
X149650859Y-104521000D01*
X149630263Y-104285592D01*
X149569103Y-104057337D01*
X149469235Y-103843171D01*
X149463625Y-103835158D01*
X149333694Y-103649597D01*
X149166602Y-103482506D01*
X149166595Y-103482501D01*
X148973034Y-103346967D01*
X148973030Y-103346965D01*
X148973028Y-103346964D01*
X148758863Y-103247097D01*
X148758859Y-103247096D01*
X148758855Y-103247094D01*
X148530613Y-103185938D01*
X148530603Y-103185936D01*
X148295201Y-103165341D01*
X148295199Y-103165341D01*
X148059796Y-103185936D01*
X148059786Y-103185938D01*
X147831544Y-103247094D01*
X147831535Y-103247098D01*
X147617371Y-103346964D01*
X147617369Y-103346965D01*
X147423797Y-103482505D01*
X147256705Y-103649597D01*
X147126775Y-103835158D01*
X147072198Y-103878783D01*
X147002700Y-103885977D01*
X146940345Y-103854454D01*
X146923625Y-103835158D01*
X146793694Y-103649597D01*
X146626602Y-103482506D01*
X146626595Y-103482501D01*
X146433034Y-103346967D01*
X146433030Y-103346965D01*
X146433028Y-103346964D01*
X146218863Y-103247097D01*
X146218859Y-103247096D01*
X146218855Y-103247094D01*
X145990613Y-103185938D01*
X145990603Y-103185936D01*
X145755201Y-103165341D01*
X145755199Y-103165341D01*
X145519796Y-103185936D01*
X145519786Y-103185938D01*
X145291544Y-103247094D01*
X145291535Y-103247098D01*
X145077371Y-103346964D01*
X145077369Y-103346965D01*
X144883797Y-103482505D01*
X144716708Y-103649594D01*
X144586774Y-103835159D01*
X144532197Y-103878784D01*
X144462698Y-103885976D01*
X144400344Y-103854454D01*
X144383624Y-103835158D01*
X144253694Y-103649597D01*
X144086602Y-103482506D01*
X144086595Y-103482501D01*
X143893034Y-103346967D01*
X143893030Y-103346965D01*
X143893028Y-103346964D01*
X143678863Y-103247097D01*
X143678859Y-103247096D01*
X143678855Y-103247094D01*
X143450613Y-103185938D01*
X143450603Y-103185936D01*
X143215201Y-103165341D01*
X143215199Y-103165341D01*
X142979796Y-103185936D01*
X142979786Y-103185938D01*
X142751544Y-103247094D01*
X142751535Y-103247098D01*
X142537371Y-103346964D01*
X142537369Y-103346965D01*
X142343797Y-103482505D01*
X142176705Y-103649597D01*
X142046775Y-103835158D01*
X141992198Y-103878783D01*
X141922700Y-103885977D01*
X141860345Y-103854454D01*
X141843625Y-103835158D01*
X141713694Y-103649597D01*
X141546602Y-103482506D01*
X141546595Y-103482501D01*
X141353034Y-103346967D01*
X141353030Y-103346965D01*
X141353028Y-103346964D01*
X141138863Y-103247097D01*
X141138859Y-103247096D01*
X141138855Y-103247094D01*
X140910613Y-103185938D01*
X140910603Y-103185936D01*
X140675201Y-103165341D01*
X140675199Y-103165341D01*
X140439796Y-103185936D01*
X140439786Y-103185938D01*
X140211544Y-103247094D01*
X140211535Y-103247098D01*
X139997371Y-103346964D01*
X139997369Y-103346965D01*
X139803797Y-103482505D01*
X139636705Y-103649597D01*
X139506775Y-103835158D01*
X139452198Y-103878783D01*
X139382700Y-103885977D01*
X139320345Y-103854454D01*
X139303625Y-103835158D01*
X139173694Y-103649597D01*
X139006602Y-103482506D01*
X139006595Y-103482501D01*
X138813034Y-103346967D01*
X138813030Y-103346965D01*
X138813028Y-103346964D01*
X138598863Y-103247097D01*
X138598859Y-103247096D01*
X138598855Y-103247094D01*
X138370613Y-103185938D01*
X138370603Y-103185936D01*
X138135201Y-103165341D01*
X138135199Y-103165341D01*
X137899796Y-103185936D01*
X137899786Y-103185938D01*
X137671544Y-103247094D01*
X137671535Y-103247098D01*
X137457371Y-103346964D01*
X137457369Y-103346965D01*
X137263797Y-103482505D01*
X137096705Y-103649597D01*
X136966775Y-103835158D01*
X136912198Y-103878783D01*
X136842700Y-103885977D01*
X136780345Y-103854454D01*
X136763625Y-103835158D01*
X136633694Y-103649597D01*
X136466602Y-103482506D01*
X136466595Y-103482501D01*
X136273034Y-103346967D01*
X136273030Y-103346965D01*
X136273028Y-103346964D01*
X136058863Y-103247097D01*
X136058859Y-103247096D01*
X136058855Y-103247094D01*
X135830613Y-103185938D01*
X135830603Y-103185936D01*
X135595201Y-103165341D01*
X135595199Y-103165341D01*
X135359796Y-103185936D01*
X135359786Y-103185938D01*
X135131544Y-103247094D01*
X135131535Y-103247098D01*
X134917371Y-103346964D01*
X134917369Y-103346965D01*
X134723797Y-103482505D01*
X134556705Y-103649597D01*
X134426775Y-103835158D01*
X134372198Y-103878783D01*
X134302700Y-103885977D01*
X134240345Y-103854454D01*
X134223625Y-103835158D01*
X134093694Y-103649597D01*
X133926602Y-103482506D01*
X133926595Y-103482501D01*
X133733034Y-103346967D01*
X133733030Y-103346965D01*
X133733028Y-103346964D01*
X133518863Y-103247097D01*
X133518859Y-103247096D01*
X133518855Y-103247094D01*
X133290613Y-103185938D01*
X133290603Y-103185936D01*
X133055201Y-103165341D01*
X133055199Y-103165341D01*
X132819796Y-103185936D01*
X132819786Y-103185938D01*
X132591544Y-103247094D01*
X132591535Y-103247098D01*
X132377371Y-103346964D01*
X132377369Y-103346965D01*
X132183797Y-103482505D01*
X132016708Y-103649594D01*
X131886774Y-103835159D01*
X131832197Y-103878784D01*
X131762698Y-103885976D01*
X131700344Y-103854454D01*
X131683624Y-103835158D01*
X131553694Y-103649597D01*
X131386602Y-103482506D01*
X131386595Y-103482501D01*
X131193034Y-103346967D01*
X131193030Y-103346965D01*
X131193028Y-103346964D01*
X130978863Y-103247097D01*
X130978859Y-103247096D01*
X130978855Y-103247094D01*
X130750613Y-103185938D01*
X130750603Y-103185936D01*
X130515201Y-103165341D01*
X130515199Y-103165341D01*
X130279796Y-103185936D01*
X130279786Y-103185938D01*
X130051544Y-103247094D01*
X130051535Y-103247098D01*
X129837371Y-103346964D01*
X129837369Y-103346965D01*
X129643797Y-103482505D01*
X129476705Y-103649597D01*
X129346775Y-103835158D01*
X129292198Y-103878783D01*
X129222700Y-103885977D01*
X129160345Y-103854454D01*
X129143625Y-103835158D01*
X129013694Y-103649597D01*
X128846602Y-103482506D01*
X128846595Y-103482501D01*
X128653034Y-103346967D01*
X128653030Y-103346965D01*
X128653028Y-103346964D01*
X128438863Y-103247097D01*
X128438859Y-103247096D01*
X128438855Y-103247094D01*
X128210613Y-103185938D01*
X128210603Y-103185936D01*
X127975201Y-103165341D01*
X127975199Y-103165341D01*
X127739796Y-103185936D01*
X127739786Y-103185938D01*
X127511544Y-103247094D01*
X127511535Y-103247098D01*
X127297371Y-103346964D01*
X127297369Y-103346965D01*
X127103797Y-103482505D01*
X126936705Y-103649597D01*
X126806775Y-103835158D01*
X126752198Y-103878783D01*
X126682700Y-103885977D01*
X126620345Y-103854454D01*
X126603625Y-103835158D01*
X126473694Y-103649597D01*
X126306602Y-103482506D01*
X126306595Y-103482501D01*
X126113034Y-103346967D01*
X126113030Y-103346965D01*
X126113028Y-103346964D01*
X125898863Y-103247097D01*
X125898859Y-103247096D01*
X125898855Y-103247094D01*
X125670613Y-103185938D01*
X125670603Y-103185936D01*
X125435201Y-103165341D01*
X125435199Y-103165341D01*
X125199796Y-103185936D01*
X125199786Y-103185938D01*
X124971544Y-103247094D01*
X124971535Y-103247098D01*
X124757371Y-103346964D01*
X124757369Y-103346965D01*
X124563797Y-103482505D01*
X124396705Y-103649597D01*
X124266775Y-103835158D01*
X124212198Y-103878783D01*
X124142700Y-103885977D01*
X124080345Y-103854454D01*
X124063625Y-103835158D01*
X123933694Y-103649597D01*
X123766602Y-103482506D01*
X123766595Y-103482501D01*
X123573034Y-103346967D01*
X123573030Y-103346965D01*
X123573028Y-103346964D01*
X123358863Y-103247097D01*
X123358859Y-103247096D01*
X123358855Y-103247094D01*
X123130613Y-103185938D01*
X123130603Y-103185936D01*
X122895201Y-103165341D01*
X122895199Y-103165341D01*
X122659796Y-103185936D01*
X122659786Y-103185938D01*
X122431544Y-103247094D01*
X122431535Y-103247098D01*
X122217371Y-103346964D01*
X122217369Y-103346965D01*
X122023797Y-103482505D01*
X121856705Y-103649597D01*
X121726775Y-103835158D01*
X121672198Y-103878783D01*
X121602700Y-103885977D01*
X121540345Y-103854454D01*
X121523625Y-103835158D01*
X121393694Y-103649597D01*
X121226602Y-103482506D01*
X121226595Y-103482501D01*
X121033034Y-103346967D01*
X121033030Y-103346965D01*
X121033028Y-103346964D01*
X120818863Y-103247097D01*
X120818859Y-103247096D01*
X120818855Y-103247094D01*
X120590613Y-103185938D01*
X120590603Y-103185936D01*
X120355201Y-103165341D01*
X120355199Y-103165341D01*
X120119796Y-103185936D01*
X120119786Y-103185938D01*
X119891544Y-103247094D01*
X119891535Y-103247098D01*
X119677371Y-103346964D01*
X119677369Y-103346965D01*
X119483797Y-103482505D01*
X119316707Y-103649595D01*
X119275573Y-103708340D01*
X119220996Y-103751964D01*
X119151497Y-103759156D01*
X119089143Y-103727633D01*
X119053730Y-103667403D01*
X119050000Y-103637223D01*
X119050000Y-100070000D01*
X126594341Y-100070000D01*
X126614936Y-100305403D01*
X126614938Y-100305413D01*
X126676094Y-100533655D01*
X126676096Y-100533659D01*
X126676097Y-100533663D01*
X126690087Y-100563664D01*
X126775965Y-100747830D01*
X126775967Y-100747834D01*
X126802581Y-100785842D01*
X126911505Y-100941401D01*
X127078599Y-101108495D01*
X127121448Y-101138498D01*
X127272165Y-101244032D01*
X127272167Y-101244033D01*
X127272170Y-101244035D01*
X127486337Y-101343903D01*
X127714592Y-101405063D01*
X127902918Y-101421539D01*
X127949999Y-101425659D01*
X127950000Y-101425659D01*
X127950001Y-101425659D01*
X127989234Y-101422226D01*
X128185408Y-101405063D01*
X128413663Y-101343903D01*
X128627830Y-101244035D01*
X128821401Y-101108495D01*
X128988495Y-100941401D01*
X129118424Y-100755842D01*
X129173002Y-100712217D01*
X129242500Y-100705023D01*
X129304855Y-100736546D01*
X129321575Y-100755842D01*
X129451500Y-100941395D01*
X129451505Y-100941401D01*
X129618599Y-101108495D01*
X129661448Y-101138498D01*
X129812165Y-101244032D01*
X129812167Y-101244033D01*
X129812170Y-101244035D01*
X130026337Y-101343903D01*
X130254592Y-101405063D01*
X130442918Y-101421539D01*
X130489999Y-101425659D01*
X130490000Y-101425659D01*
X130490001Y-101425659D01*
X130529234Y-101422226D01*
X130725408Y-101405063D01*
X130953663Y-101343903D01*
X131167830Y-101244035D01*
X131361401Y-101108495D01*
X131528495Y-100941401D01*
X131658424Y-100755842D01*
X131713002Y-100712217D01*
X131782500Y-100705023D01*
X131844855Y-100736546D01*
X131861575Y-100755842D01*
X131991500Y-100941395D01*
X131991505Y-100941401D01*
X132158599Y-101108495D01*
X132201448Y-101138498D01*
X132352165Y-101244032D01*
X132352167Y-101244033D01*
X132352170Y-101244035D01*
X132566337Y-101343903D01*
X132794592Y-101405063D01*
X132982918Y-101421539D01*
X133029999Y-101425659D01*
X133030000Y-101425659D01*
X133030001Y-101425659D01*
X133069234Y-101422226D01*
X133265408Y-101405063D01*
X133493663Y-101343903D01*
X133707830Y-101244035D01*
X133901401Y-101108495D01*
X134068495Y-100941401D01*
X134204035Y-100747830D01*
X134303903Y-100533663D01*
X134365063Y-100305408D01*
X134383034Y-100100000D01*
X143144341Y-100100000D01*
X143164936Y-100335403D01*
X143164938Y-100335413D01*
X143226094Y-100563655D01*
X143226096Y-100563659D01*
X143226097Y-100563663D01*
X143295369Y-100712217D01*
X143325965Y-100777830D01*
X143325967Y-100777834D01*
X143434281Y-100932521D01*
X143461505Y-100971401D01*
X143628599Y-101138495D01*
X143725384Y-101206265D01*
X143822165Y-101274032D01*
X143822167Y-101274033D01*
X143822170Y-101274035D01*
X144036337Y-101373903D01*
X144264592Y-101435063D01*
X144452918Y-101451539D01*
X144499999Y-101455659D01*
X144500000Y-101455659D01*
X144500001Y-101455659D01*
X144539234Y-101452226D01*
X144735408Y-101435063D01*
X144963663Y-101373903D01*
X145177830Y-101274035D01*
X145371401Y-101138495D01*
X145538495Y-100971401D01*
X145668424Y-100785842D01*
X145723002Y-100742217D01*
X145792500Y-100735023D01*
X145854855Y-100766546D01*
X145871575Y-100785842D01*
X146001500Y-100971395D01*
X146001505Y-100971401D01*
X146168599Y-101138495D01*
X146265384Y-101206265D01*
X146362165Y-101274032D01*
X146362167Y-101274033D01*
X146362170Y-101274035D01*
X146576337Y-101373903D01*
X146804592Y-101435063D01*
X146992918Y-101451539D01*
X147039999Y-101455659D01*
X147040000Y-101455659D01*
X147040001Y-101455659D01*
X147079234Y-101452226D01*
X147275408Y-101435063D01*
X147503663Y-101373903D01*
X147717830Y-101274035D01*
X147911401Y-101138495D01*
X148078495Y-100971401D01*
X148208424Y-100785842D01*
X148263002Y-100742217D01*
X148332500Y-100735023D01*
X148394855Y-100766546D01*
X148411575Y-100785842D01*
X148541500Y-100971395D01*
X148541505Y-100971401D01*
X148708599Y-101138495D01*
X148805384Y-101206265D01*
X148902165Y-101274032D01*
X148902167Y-101274033D01*
X148902170Y-101274035D01*
X149116337Y-101373903D01*
X149344592Y-101435063D01*
X149532918Y-101451539D01*
X149579999Y-101455659D01*
X149580000Y-101455659D01*
X149580001Y-101455659D01*
X149619234Y-101452226D01*
X149815408Y-101435063D01*
X150043663Y-101373903D01*
X150257830Y-101274035D01*
X150451401Y-101138495D01*
X150618495Y-100971401D01*
X150754035Y-100777830D01*
X150853903Y-100563663D01*
X150915063Y-100335408D01*
X150935659Y-100100000D01*
X150915063Y-99864592D01*
X150853903Y-99636337D01*
X150754035Y-99422171D01*
X150748425Y-99414158D01*
X150618494Y-99228597D01*
X150451402Y-99061506D01*
X150451395Y-99061501D01*
X150257834Y-98925967D01*
X150257830Y-98925965D01*
X150193495Y-98895965D01*
X150043663Y-98826097D01*
X150043659Y-98826096D01*
X150043655Y-98826094D01*
X149815413Y-98764938D01*
X149815403Y-98764936D01*
X149580001Y-98744341D01*
X149579999Y-98744341D01*
X149344596Y-98764936D01*
X149344586Y-98764938D01*
X149116344Y-98826094D01*
X149116335Y-98826098D01*
X148902171Y-98925964D01*
X148902169Y-98925965D01*
X148708597Y-99061505D01*
X148541505Y-99228597D01*
X148411575Y-99414158D01*
X148356998Y-99457783D01*
X148287500Y-99464977D01*
X148225145Y-99433454D01*
X148208425Y-99414158D01*
X148078494Y-99228597D01*
X147911402Y-99061506D01*
X147911395Y-99061501D01*
X147717834Y-98925967D01*
X147717830Y-98925965D01*
X147653495Y-98895965D01*
X147503663Y-98826097D01*
X147503659Y-98826096D01*
X147503655Y-98826094D01*
X147275413Y-98764938D01*
X147275403Y-98764936D01*
X147040001Y-98744341D01*
X147039999Y-98744341D01*
X146804596Y-98764936D01*
X146804586Y-98764938D01*
X146576344Y-98826094D01*
X146576335Y-98826098D01*
X146362171Y-98925964D01*
X146362169Y-98925965D01*
X146168597Y-99061505D01*
X146001505Y-99228597D01*
X145871575Y-99414158D01*
X145816998Y-99457783D01*
X145747500Y-99464977D01*
X145685145Y-99433454D01*
X145668425Y-99414158D01*
X145538494Y-99228597D01*
X145371402Y-99061506D01*
X145371395Y-99061501D01*
X145177834Y-98925967D01*
X145177830Y-98925965D01*
X145113495Y-98895965D01*
X144963663Y-98826097D01*
X144963659Y-98826096D01*
X144963655Y-98826094D01*
X144735413Y-98764938D01*
X144735403Y-98764936D01*
X144500001Y-98744341D01*
X144499999Y-98744341D01*
X144264596Y-98764936D01*
X144264586Y-98764938D01*
X144036344Y-98826094D01*
X144036335Y-98826098D01*
X143822171Y-98925964D01*
X143822169Y-98925965D01*
X143628597Y-99061505D01*
X143461505Y-99228597D01*
X143325965Y-99422169D01*
X143325964Y-99422171D01*
X143226098Y-99636335D01*
X143226094Y-99636344D01*
X143164938Y-99864586D01*
X143164936Y-99864596D01*
X143144341Y-100099999D01*
X143144341Y-100100000D01*
X134383034Y-100100000D01*
X134385659Y-100070000D01*
X134365063Y-99834592D01*
X134303903Y-99606337D01*
X134204035Y-99392171D01*
X134198425Y-99384158D01*
X134068494Y-99198597D01*
X133901402Y-99031506D01*
X133901395Y-99031501D01*
X133707834Y-98895967D01*
X133707830Y-98895965D01*
X133681959Y-98883901D01*
X133493663Y-98796097D01*
X133493659Y-98796096D01*
X133493655Y-98796094D01*
X133265413Y-98734938D01*
X133265403Y-98734936D01*
X133030001Y-98714341D01*
X133029999Y-98714341D01*
X132794596Y-98734936D01*
X132794586Y-98734938D01*
X132566344Y-98796094D01*
X132566335Y-98796098D01*
X132352171Y-98895964D01*
X132352169Y-98895965D01*
X132158597Y-99031505D01*
X131991508Y-99198594D01*
X131861574Y-99384159D01*
X131806997Y-99427784D01*
X131737498Y-99434976D01*
X131675144Y-99403454D01*
X131658424Y-99384158D01*
X131528494Y-99198597D01*
X131361402Y-99031506D01*
X131361395Y-99031501D01*
X131167834Y-98895967D01*
X131167830Y-98895965D01*
X131141959Y-98883901D01*
X130953663Y-98796097D01*
X130953659Y-98796096D01*
X130953655Y-98796094D01*
X130725413Y-98734938D01*
X130725403Y-98734936D01*
X130490001Y-98714341D01*
X130489999Y-98714341D01*
X130254596Y-98734936D01*
X130254586Y-98734938D01*
X130026344Y-98796094D01*
X130026335Y-98796098D01*
X129812171Y-98895964D01*
X129812169Y-98895965D01*
X129618597Y-99031505D01*
X129451508Y-99198594D01*
X129321574Y-99384160D01*
X129266997Y-99427784D01*
X129197498Y-99434977D01*
X129135144Y-99403455D01*
X129118429Y-99384164D01*
X128988495Y-99198599D01*
X128988493Y-99198596D01*
X128821402Y-99031506D01*
X128821395Y-99031501D01*
X128627834Y-98895967D01*
X128627830Y-98895965D01*
X128601959Y-98883901D01*
X128413663Y-98796097D01*
X128413659Y-98796096D01*
X128413655Y-98796094D01*
X128185413Y-98734938D01*
X128185403Y-98734936D01*
X127950001Y-98714341D01*
X127949999Y-98714341D01*
X127714596Y-98734936D01*
X127714586Y-98734938D01*
X127486344Y-98796094D01*
X127486335Y-98796098D01*
X127272171Y-98895964D01*
X127272169Y-98895965D01*
X127078597Y-99031505D01*
X126911505Y-99198597D01*
X126775965Y-99392169D01*
X126775964Y-99392171D01*
X126676098Y-99606335D01*
X126676094Y-99606344D01*
X126614938Y-99834586D01*
X126614936Y-99834596D01*
X126594341Y-100069999D01*
X126594341Y-100070000D01*
X119050000Y-100070000D01*
X119050000Y-97610000D01*
X154644341Y-97610000D01*
X154664936Y-97845403D01*
X154664938Y-97845413D01*
X154726094Y-98073655D01*
X154726096Y-98073659D01*
X154726097Y-98073663D01*
X154825965Y-98287829D01*
X154825965Y-98287830D01*
X154825967Y-98287834D01*
X154934281Y-98442521D01*
X154961505Y-98481401D01*
X155128599Y-98648495D01*
X155222637Y-98714341D01*
X155322165Y-98784032D01*
X155322167Y-98784033D01*
X155322170Y-98784035D01*
X155536337Y-98883903D01*
X155536343Y-98883904D01*
X155536344Y-98883905D01*
X155581361Y-98895967D01*
X155764592Y-98945063D01*
X155952918Y-98961539D01*
X155999999Y-98965659D01*
X156000000Y-98965659D01*
X156000001Y-98965659D01*
X156039234Y-98962226D01*
X156235408Y-98945063D01*
X156463663Y-98883903D01*
X156677830Y-98784035D01*
X156871401Y-98648495D01*
X157038495Y-98481401D01*
X157174035Y-98287830D01*
X157273903Y-98073663D01*
X157335063Y-97845408D01*
X157355659Y-97610000D01*
X157335063Y-97374592D01*
X157273903Y-97146337D01*
X157174035Y-96932171D01*
X157038495Y-96738599D01*
X157038494Y-96738597D01*
X156871402Y-96571506D01*
X156871395Y-96571501D01*
X156677834Y-96435967D01*
X156677830Y-96435965D01*
X156669636Y-96432144D01*
X156463663Y-96336097D01*
X156463659Y-96336096D01*
X156463655Y-96336094D01*
X156235413Y-96274938D01*
X156235403Y-96274936D01*
X156000001Y-96254341D01*
X155999999Y-96254341D01*
X155764596Y-96274936D01*
X155764586Y-96274938D01*
X155536344Y-96336094D01*
X155536335Y-96336098D01*
X155322171Y-96435964D01*
X155322169Y-96435965D01*
X155128597Y-96571505D01*
X154961505Y-96738597D01*
X154825965Y-96932169D01*
X154825964Y-96932171D01*
X154726098Y-97146335D01*
X154726094Y-97146344D01*
X154664938Y-97374586D01*
X154664936Y-97374596D01*
X154644341Y-97609999D01*
X154644341Y-97610000D01*
X119050000Y-97610000D01*
X119050000Y-96001555D01*
X119069684Y-95934520D01*
X119122488Y-95888765D01*
X119191646Y-95878821D01*
X119255202Y-95907846D01*
X119275574Y-95930435D01*
X119312742Y-95983515D01*
X119391505Y-96096001D01*
X119558599Y-96263095D01*
X119655384Y-96330864D01*
X119752165Y-96398632D01*
X119752167Y-96398633D01*
X119752170Y-96398635D01*
X119966337Y-96498503D01*
X120194592Y-96559663D01*
X120371034Y-96575100D01*
X120429999Y-96580259D01*
X120430000Y-96580259D01*
X120430001Y-96580259D01*
X120488966Y-96575100D01*
X120665408Y-96559663D01*
X120893663Y-96498503D01*
X121107830Y-96398635D01*
X121301401Y-96263095D01*
X121423329Y-96141166D01*
X121484648Y-96107684D01*
X121554340Y-96112668D01*
X121610274Y-96154539D01*
X121627189Y-96185517D01*
X121676202Y-96316928D01*
X121676206Y-96316935D01*
X121762452Y-96432144D01*
X121762455Y-96432147D01*
X121877664Y-96518393D01*
X121877671Y-96518397D01*
X122012517Y-96568691D01*
X122012516Y-96568691D01*
X122019444Y-96569435D01*
X122072127Y-96575100D01*
X123867872Y-96575099D01*
X123927483Y-96568691D01*
X124062331Y-96518396D01*
X124177546Y-96432146D01*
X124263796Y-96316931D01*
X124312810Y-96185516D01*
X124354681Y-96129584D01*
X124420145Y-96105166D01*
X124488418Y-96120017D01*
X124516672Y-96141169D01*
X124638599Y-96263095D01*
X124735384Y-96330865D01*
X124832165Y-96398632D01*
X124832167Y-96398633D01*
X124832170Y-96398635D01*
X125046337Y-96498503D01*
X125274592Y-96559663D01*
X125451034Y-96575100D01*
X125509999Y-96580259D01*
X125510000Y-96580259D01*
X125510001Y-96580259D01*
X125568966Y-96575100D01*
X125745408Y-96559663D01*
X125973663Y-96498503D01*
X126187830Y-96398635D01*
X126381401Y-96263095D01*
X126548495Y-96096001D01*
X126678424Y-95910442D01*
X126733002Y-95866817D01*
X126802500Y-95859623D01*
X126864855Y-95891146D01*
X126881575Y-95910442D01*
X127011500Y-96095995D01*
X127011505Y-96096001D01*
X127178599Y-96263095D01*
X127275384Y-96330865D01*
X127372165Y-96398632D01*
X127372167Y-96398633D01*
X127372170Y-96398635D01*
X127586337Y-96498503D01*
X127814592Y-96559663D01*
X127991034Y-96575100D01*
X128049999Y-96580259D01*
X128050000Y-96580259D01*
X128050001Y-96580259D01*
X128108966Y-96575100D01*
X128285408Y-96559663D01*
X128513663Y-96498503D01*
X128727830Y-96398635D01*
X128921401Y-96263095D01*
X129062026Y-96122470D01*
X131779500Y-96122470D01*
X131779501Y-96122476D01*
X131785908Y-96182083D01*
X131836202Y-96316928D01*
X131836206Y-96316935D01*
X131922452Y-96432144D01*
X131922455Y-96432147D01*
X132037664Y-96518393D01*
X132037671Y-96518397D01*
X132172517Y-96568691D01*
X132172516Y-96568691D01*
X132179444Y-96569435D01*
X132232127Y-96575100D01*
X134027872Y-96575099D01*
X134087483Y-96568691D01*
X134222331Y-96518396D01*
X134337546Y-96432146D01*
X134423796Y-96316931D01*
X134474091Y-96182083D01*
X134480500Y-96122473D01*
X134480499Y-95224600D01*
X135524341Y-95224600D01*
X135544936Y-95460003D01*
X135544938Y-95460013D01*
X135606094Y-95688255D01*
X135606096Y-95688259D01*
X135606097Y-95688263D01*
X135610000Y-95696632D01*
X135705965Y-95902430D01*
X135705967Y-95902434D01*
X135775373Y-96001555D01*
X135841505Y-96096001D01*
X136008599Y-96263095D01*
X136105384Y-96330865D01*
X136202165Y-96398632D01*
X136202167Y-96398633D01*
X136202170Y-96398635D01*
X136416337Y-96498503D01*
X136644592Y-96559663D01*
X136821034Y-96575100D01*
X136879999Y-96580259D01*
X136880000Y-96580259D01*
X136880001Y-96580259D01*
X136938966Y-96575100D01*
X137115408Y-96559663D01*
X137343663Y-96498503D01*
X137557830Y-96398635D01*
X137751401Y-96263095D01*
X137873329Y-96141166D01*
X137934648Y-96107684D01*
X138004340Y-96112668D01*
X138060274Y-96154539D01*
X138077189Y-96185517D01*
X138126202Y-96316928D01*
X138126206Y-96316935D01*
X138212452Y-96432144D01*
X138212455Y-96432147D01*
X138327664Y-96518393D01*
X138327671Y-96518397D01*
X138462517Y-96568691D01*
X138462516Y-96568691D01*
X138469444Y-96569435D01*
X138522127Y-96575100D01*
X140317872Y-96575099D01*
X140377483Y-96568691D01*
X140512331Y-96518396D01*
X140627546Y-96432146D01*
X140713796Y-96316931D01*
X140762810Y-96185516D01*
X140804681Y-96129584D01*
X140870145Y-96105166D01*
X140938418Y-96120017D01*
X140966673Y-96141168D01*
X141088599Y-96263095D01*
X141185384Y-96330865D01*
X141282165Y-96398632D01*
X141282167Y-96398633D01*
X141282170Y-96398635D01*
X141496337Y-96498503D01*
X141724592Y-96559663D01*
X141901034Y-96575100D01*
X141959999Y-96580259D01*
X141960000Y-96580259D01*
X141960001Y-96580259D01*
X142018966Y-96575100D01*
X142195408Y-96559663D01*
X142423663Y-96498503D01*
X142637830Y-96398635D01*
X142831401Y-96263095D01*
X142998495Y-96096001D01*
X143128424Y-95910442D01*
X143183002Y-95866817D01*
X143252500Y-95859623D01*
X143314855Y-95891146D01*
X143331575Y-95910442D01*
X143461500Y-96095995D01*
X143461505Y-96096001D01*
X143628599Y-96263095D01*
X143725384Y-96330865D01*
X143822165Y-96398632D01*
X143822167Y-96398633D01*
X143822170Y-96398635D01*
X144036337Y-96498503D01*
X144264592Y-96559663D01*
X144441034Y-96575100D01*
X144499999Y-96580259D01*
X144500000Y-96580259D01*
X144500001Y-96580259D01*
X144558966Y-96575100D01*
X144735408Y-96559663D01*
X144963663Y-96498503D01*
X145177830Y-96398635D01*
X145371401Y-96263095D01*
X145512026Y-96122470D01*
X148229500Y-96122470D01*
X148229501Y-96122476D01*
X148235908Y-96182083D01*
X148286202Y-96316928D01*
X148286206Y-96316935D01*
X148372452Y-96432144D01*
X148372455Y-96432147D01*
X148487664Y-96518393D01*
X148487671Y-96518397D01*
X148622517Y-96568691D01*
X148622516Y-96568691D01*
X148629444Y-96569435D01*
X148682127Y-96575100D01*
X150477872Y-96575099D01*
X150537483Y-96568691D01*
X150672331Y-96518396D01*
X150787546Y-96432146D01*
X150873796Y-96316931D01*
X150924091Y-96182083D01*
X150930500Y-96122473D01*
X150930499Y-94326728D01*
X150924091Y-94267117D01*
X150922810Y-94263683D01*
X150873797Y-94132271D01*
X150873793Y-94132264D01*
X150787547Y-94017055D01*
X150787544Y-94017052D01*
X150672335Y-93930806D01*
X150672328Y-93930802D01*
X150537482Y-93880508D01*
X150537483Y-93880508D01*
X150477883Y-93874101D01*
X150477881Y-93874100D01*
X150477873Y-93874100D01*
X150477864Y-93874100D01*
X148682129Y-93874100D01*
X148682123Y-93874101D01*
X148622516Y-93880508D01*
X148487671Y-93930802D01*
X148487664Y-93930806D01*
X148372455Y-94017052D01*
X148372452Y-94017055D01*
X148286206Y-94132264D01*
X148286202Y-94132271D01*
X148235908Y-94267117D01*
X148229501Y-94326716D01*
X148229501Y-94326723D01*
X148229500Y-94326735D01*
X148229500Y-96122470D01*
X145512026Y-96122470D01*
X145538495Y-96096001D01*
X145674035Y-95902430D01*
X145773903Y-95688263D01*
X145835063Y-95460008D01*
X145855659Y-95224600D01*
X145835063Y-94989192D01*
X145773903Y-94760937D01*
X145674035Y-94546771D01*
X145668425Y-94538758D01*
X145538494Y-94353197D01*
X145371402Y-94186106D01*
X145371395Y-94186101D01*
X145177834Y-94050567D01*
X145177830Y-94050565D01*
X145177829Y-94050564D01*
X144963663Y-93950697D01*
X144963659Y-93950696D01*
X144963655Y-93950694D01*
X144735413Y-93889538D01*
X144735403Y-93889536D01*
X144500001Y-93868941D01*
X144499999Y-93868941D01*
X144264596Y-93889536D01*
X144264586Y-93889538D01*
X144036344Y-93950694D01*
X144036335Y-93950698D01*
X143822171Y-94050564D01*
X143822169Y-94050565D01*
X143628597Y-94186105D01*
X143461505Y-94353197D01*
X143331575Y-94538758D01*
X143276998Y-94582383D01*
X143207500Y-94589577D01*
X143145145Y-94558054D01*
X143128425Y-94538758D01*
X142998494Y-94353197D01*
X142831402Y-94186106D01*
X142831395Y-94186101D01*
X142637834Y-94050567D01*
X142637830Y-94050565D01*
X142637828Y-94050564D01*
X142423663Y-93950697D01*
X142423659Y-93950696D01*
X142423655Y-93950694D01*
X142195413Y-93889538D01*
X142195403Y-93889536D01*
X141960001Y-93868941D01*
X141959999Y-93868941D01*
X141724596Y-93889536D01*
X141724586Y-93889538D01*
X141496344Y-93950694D01*
X141496335Y-93950698D01*
X141282171Y-94050564D01*
X141282169Y-94050565D01*
X141088600Y-94186103D01*
X140966673Y-94308030D01*
X140905350Y-94341514D01*
X140835658Y-94336530D01*
X140779725Y-94294658D01*
X140762810Y-94263681D01*
X140713797Y-94132271D01*
X140713793Y-94132264D01*
X140627547Y-94017055D01*
X140627544Y-94017052D01*
X140512335Y-93930806D01*
X140512328Y-93930802D01*
X140377482Y-93880508D01*
X140377483Y-93880508D01*
X140317883Y-93874101D01*
X140317881Y-93874100D01*
X140317873Y-93874100D01*
X140317864Y-93874100D01*
X138522129Y-93874100D01*
X138522123Y-93874101D01*
X138462516Y-93880508D01*
X138327671Y-93930802D01*
X138327664Y-93930806D01*
X138212455Y-94017052D01*
X138212452Y-94017055D01*
X138126206Y-94132264D01*
X138126203Y-94132269D01*
X138077189Y-94263683D01*
X138035317Y-94319616D01*
X137969853Y-94344033D01*
X137901580Y-94329181D01*
X137873326Y-94308030D01*
X137751402Y-94186106D01*
X137751395Y-94186101D01*
X137557834Y-94050567D01*
X137557830Y-94050565D01*
X137557828Y-94050564D01*
X137343663Y-93950697D01*
X137343659Y-93950696D01*
X137343655Y-93950694D01*
X137115413Y-93889538D01*
X137115403Y-93889536D01*
X136880001Y-93868941D01*
X136879999Y-93868941D01*
X136644596Y-93889536D01*
X136644586Y-93889538D01*
X136416344Y-93950694D01*
X136416335Y-93950698D01*
X136202171Y-94050564D01*
X136202169Y-94050565D01*
X136008597Y-94186105D01*
X135841505Y-94353197D01*
X135705965Y-94546769D01*
X135705964Y-94546771D01*
X135606098Y-94760935D01*
X135606094Y-94760944D01*
X135544938Y-94989186D01*
X135544936Y-94989196D01*
X135524341Y-95224599D01*
X135524341Y-95224600D01*
X134480499Y-95224600D01*
X134480499Y-94326728D01*
X134474091Y-94267117D01*
X134472810Y-94263683D01*
X134423797Y-94132271D01*
X134423793Y-94132264D01*
X134337547Y-94017055D01*
X134337544Y-94017052D01*
X134222335Y-93930806D01*
X134222328Y-93930802D01*
X134087482Y-93880508D01*
X134087483Y-93880508D01*
X134027883Y-93874101D01*
X134027881Y-93874100D01*
X134027873Y-93874100D01*
X134027864Y-93874100D01*
X132232129Y-93874100D01*
X132232123Y-93874101D01*
X132172516Y-93880508D01*
X132037671Y-93930802D01*
X132037664Y-93930806D01*
X131922455Y-94017052D01*
X131922452Y-94017055D01*
X131836206Y-94132264D01*
X131836202Y-94132271D01*
X131785908Y-94267117D01*
X131779501Y-94326716D01*
X131779501Y-94326723D01*
X131779500Y-94326735D01*
X131779500Y-96122470D01*
X129062026Y-96122470D01*
X129088495Y-96096001D01*
X129224035Y-95902430D01*
X129323903Y-95688263D01*
X129385063Y-95460008D01*
X129405659Y-95224600D01*
X129385063Y-94989192D01*
X129323903Y-94760937D01*
X129224035Y-94546771D01*
X129218425Y-94538758D01*
X129088494Y-94353197D01*
X128921402Y-94186106D01*
X128921395Y-94186101D01*
X128727834Y-94050567D01*
X128727830Y-94050565D01*
X128727828Y-94050564D01*
X128513663Y-93950697D01*
X128513659Y-93950696D01*
X128513655Y-93950694D01*
X128285413Y-93889538D01*
X128285403Y-93889536D01*
X128050001Y-93868941D01*
X128049999Y-93868941D01*
X127814596Y-93889536D01*
X127814586Y-93889538D01*
X127586344Y-93950694D01*
X127586335Y-93950698D01*
X127372171Y-94050564D01*
X127372169Y-94050565D01*
X127178597Y-94186105D01*
X127011508Y-94353194D01*
X126881574Y-94538760D01*
X126826997Y-94582384D01*
X126757498Y-94589577D01*
X126695144Y-94558055D01*
X126678429Y-94538764D01*
X126548495Y-94353199D01*
X126548493Y-94353196D01*
X126381402Y-94186106D01*
X126381395Y-94186101D01*
X126187834Y-94050567D01*
X126187830Y-94050565D01*
X126187828Y-94050564D01*
X125973663Y-93950697D01*
X125973659Y-93950696D01*
X125973655Y-93950694D01*
X125745413Y-93889538D01*
X125745403Y-93889536D01*
X125510001Y-93868941D01*
X125509999Y-93868941D01*
X125274596Y-93889536D01*
X125274586Y-93889538D01*
X125046344Y-93950694D01*
X125046335Y-93950698D01*
X124832171Y-94050564D01*
X124832169Y-94050565D01*
X124638600Y-94186103D01*
X124516673Y-94308030D01*
X124455350Y-94341514D01*
X124385658Y-94336530D01*
X124329725Y-94294658D01*
X124312810Y-94263681D01*
X124263797Y-94132271D01*
X124263793Y-94132264D01*
X124177547Y-94017055D01*
X124177544Y-94017052D01*
X124062335Y-93930806D01*
X124062328Y-93930802D01*
X123927482Y-93880508D01*
X123927483Y-93880508D01*
X123867883Y-93874101D01*
X123867881Y-93874100D01*
X123867873Y-93874100D01*
X123867864Y-93874100D01*
X122072129Y-93874100D01*
X122072123Y-93874101D01*
X122012516Y-93880508D01*
X121877671Y-93930802D01*
X121877664Y-93930806D01*
X121762455Y-94017052D01*
X121762452Y-94017055D01*
X121676206Y-94132264D01*
X121676203Y-94132269D01*
X121627189Y-94263683D01*
X121585317Y-94319616D01*
X121519853Y-94344033D01*
X121451580Y-94329181D01*
X121423326Y-94308030D01*
X121301402Y-94186106D01*
X121301395Y-94186101D01*
X121107834Y-94050567D01*
X121107830Y-94050565D01*
X121107828Y-94050564D01*
X120893663Y-93950697D01*
X120893659Y-93950696D01*
X120893655Y-93950694D01*
X120665413Y-93889538D01*
X120665403Y-93889536D01*
X120430001Y-93868941D01*
X120429999Y-93868941D01*
X120194596Y-93889536D01*
X120194586Y-93889538D01*
X119966344Y-93950694D01*
X119966335Y-93950698D01*
X119752171Y-94050564D01*
X119752169Y-94050565D01*
X119558597Y-94186105D01*
X119391508Y-94353194D01*
X119275574Y-94518765D01*
X119220997Y-94562390D01*
X119151498Y-94569582D01*
X119089144Y-94538060D01*
X119053730Y-94477830D01*
X119050000Y-94447649D01*
X119050000Y-90924157D01*
X119069685Y-90857118D01*
X119122489Y-90811363D01*
X119174154Y-90800157D01*
X154533760Y-90845087D01*
G37*
G04 #@! TD.AperFunction*
M02*
