G04 #@! TF.GenerationSoftware,KiCad,Pcbnew,7.0.5*
G04 #@! TF.CreationDate,2023-08-11T11:43:47-04:00*
G04 #@! TF.ProjectId,Tadpole,54616470-6f6c-4652-9e6b-696361645f70,rev?*
G04 #@! TF.SameCoordinates,Original*
G04 #@! TF.FileFunction,Copper,L3,Inr*
G04 #@! TF.FilePolarity,Positive*
%FSLAX46Y46*%
G04 Gerber Fmt 4.6, Leading zero omitted, Abs format (unit mm)*
G04 Created by KiCad (PCBNEW 7.0.5) date 2023-08-11 11:43:47*
%MOMM*%
%LPD*%
G01*
G04 APERTURE LIST*
G04 #@! TA.AperFunction,ComponentPad*
%ADD10O,1.700000X1.700000*%
G04 #@! TD*
G04 #@! TA.AperFunction,ComponentPad*
%ADD11R,1.700000X1.700000*%
G04 #@! TD*
G04 #@! TA.AperFunction,ComponentPad*
%ADD12R,3.800000X3.800000*%
G04 #@! TD*
G04 #@! TA.AperFunction,ComponentPad*
%ADD13C,3.800000*%
G04 #@! TD*
G04 #@! TA.AperFunction,ComponentPad*
%ADD14C,1.700000*%
G04 #@! TD*
G04 APERTURE END LIST*
D10*
X156000000Y-97610000D03*
X156000000Y-95070000D03*
D11*
X156000000Y-92530000D03*
X156000000Y-89990000D03*
D10*
X156000000Y-87450000D03*
X120100000Y-119400000D03*
X122640000Y-119400000D03*
X125180000Y-119400000D03*
X127720000Y-119400000D03*
X130260000Y-119400000D03*
D11*
X132800000Y-119400000D03*
D10*
X137000000Y-119400000D03*
X139540000Y-119400000D03*
X142080000Y-119400000D03*
X144620000Y-119400000D03*
X147160000Y-119400000D03*
D11*
X149700000Y-119400000D03*
D10*
X132800000Y-78300000D03*
X130260000Y-78300000D03*
X127720000Y-78300000D03*
X125180000Y-78300000D03*
X122640000Y-78300000D03*
D11*
X120100000Y-78300000D03*
D10*
X149900000Y-78300000D03*
X147360000Y-78300000D03*
X144820000Y-78300000D03*
X142280000Y-78300000D03*
X139740000Y-78300000D03*
D11*
X137200000Y-78300000D03*
D12*
X154600000Y-110000000D03*
D13*
X154600000Y-105000000D03*
D10*
X148295000Y-110300000D03*
X145755000Y-110300000D03*
X143215000Y-110300000D03*
X140675000Y-110300000D03*
X138135000Y-110300000D03*
X135595000Y-110300000D03*
X133055000Y-110300000D03*
X130515000Y-110300000D03*
X127975000Y-110300000D03*
D14*
X117815200Y-104521000D03*
X120355200Y-104521000D03*
X122895200Y-104521000D03*
X125435200Y-104521000D03*
X120355200Y-89281000D03*
X127975200Y-104521000D03*
X130515200Y-104521000D03*
X133055200Y-104521000D03*
X135595200Y-104521000D03*
X138135200Y-104521000D03*
X140675200Y-104521000D03*
X143215200Y-104521000D03*
X145755200Y-104521000D03*
X148295200Y-104521000D03*
X148295200Y-89281000D03*
X145755200Y-89281000D03*
X143215200Y-89281000D03*
X140675200Y-89281000D03*
X138135200Y-89281000D03*
X135595200Y-89281000D03*
X133055200Y-89281000D03*
X130515200Y-89281000D03*
X127975200Y-89281000D03*
X125435200Y-89281000D03*
X122895200Y-89281000D03*
X117815200Y-89281000D03*
X115275200Y-104521000D03*
X115275200Y-89281000D03*
X144500000Y-100100000D03*
X147040000Y-100100000D03*
X149580000Y-100100000D03*
X136880000Y-112800000D03*
D11*
X139420000Y-112800000D03*
D14*
X141960000Y-112800000D03*
X144500000Y-112800000D03*
X147040000Y-112800000D03*
D11*
X149580000Y-112800000D03*
D14*
X127950000Y-100070000D03*
X130490000Y-100070000D03*
X133030000Y-100070000D03*
X120330000Y-112770000D03*
D11*
X122870000Y-112770000D03*
D14*
X125410000Y-112770000D03*
X127950000Y-112770000D03*
X130490000Y-112770000D03*
D11*
X133030000Y-112770000D03*
D14*
X144500000Y-82524600D03*
X147040000Y-82524600D03*
X149580000Y-82524600D03*
X136880000Y-95224600D03*
D11*
X139420000Y-95224600D03*
D14*
X141960000Y-95224600D03*
X144500000Y-95224600D03*
X147040000Y-95224600D03*
D11*
X149580000Y-95224600D03*
X133130000Y-95224600D03*
D14*
X130590000Y-95224600D03*
X128050000Y-95224600D03*
X125510000Y-95224600D03*
D11*
X122970000Y-95224600D03*
D14*
X120430000Y-95224600D03*
X133130000Y-82524600D03*
X130590000Y-82524600D03*
X128050000Y-82524600D03*
D13*
X114000000Y-120000000D03*
X156000000Y-78000000D03*
X156000000Y-120000000D03*
X114000000Y-78000000D03*
G04 #@! TA.AperFunction,Conductor*
G36*
X156001735Y-75200598D02*
G01*
X156148378Y-75208832D01*
X156309976Y-75217908D01*
X156316867Y-75218684D01*
X156575799Y-75262678D01*
X156619509Y-75270105D01*
X156626293Y-75271653D01*
X156921270Y-75356635D01*
X156927834Y-75358932D01*
X157211449Y-75476408D01*
X157217697Y-75479418D01*
X157409275Y-75585299D01*
X157486373Y-75627910D01*
X157492265Y-75631612D01*
X157742623Y-75809250D01*
X157748050Y-75813578D01*
X157898828Y-75948322D01*
X157976946Y-76018133D01*
X157981866Y-76023053D01*
X158063691Y-76114614D01*
X158186420Y-76251947D01*
X158190749Y-76257376D01*
X158368387Y-76507734D01*
X158372089Y-76513626D01*
X158520577Y-76782293D01*
X158523596Y-76788562D01*
X158641066Y-77072162D01*
X158643364Y-77078729D01*
X158728346Y-77373706D01*
X158729894Y-77380490D01*
X158781313Y-77683118D01*
X158782092Y-77690032D01*
X158799402Y-77998263D01*
X158799500Y-78001740D01*
X158799500Y-119998258D01*
X158799402Y-120001735D01*
X158782092Y-120309967D01*
X158781313Y-120316881D01*
X158729894Y-120619509D01*
X158728346Y-120626293D01*
X158643364Y-120921270D01*
X158641066Y-120927837D01*
X158523596Y-121211437D01*
X158520577Y-121217706D01*
X158372089Y-121486373D01*
X158368387Y-121492265D01*
X158190749Y-121742623D01*
X158186411Y-121748063D01*
X157981866Y-121976946D01*
X157976946Y-121981866D01*
X157748063Y-122186411D01*
X157742623Y-122190749D01*
X157492265Y-122368387D01*
X157486373Y-122372089D01*
X157217706Y-122520577D01*
X157211437Y-122523596D01*
X156927837Y-122641066D01*
X156921270Y-122643364D01*
X156626293Y-122728346D01*
X156619509Y-122729894D01*
X156316881Y-122781313D01*
X156309967Y-122782092D01*
X156001735Y-122799402D01*
X155998258Y-122799500D01*
X114001742Y-122799500D01*
X113998265Y-122799402D01*
X113690032Y-122782092D01*
X113683118Y-122781313D01*
X113380490Y-122729894D01*
X113373706Y-122728346D01*
X113078729Y-122643364D01*
X113072162Y-122641066D01*
X112892557Y-122566672D01*
X112788558Y-122523594D01*
X112782293Y-122520577D01*
X112513626Y-122372089D01*
X112507734Y-122368387D01*
X112257376Y-122190749D01*
X112251947Y-122186420D01*
X112062260Y-122016904D01*
X112023053Y-121981866D01*
X112018133Y-121976946D01*
X111907610Y-121853272D01*
X111813578Y-121748050D01*
X111809250Y-121742623D01*
X111631612Y-121492265D01*
X111627910Y-121486373D01*
X111585299Y-121409275D01*
X111479418Y-121217697D01*
X111476408Y-121211449D01*
X111358932Y-120927834D01*
X111356635Y-120921270D01*
X111271653Y-120626293D01*
X111270105Y-120619509D01*
X111239350Y-120438498D01*
X111218684Y-120316867D01*
X111217908Y-120309976D01*
X111204871Y-120077830D01*
X111200598Y-120001735D01*
X111200549Y-120000005D01*
X111594754Y-120000005D01*
X111613718Y-120301446D01*
X111613719Y-120301453D01*
X111613720Y-120301457D01*
X111665716Y-120574032D01*
X111670320Y-120598164D01*
X111763659Y-120885431D01*
X111763661Y-120885436D01*
X111892265Y-121158732D01*
X111892268Y-121158738D01*
X112054111Y-121413763D01*
X112054114Y-121413767D01*
X112054115Y-121413768D01*
X112119053Y-121492265D01*
X112246652Y-121646505D01*
X112466836Y-121853272D01*
X112466846Y-121853280D01*
X112711193Y-122030808D01*
X112711198Y-122030810D01*
X112711205Y-122030816D01*
X112975896Y-122176332D01*
X112975901Y-122176334D01*
X112975903Y-122176335D01*
X112975904Y-122176336D01*
X113256734Y-122287524D01*
X113256737Y-122287525D01*
X113354259Y-122312563D01*
X113549302Y-122362642D01*
X113696039Y-122381179D01*
X113848963Y-122400499D01*
X113848969Y-122400499D01*
X113848973Y-122400500D01*
X113848975Y-122400500D01*
X114151025Y-122400500D01*
X114151027Y-122400500D01*
X114151032Y-122400499D01*
X114151036Y-122400499D01*
X114230591Y-122390448D01*
X114450698Y-122362642D01*
X114743262Y-122287525D01*
X114743265Y-122287524D01*
X115024095Y-122176336D01*
X115024096Y-122176335D01*
X115024094Y-122176335D01*
X115024104Y-122176332D01*
X115288795Y-122030816D01*
X115533162Y-121853274D01*
X115753349Y-121646504D01*
X115945885Y-121413768D01*
X116107733Y-121158736D01*
X116236341Y-120885430D01*
X116329681Y-120598160D01*
X116386280Y-120301457D01*
X116388171Y-120271400D01*
X116405246Y-120000005D01*
X116405246Y-119999994D01*
X116386281Y-119698553D01*
X116386280Y-119698546D01*
X116386280Y-119698543D01*
X116329681Y-119401840D01*
X116329083Y-119400000D01*
X118744341Y-119400000D01*
X118764936Y-119635403D01*
X118764938Y-119635413D01*
X118826094Y-119863655D01*
X118826096Y-119863659D01*
X118826097Y-119863663D01*
X118889672Y-120000000D01*
X118925965Y-120077830D01*
X118925967Y-120077834D01*
X118988914Y-120167731D01*
X119061505Y-120271401D01*
X119228599Y-120438495D01*
X119318374Y-120501356D01*
X119422165Y-120574032D01*
X119422167Y-120574033D01*
X119422170Y-120574035D01*
X119636337Y-120673903D01*
X119864592Y-120735063D01*
X120052918Y-120751539D01*
X120099999Y-120755659D01*
X120100000Y-120755659D01*
X120100001Y-120755659D01*
X120139234Y-120752226D01*
X120335408Y-120735063D01*
X120563663Y-120673903D01*
X120777830Y-120574035D01*
X120971401Y-120438495D01*
X121138495Y-120271401D01*
X121268426Y-120085841D01*
X121323002Y-120042217D01*
X121392500Y-120035023D01*
X121454855Y-120066546D01*
X121471575Y-120085842D01*
X121601500Y-120271395D01*
X121601505Y-120271401D01*
X121768599Y-120438495D01*
X121858374Y-120501356D01*
X121962165Y-120574032D01*
X121962167Y-120574033D01*
X121962170Y-120574035D01*
X122176337Y-120673903D01*
X122404592Y-120735063D01*
X122592918Y-120751539D01*
X122639999Y-120755659D01*
X122640000Y-120755659D01*
X122640001Y-120755659D01*
X122679234Y-120752226D01*
X122875408Y-120735063D01*
X123103663Y-120673903D01*
X123317830Y-120574035D01*
X123511401Y-120438495D01*
X123678495Y-120271401D01*
X123808426Y-120085840D01*
X123863001Y-120042217D01*
X123932499Y-120035023D01*
X123994854Y-120066546D01*
X124011574Y-120085841D01*
X124141505Y-120271401D01*
X124308599Y-120438495D01*
X124398374Y-120501356D01*
X124502165Y-120574032D01*
X124502167Y-120574033D01*
X124502170Y-120574035D01*
X124716337Y-120673903D01*
X124944592Y-120735063D01*
X125132918Y-120751539D01*
X125179999Y-120755659D01*
X125180000Y-120755659D01*
X125180001Y-120755659D01*
X125219234Y-120752226D01*
X125415408Y-120735063D01*
X125643663Y-120673903D01*
X125857830Y-120574035D01*
X126051401Y-120438495D01*
X126218495Y-120271401D01*
X126348426Y-120085841D01*
X126403002Y-120042217D01*
X126472500Y-120035023D01*
X126534855Y-120066546D01*
X126551575Y-120085842D01*
X126681500Y-120271395D01*
X126681505Y-120271401D01*
X126848599Y-120438495D01*
X126938374Y-120501356D01*
X127042165Y-120574032D01*
X127042167Y-120574033D01*
X127042170Y-120574035D01*
X127256337Y-120673903D01*
X127484592Y-120735063D01*
X127672918Y-120751539D01*
X127719999Y-120755659D01*
X127720000Y-120755659D01*
X127720001Y-120755659D01*
X127759234Y-120752226D01*
X127955408Y-120735063D01*
X128183663Y-120673903D01*
X128397830Y-120574035D01*
X128591401Y-120438495D01*
X128758495Y-120271401D01*
X128888426Y-120085840D01*
X128943001Y-120042217D01*
X129012499Y-120035023D01*
X129074854Y-120066546D01*
X129091574Y-120085841D01*
X129221505Y-120271401D01*
X129388599Y-120438495D01*
X129478374Y-120501356D01*
X129582165Y-120574032D01*
X129582167Y-120574033D01*
X129582170Y-120574035D01*
X129796337Y-120673903D01*
X130024592Y-120735063D01*
X130212918Y-120751539D01*
X130259999Y-120755659D01*
X130260000Y-120755659D01*
X130260001Y-120755659D01*
X130299234Y-120752226D01*
X130495408Y-120735063D01*
X130723663Y-120673903D01*
X130937830Y-120574035D01*
X131131401Y-120438495D01*
X131298495Y-120271401D01*
X131434035Y-120077830D01*
X131533903Y-119863663D01*
X131595063Y-119635408D01*
X131615659Y-119400000D01*
X135644341Y-119400000D01*
X135664936Y-119635403D01*
X135664938Y-119635413D01*
X135726094Y-119863655D01*
X135726096Y-119863659D01*
X135726097Y-119863663D01*
X135789672Y-120000000D01*
X135825965Y-120077830D01*
X135825967Y-120077834D01*
X135888914Y-120167731D01*
X135961505Y-120271401D01*
X136128599Y-120438495D01*
X136218374Y-120501356D01*
X136322165Y-120574032D01*
X136322167Y-120574033D01*
X136322170Y-120574035D01*
X136536337Y-120673903D01*
X136764592Y-120735063D01*
X136952918Y-120751539D01*
X136999999Y-120755659D01*
X137000000Y-120755659D01*
X137000001Y-120755659D01*
X137039234Y-120752226D01*
X137235408Y-120735063D01*
X137463663Y-120673903D01*
X137677830Y-120574035D01*
X137871401Y-120438495D01*
X138038495Y-120271401D01*
X138168426Y-120085841D01*
X138223002Y-120042217D01*
X138292500Y-120035023D01*
X138354855Y-120066546D01*
X138371575Y-120085842D01*
X138501500Y-120271395D01*
X138501505Y-120271401D01*
X138668599Y-120438495D01*
X138758374Y-120501356D01*
X138862165Y-120574032D01*
X138862167Y-120574033D01*
X138862170Y-120574035D01*
X139076337Y-120673903D01*
X139304592Y-120735063D01*
X139492918Y-120751539D01*
X139539999Y-120755659D01*
X139540000Y-120755659D01*
X139540001Y-120755659D01*
X139579234Y-120752226D01*
X139775408Y-120735063D01*
X140003663Y-120673903D01*
X140217830Y-120574035D01*
X140411401Y-120438495D01*
X140578495Y-120271401D01*
X140708426Y-120085841D01*
X140763002Y-120042217D01*
X140832500Y-120035023D01*
X140894855Y-120066546D01*
X140911575Y-120085842D01*
X141041500Y-120271395D01*
X141041505Y-120271401D01*
X141208599Y-120438495D01*
X141298374Y-120501356D01*
X141402165Y-120574032D01*
X141402167Y-120574033D01*
X141402170Y-120574035D01*
X141616337Y-120673903D01*
X141844592Y-120735063D01*
X142032918Y-120751539D01*
X142079999Y-120755659D01*
X142080000Y-120755659D01*
X142080001Y-120755659D01*
X142119234Y-120752226D01*
X142315408Y-120735063D01*
X142543663Y-120673903D01*
X142757830Y-120574035D01*
X142951401Y-120438495D01*
X143118495Y-120271401D01*
X143248426Y-120085841D01*
X143303002Y-120042217D01*
X143372500Y-120035023D01*
X143434855Y-120066546D01*
X143451575Y-120085842D01*
X143581500Y-120271395D01*
X143581505Y-120271401D01*
X143748599Y-120438495D01*
X143838374Y-120501356D01*
X143942165Y-120574032D01*
X143942167Y-120574033D01*
X143942170Y-120574035D01*
X144156337Y-120673903D01*
X144384592Y-120735063D01*
X144572918Y-120751539D01*
X144619999Y-120755659D01*
X144620000Y-120755659D01*
X144620001Y-120755659D01*
X144659234Y-120752226D01*
X144855408Y-120735063D01*
X145083663Y-120673903D01*
X145297830Y-120574035D01*
X145491401Y-120438495D01*
X145658495Y-120271401D01*
X145788426Y-120085841D01*
X145843002Y-120042217D01*
X145912500Y-120035023D01*
X145974855Y-120066546D01*
X145991575Y-120085842D01*
X146121500Y-120271395D01*
X146121505Y-120271401D01*
X146288599Y-120438495D01*
X146378374Y-120501356D01*
X146482165Y-120574032D01*
X146482167Y-120574033D01*
X146482170Y-120574035D01*
X146696337Y-120673903D01*
X146924592Y-120735063D01*
X147112918Y-120751539D01*
X147159999Y-120755659D01*
X147160000Y-120755659D01*
X147160001Y-120755659D01*
X147199234Y-120752226D01*
X147395408Y-120735063D01*
X147623663Y-120673903D01*
X147837830Y-120574035D01*
X148031401Y-120438495D01*
X148198495Y-120271401D01*
X148334035Y-120077830D01*
X148370325Y-120000005D01*
X153594754Y-120000005D01*
X153613718Y-120301446D01*
X153613719Y-120301453D01*
X153613720Y-120301457D01*
X153665716Y-120574032D01*
X153670320Y-120598164D01*
X153763659Y-120885431D01*
X153763661Y-120885436D01*
X153892265Y-121158732D01*
X153892268Y-121158738D01*
X154054111Y-121413763D01*
X154054114Y-121413767D01*
X154054115Y-121413768D01*
X154119053Y-121492265D01*
X154246652Y-121646505D01*
X154466836Y-121853272D01*
X154466846Y-121853280D01*
X154711193Y-122030808D01*
X154711198Y-122030810D01*
X154711205Y-122030816D01*
X154975896Y-122176332D01*
X154975901Y-122176334D01*
X154975903Y-122176335D01*
X154975904Y-122176336D01*
X155256734Y-122287524D01*
X155256737Y-122287525D01*
X155354259Y-122312564D01*
X155549302Y-122362642D01*
X155696039Y-122381179D01*
X155848963Y-122400499D01*
X155848969Y-122400499D01*
X155848973Y-122400500D01*
X155848975Y-122400500D01*
X156151025Y-122400500D01*
X156151027Y-122400500D01*
X156151032Y-122400499D01*
X156151036Y-122400499D01*
X156230591Y-122390448D01*
X156450698Y-122362642D01*
X156743262Y-122287525D01*
X156743265Y-122287524D01*
X157024095Y-122176336D01*
X157024096Y-122176335D01*
X157024094Y-122176335D01*
X157024104Y-122176332D01*
X157288795Y-122030816D01*
X157533162Y-121853274D01*
X157753349Y-121646504D01*
X157945885Y-121413768D01*
X158107733Y-121158736D01*
X158236341Y-120885430D01*
X158329681Y-120598160D01*
X158386280Y-120301457D01*
X158388171Y-120271400D01*
X158405246Y-120000005D01*
X158405246Y-119999994D01*
X158386281Y-119698553D01*
X158386280Y-119698546D01*
X158386280Y-119698543D01*
X158329681Y-119401840D01*
X158236341Y-119114570D01*
X158107733Y-118841264D01*
X158054755Y-118757784D01*
X157945888Y-118586236D01*
X157898205Y-118528597D01*
X157753349Y-118353496D01*
X157533162Y-118146726D01*
X157533159Y-118146724D01*
X157533153Y-118146719D01*
X157288806Y-117969191D01*
X157288799Y-117969186D01*
X157288795Y-117969184D01*
X157024104Y-117823668D01*
X157024101Y-117823666D01*
X157024096Y-117823664D01*
X157024095Y-117823663D01*
X156743265Y-117712475D01*
X156743262Y-117712474D01*
X156450695Y-117637357D01*
X156151036Y-117599500D01*
X156151027Y-117599500D01*
X155848973Y-117599500D01*
X155848963Y-117599500D01*
X155549304Y-117637357D01*
X155256737Y-117712474D01*
X155256734Y-117712475D01*
X154975904Y-117823663D01*
X154975903Y-117823664D01*
X154711205Y-117969184D01*
X154711193Y-117969191D01*
X154466846Y-118146719D01*
X154466836Y-118146727D01*
X154246652Y-118353494D01*
X154054111Y-118586236D01*
X153892268Y-118841261D01*
X153892265Y-118841267D01*
X153763661Y-119114563D01*
X153763659Y-119114568D01*
X153670320Y-119401835D01*
X153613719Y-119698546D01*
X153613718Y-119698553D01*
X153594754Y-119999994D01*
X153594754Y-120000005D01*
X148370325Y-120000005D01*
X148433903Y-119863663D01*
X148495063Y-119635408D01*
X148515659Y-119400000D01*
X148495063Y-119164592D01*
X148433903Y-118936337D01*
X148334035Y-118722171D01*
X148328425Y-118714158D01*
X148198494Y-118528597D01*
X148031402Y-118361506D01*
X148031395Y-118361501D01*
X147837834Y-118225967D01*
X147837830Y-118225965D01*
X147837829Y-118225964D01*
X147623663Y-118126097D01*
X147623659Y-118126096D01*
X147623655Y-118126094D01*
X147395413Y-118064938D01*
X147395403Y-118064936D01*
X147160001Y-118044341D01*
X147159999Y-118044341D01*
X146924596Y-118064936D01*
X146924586Y-118064938D01*
X146696344Y-118126094D01*
X146696335Y-118126098D01*
X146482171Y-118225964D01*
X146482169Y-118225965D01*
X146288597Y-118361505D01*
X146121505Y-118528597D01*
X145991575Y-118714158D01*
X145936998Y-118757783D01*
X145867500Y-118764977D01*
X145805145Y-118733454D01*
X145788425Y-118714158D01*
X145658494Y-118528597D01*
X145491402Y-118361506D01*
X145491395Y-118361501D01*
X145297834Y-118225967D01*
X145297830Y-118225965D01*
X145297829Y-118225964D01*
X145083663Y-118126097D01*
X145083659Y-118126096D01*
X145083655Y-118126094D01*
X144855413Y-118064938D01*
X144855403Y-118064936D01*
X144620001Y-118044341D01*
X144619999Y-118044341D01*
X144384596Y-118064936D01*
X144384586Y-118064938D01*
X144156344Y-118126094D01*
X144156335Y-118126098D01*
X143942171Y-118225964D01*
X143942169Y-118225965D01*
X143748597Y-118361505D01*
X143581505Y-118528597D01*
X143451575Y-118714158D01*
X143396998Y-118757783D01*
X143327500Y-118764977D01*
X143265145Y-118733454D01*
X143248425Y-118714158D01*
X143118494Y-118528597D01*
X142951402Y-118361506D01*
X142951395Y-118361501D01*
X142757834Y-118225967D01*
X142757830Y-118225965D01*
X142757829Y-118225964D01*
X142543663Y-118126097D01*
X142543659Y-118126096D01*
X142543655Y-118126094D01*
X142315413Y-118064938D01*
X142315403Y-118064936D01*
X142080001Y-118044341D01*
X142079999Y-118044341D01*
X141844596Y-118064936D01*
X141844586Y-118064938D01*
X141616344Y-118126094D01*
X141616335Y-118126098D01*
X141402171Y-118225964D01*
X141402169Y-118225965D01*
X141208597Y-118361505D01*
X141041505Y-118528597D01*
X140911575Y-118714158D01*
X140856998Y-118757783D01*
X140787500Y-118764977D01*
X140725145Y-118733454D01*
X140708425Y-118714158D01*
X140578494Y-118528597D01*
X140411402Y-118361506D01*
X140411395Y-118361501D01*
X140217834Y-118225967D01*
X140217830Y-118225965D01*
X140217830Y-118225964D01*
X140003663Y-118126097D01*
X140003659Y-118126096D01*
X140003655Y-118126094D01*
X139775413Y-118064938D01*
X139775403Y-118064936D01*
X139540001Y-118044341D01*
X139539999Y-118044341D01*
X139304596Y-118064936D01*
X139304586Y-118064938D01*
X139076344Y-118126094D01*
X139076335Y-118126098D01*
X138862171Y-118225964D01*
X138862169Y-118225965D01*
X138668597Y-118361505D01*
X138501505Y-118528597D01*
X138371575Y-118714158D01*
X138316998Y-118757783D01*
X138247500Y-118764977D01*
X138185145Y-118733454D01*
X138168425Y-118714158D01*
X138038494Y-118528597D01*
X137871402Y-118361506D01*
X137871395Y-118361501D01*
X137677834Y-118225967D01*
X137677830Y-118225965D01*
X137677828Y-118225964D01*
X137463663Y-118126097D01*
X137463659Y-118126096D01*
X137463655Y-118126094D01*
X137235413Y-118064938D01*
X137235403Y-118064936D01*
X137000001Y-118044341D01*
X136999999Y-118044341D01*
X136764596Y-118064936D01*
X136764586Y-118064938D01*
X136536344Y-118126094D01*
X136536335Y-118126098D01*
X136322171Y-118225964D01*
X136322169Y-118225965D01*
X136128597Y-118361505D01*
X135961505Y-118528597D01*
X135825965Y-118722169D01*
X135825964Y-118722171D01*
X135726098Y-118936335D01*
X135726094Y-118936344D01*
X135664938Y-119164586D01*
X135664936Y-119164596D01*
X135644341Y-119399999D01*
X135644341Y-119400000D01*
X131615659Y-119400000D01*
X131595063Y-119164592D01*
X131533903Y-118936337D01*
X131434035Y-118722171D01*
X131428425Y-118714158D01*
X131298494Y-118528597D01*
X131131402Y-118361506D01*
X131131395Y-118361501D01*
X130937834Y-118225967D01*
X130937830Y-118225965D01*
X130937828Y-118225964D01*
X130723663Y-118126097D01*
X130723659Y-118126096D01*
X130723655Y-118126094D01*
X130495413Y-118064938D01*
X130495403Y-118064936D01*
X130260001Y-118044341D01*
X130259999Y-118044341D01*
X130024596Y-118064936D01*
X130024586Y-118064938D01*
X129796344Y-118126094D01*
X129796335Y-118126098D01*
X129582171Y-118225964D01*
X129582169Y-118225965D01*
X129388597Y-118361505D01*
X129221508Y-118528594D01*
X129091574Y-118714159D01*
X129036997Y-118757784D01*
X128967498Y-118764976D01*
X128905144Y-118733454D01*
X128888424Y-118714158D01*
X128758494Y-118528597D01*
X128591402Y-118361506D01*
X128591395Y-118361501D01*
X128397834Y-118225967D01*
X128397830Y-118225965D01*
X128397828Y-118225964D01*
X128183663Y-118126097D01*
X128183659Y-118126096D01*
X128183655Y-118126094D01*
X127955413Y-118064938D01*
X127955403Y-118064936D01*
X127720001Y-118044341D01*
X127719999Y-118044341D01*
X127484596Y-118064936D01*
X127484586Y-118064938D01*
X127256344Y-118126094D01*
X127256335Y-118126098D01*
X127042171Y-118225964D01*
X127042169Y-118225965D01*
X126848597Y-118361505D01*
X126681505Y-118528597D01*
X126551575Y-118714158D01*
X126496998Y-118757783D01*
X126427500Y-118764977D01*
X126365145Y-118733454D01*
X126348425Y-118714158D01*
X126218494Y-118528597D01*
X126051402Y-118361506D01*
X126051395Y-118361501D01*
X125857834Y-118225967D01*
X125857830Y-118225965D01*
X125857828Y-118225964D01*
X125643663Y-118126097D01*
X125643659Y-118126096D01*
X125643655Y-118126094D01*
X125415413Y-118064938D01*
X125415403Y-118064936D01*
X125180001Y-118044341D01*
X125179999Y-118044341D01*
X124944596Y-118064936D01*
X124944586Y-118064938D01*
X124716344Y-118126094D01*
X124716335Y-118126098D01*
X124502171Y-118225964D01*
X124502169Y-118225965D01*
X124308597Y-118361505D01*
X124141505Y-118528597D01*
X124011575Y-118714158D01*
X123956998Y-118757783D01*
X123887500Y-118764977D01*
X123825145Y-118733454D01*
X123808425Y-118714158D01*
X123678494Y-118528597D01*
X123511402Y-118361506D01*
X123511395Y-118361501D01*
X123317834Y-118225967D01*
X123317830Y-118225965D01*
X123317828Y-118225964D01*
X123103663Y-118126097D01*
X123103659Y-118126096D01*
X123103655Y-118126094D01*
X122875413Y-118064938D01*
X122875403Y-118064936D01*
X122640001Y-118044341D01*
X122639999Y-118044341D01*
X122404596Y-118064936D01*
X122404586Y-118064938D01*
X122176344Y-118126094D01*
X122176335Y-118126098D01*
X121962171Y-118225964D01*
X121962169Y-118225965D01*
X121768597Y-118361505D01*
X121601505Y-118528597D01*
X121471575Y-118714158D01*
X121416998Y-118757783D01*
X121347500Y-118764977D01*
X121285145Y-118733454D01*
X121268425Y-118714158D01*
X121138494Y-118528597D01*
X120971402Y-118361506D01*
X120971395Y-118361501D01*
X120777834Y-118225967D01*
X120777830Y-118225965D01*
X120777828Y-118225964D01*
X120563663Y-118126097D01*
X120563659Y-118126096D01*
X120563655Y-118126094D01*
X120335413Y-118064938D01*
X120335403Y-118064936D01*
X120100001Y-118044341D01*
X120099999Y-118044341D01*
X119864596Y-118064936D01*
X119864586Y-118064938D01*
X119636344Y-118126094D01*
X119636335Y-118126098D01*
X119422171Y-118225964D01*
X119422169Y-118225965D01*
X119228597Y-118361505D01*
X119061505Y-118528597D01*
X118925965Y-118722169D01*
X118925964Y-118722171D01*
X118826098Y-118936335D01*
X118826094Y-118936344D01*
X118764938Y-119164586D01*
X118764936Y-119164596D01*
X118744341Y-119399999D01*
X118744341Y-119400000D01*
X116329083Y-119400000D01*
X116236341Y-119114570D01*
X116107733Y-118841264D01*
X116054755Y-118757784D01*
X115945888Y-118586236D01*
X115898205Y-118528597D01*
X115753349Y-118353496D01*
X115533162Y-118146726D01*
X115533159Y-118146724D01*
X115533153Y-118146719D01*
X115288806Y-117969191D01*
X115288799Y-117969186D01*
X115288795Y-117969184D01*
X115024104Y-117823668D01*
X115024101Y-117823666D01*
X115024096Y-117823664D01*
X115024095Y-117823663D01*
X114743265Y-117712475D01*
X114743262Y-117712474D01*
X114450695Y-117637357D01*
X114151036Y-117599500D01*
X114151027Y-117599500D01*
X113848973Y-117599500D01*
X113848963Y-117599500D01*
X113549304Y-117637357D01*
X113256737Y-117712474D01*
X113256734Y-117712475D01*
X112975904Y-117823663D01*
X112975903Y-117823664D01*
X112711205Y-117969184D01*
X112711193Y-117969191D01*
X112466846Y-118146719D01*
X112466836Y-118146727D01*
X112246652Y-118353494D01*
X112054111Y-118586236D01*
X111892268Y-118841261D01*
X111892265Y-118841267D01*
X111763661Y-119114563D01*
X111763659Y-119114568D01*
X111670320Y-119401835D01*
X111613719Y-119698546D01*
X111613718Y-119698553D01*
X111594754Y-119999994D01*
X111594754Y-120000005D01*
X111200549Y-120000005D01*
X111200500Y-119998258D01*
X111200500Y-119960117D01*
X111200500Y-112770000D01*
X118974341Y-112770000D01*
X118994936Y-113005403D01*
X118994938Y-113005413D01*
X119056094Y-113233655D01*
X119056096Y-113233659D01*
X119056097Y-113233663D01*
X119070087Y-113263664D01*
X119155965Y-113447830D01*
X119155967Y-113447834D01*
X119182581Y-113485842D01*
X119291505Y-113641401D01*
X119458599Y-113808495D01*
X119501448Y-113838498D01*
X119652165Y-113944032D01*
X119652167Y-113944033D01*
X119652170Y-113944035D01*
X119866337Y-114043903D01*
X120094592Y-114105063D01*
X120282918Y-114121539D01*
X120329999Y-114125659D01*
X120330000Y-114125659D01*
X120330001Y-114125659D01*
X120369234Y-114122226D01*
X120565408Y-114105063D01*
X120793663Y-114043903D01*
X121007830Y-113944035D01*
X121201401Y-113808495D01*
X121368495Y-113641401D01*
X121504035Y-113447830D01*
X121603903Y-113233663D01*
X121665063Y-113005408D01*
X121685659Y-112770000D01*
X124054341Y-112770000D01*
X124074936Y-113005403D01*
X124074938Y-113005413D01*
X124136094Y-113233655D01*
X124136096Y-113233659D01*
X124136097Y-113233663D01*
X124150087Y-113263664D01*
X124235965Y-113447830D01*
X124235967Y-113447834D01*
X124262581Y-113485842D01*
X124371505Y-113641401D01*
X124538599Y-113808495D01*
X124581448Y-113838498D01*
X124732165Y-113944032D01*
X124732167Y-113944033D01*
X124732170Y-113944035D01*
X124946337Y-114043903D01*
X125174592Y-114105063D01*
X125362918Y-114121539D01*
X125409999Y-114125659D01*
X125410000Y-114125659D01*
X125410001Y-114125659D01*
X125449234Y-114122226D01*
X125645408Y-114105063D01*
X125873663Y-114043903D01*
X126087830Y-113944035D01*
X126281401Y-113808495D01*
X126448495Y-113641401D01*
X126578424Y-113455842D01*
X126633002Y-113412217D01*
X126702500Y-113405023D01*
X126764855Y-113436546D01*
X126781575Y-113455842D01*
X126911500Y-113641395D01*
X126911505Y-113641401D01*
X127078599Y-113808495D01*
X127121448Y-113838498D01*
X127272165Y-113944032D01*
X127272167Y-113944033D01*
X127272170Y-113944035D01*
X127486337Y-114043903D01*
X127714592Y-114105063D01*
X127902918Y-114121539D01*
X127949999Y-114125659D01*
X127950000Y-114125659D01*
X127950001Y-114125659D01*
X127989234Y-114122226D01*
X128185408Y-114105063D01*
X128413663Y-114043903D01*
X128627830Y-113944035D01*
X128821401Y-113808495D01*
X128988495Y-113641401D01*
X129118424Y-113455842D01*
X129173002Y-113412217D01*
X129242500Y-113405023D01*
X129304855Y-113436546D01*
X129321575Y-113455842D01*
X129451500Y-113641395D01*
X129451505Y-113641401D01*
X129618599Y-113808495D01*
X129661448Y-113838498D01*
X129812165Y-113944032D01*
X129812167Y-113944033D01*
X129812170Y-113944035D01*
X130026337Y-114043903D01*
X130254592Y-114105063D01*
X130442918Y-114121539D01*
X130489999Y-114125659D01*
X130490000Y-114125659D01*
X130490001Y-114125659D01*
X130529234Y-114122226D01*
X130725408Y-114105063D01*
X130953663Y-114043903D01*
X131167830Y-113944035D01*
X131361401Y-113808495D01*
X131528495Y-113641401D01*
X131664035Y-113447830D01*
X131763903Y-113233663D01*
X131825063Y-113005408D01*
X131845659Y-112770000D01*
X131825063Y-112534592D01*
X131763903Y-112306337D01*
X131664035Y-112092171D01*
X131658425Y-112084158D01*
X131528494Y-111898597D01*
X131361402Y-111731506D01*
X131361395Y-111731501D01*
X131167834Y-111595967D01*
X131167830Y-111595965D01*
X131120518Y-111573903D01*
X130953663Y-111496097D01*
X130953659Y-111496096D01*
X130953655Y-111496094D01*
X130725413Y-111434938D01*
X130725403Y-111434936D01*
X130490001Y-111414341D01*
X130489999Y-111414341D01*
X130254596Y-111434936D01*
X130254586Y-111434938D01*
X130026344Y-111496094D01*
X130026335Y-111496098D01*
X129812171Y-111595964D01*
X129812169Y-111595965D01*
X129618597Y-111731505D01*
X129451508Y-111898594D01*
X129321574Y-112084160D01*
X129266997Y-112127784D01*
X129197498Y-112134977D01*
X129135144Y-112103455D01*
X129118429Y-112084164D01*
X128988495Y-111898599D01*
X128988493Y-111898596D01*
X128821402Y-111731506D01*
X128821401Y-111731505D01*
X128698325Y-111645326D01*
X128654702Y-111590750D01*
X128647509Y-111521251D01*
X128679031Y-111458897D01*
X128698323Y-111442180D01*
X128846401Y-111338495D01*
X129013495Y-111171401D01*
X129149035Y-110977830D01*
X129248903Y-110763663D01*
X129310063Y-110535408D01*
X129330659Y-110300000D01*
X131699341Y-110300000D01*
X131719936Y-110535403D01*
X131719938Y-110535413D01*
X131781094Y-110763655D01*
X131781096Y-110763659D01*
X131781097Y-110763663D01*
X131785000Y-110772032D01*
X131880965Y-110977830D01*
X131880967Y-110977834D01*
X131989281Y-111132521D01*
X132016505Y-111171401D01*
X132183599Y-111338495D01*
X132274392Y-111402069D01*
X132377165Y-111474032D01*
X132377167Y-111474033D01*
X132377170Y-111474035D01*
X132591337Y-111573903D01*
X132819592Y-111635063D01*
X133007918Y-111651539D01*
X133054999Y-111655659D01*
X133055000Y-111655659D01*
X133055001Y-111655659D01*
X133094234Y-111652226D01*
X133290408Y-111635063D01*
X133518663Y-111573903D01*
X133732830Y-111474035D01*
X133926401Y-111338495D01*
X134093495Y-111171401D01*
X134223424Y-110985842D01*
X134278002Y-110942217D01*
X134347500Y-110935023D01*
X134409855Y-110966546D01*
X134426575Y-110985842D01*
X134556500Y-111171395D01*
X134556505Y-111171401D01*
X134723599Y-111338495D01*
X134814392Y-111402069D01*
X134917165Y-111474032D01*
X134917167Y-111474033D01*
X134917170Y-111474035D01*
X135131337Y-111573903D01*
X135359592Y-111635063D01*
X135547918Y-111651539D01*
X135594999Y-111655659D01*
X135595000Y-111655659D01*
X135595001Y-111655659D01*
X135619067Y-111653553D01*
X135824858Y-111635548D01*
X135893356Y-111649314D01*
X135943539Y-111697929D01*
X135959473Y-111765958D01*
X135936098Y-111831802D01*
X135923346Y-111846757D01*
X135841503Y-111928600D01*
X135705965Y-112122169D01*
X135705964Y-112122171D01*
X135606098Y-112336335D01*
X135606094Y-112336344D01*
X135544938Y-112564586D01*
X135544936Y-112564596D01*
X135524341Y-112799999D01*
X135524341Y-112800000D01*
X135544936Y-113035403D01*
X135544938Y-113035413D01*
X135606094Y-113263655D01*
X135606096Y-113263659D01*
X135606097Y-113263663D01*
X135675369Y-113412217D01*
X135705965Y-113477830D01*
X135705967Y-113477834D01*
X135814281Y-113632521D01*
X135841505Y-113671401D01*
X136008599Y-113838495D01*
X136105384Y-113906264D01*
X136202165Y-113974032D01*
X136202167Y-113974033D01*
X136202170Y-113974035D01*
X136416337Y-114073903D01*
X136644592Y-114135063D01*
X136832918Y-114151539D01*
X136879999Y-114155659D01*
X136880000Y-114155659D01*
X136880001Y-114155659D01*
X136919234Y-114152226D01*
X137115408Y-114135063D01*
X137343663Y-114073903D01*
X137557830Y-113974035D01*
X137751401Y-113838495D01*
X137918495Y-113671401D01*
X138054035Y-113477830D01*
X138153903Y-113263663D01*
X138215063Y-113035408D01*
X138235659Y-112800000D01*
X138215063Y-112564592D01*
X138153903Y-112336337D01*
X138054035Y-112122171D01*
X138048425Y-112114158D01*
X137918494Y-111928597D01*
X137839530Y-111849633D01*
X137806045Y-111788310D01*
X137811029Y-111718618D01*
X137852901Y-111662685D01*
X137918365Y-111638268D01*
X137938006Y-111638423D01*
X138119200Y-111654276D01*
X138134999Y-111655659D01*
X138135000Y-111655659D01*
X138135001Y-111655659D01*
X138174234Y-111652226D01*
X138370408Y-111635063D01*
X138598663Y-111573903D01*
X138812830Y-111474035D01*
X139006401Y-111338495D01*
X139173495Y-111171401D01*
X139303424Y-110985842D01*
X139358002Y-110942217D01*
X139427500Y-110935023D01*
X139489855Y-110966546D01*
X139506575Y-110985842D01*
X139636500Y-111171395D01*
X139636505Y-111171401D01*
X139803599Y-111338495D01*
X139894392Y-111402069D01*
X139997165Y-111474032D01*
X139997167Y-111474033D01*
X139997170Y-111474035D01*
X140211337Y-111573903D01*
X140439592Y-111635063D01*
X140627918Y-111651539D01*
X140674999Y-111655659D01*
X140675000Y-111655659D01*
X140675001Y-111655659D01*
X140699067Y-111653553D01*
X140904858Y-111635548D01*
X140973356Y-111649314D01*
X141023539Y-111697929D01*
X141039473Y-111765958D01*
X141016098Y-111831802D01*
X141003346Y-111846757D01*
X140921503Y-111928600D01*
X140785965Y-112122169D01*
X140785964Y-112122171D01*
X140686098Y-112336335D01*
X140686094Y-112336344D01*
X140624938Y-112564586D01*
X140624936Y-112564596D01*
X140604341Y-112799999D01*
X140604341Y-112800000D01*
X140624936Y-113035403D01*
X140624938Y-113035413D01*
X140686094Y-113263655D01*
X140686096Y-113263659D01*
X140686097Y-113263663D01*
X140755369Y-113412217D01*
X140785965Y-113477830D01*
X140785967Y-113477834D01*
X140894281Y-113632521D01*
X140921505Y-113671401D01*
X141088599Y-113838495D01*
X141185384Y-113906264D01*
X141282165Y-113974032D01*
X141282167Y-113974033D01*
X141282170Y-113974035D01*
X141496337Y-114073903D01*
X141724592Y-114135063D01*
X141912918Y-114151539D01*
X141959999Y-114155659D01*
X141960000Y-114155659D01*
X141960001Y-114155659D01*
X141999234Y-114152226D01*
X142195408Y-114135063D01*
X142423663Y-114073903D01*
X142637830Y-113974035D01*
X142831401Y-113838495D01*
X142998495Y-113671401D01*
X143128424Y-113485842D01*
X143183002Y-113442217D01*
X143252500Y-113435023D01*
X143314855Y-113466546D01*
X143331575Y-113485842D01*
X143461500Y-113671395D01*
X143461505Y-113671401D01*
X143628599Y-113838495D01*
X143725384Y-113906264D01*
X143822165Y-113974032D01*
X143822167Y-113974033D01*
X143822170Y-113974035D01*
X144036337Y-114073903D01*
X144264592Y-114135063D01*
X144452918Y-114151539D01*
X144499999Y-114155659D01*
X144500000Y-114155659D01*
X144500001Y-114155659D01*
X144539234Y-114152226D01*
X144735408Y-114135063D01*
X144963663Y-114073903D01*
X145177830Y-113974035D01*
X145371401Y-113838495D01*
X145538495Y-113671401D01*
X145668424Y-113485842D01*
X145723002Y-113442217D01*
X145792500Y-113435023D01*
X145854855Y-113466546D01*
X145871575Y-113485842D01*
X146001500Y-113671395D01*
X146001505Y-113671401D01*
X146168599Y-113838495D01*
X146265384Y-113906264D01*
X146362165Y-113974032D01*
X146362167Y-113974033D01*
X146362170Y-113974035D01*
X146576337Y-114073903D01*
X146804592Y-114135063D01*
X146992918Y-114151539D01*
X147039999Y-114155659D01*
X147040000Y-114155659D01*
X147040001Y-114155659D01*
X147079234Y-114152226D01*
X147275408Y-114135063D01*
X147503663Y-114073903D01*
X147717830Y-113974035D01*
X147911401Y-113838495D01*
X148078495Y-113671401D01*
X148214035Y-113477830D01*
X148313903Y-113263663D01*
X148375063Y-113035408D01*
X148395659Y-112800000D01*
X148375063Y-112564592D01*
X148313903Y-112336337D01*
X148214035Y-112122171D01*
X148208425Y-112114158D01*
X148078494Y-111928597D01*
X147999530Y-111849633D01*
X147966045Y-111788310D01*
X147971029Y-111718618D01*
X148012901Y-111662685D01*
X148078365Y-111638268D01*
X148098006Y-111638423D01*
X148279200Y-111654276D01*
X148294999Y-111655659D01*
X148295000Y-111655659D01*
X148295001Y-111655659D01*
X148334234Y-111652226D01*
X148530408Y-111635063D01*
X148758663Y-111573903D01*
X148972830Y-111474035D01*
X149166401Y-111338495D01*
X149333495Y-111171401D01*
X149469035Y-110977830D01*
X149568903Y-110763663D01*
X149630063Y-110535408D01*
X149650659Y-110300000D01*
X149630063Y-110064592D01*
X149568903Y-109836337D01*
X149469035Y-109622171D01*
X149463425Y-109614158D01*
X149333494Y-109428597D01*
X149166402Y-109261506D01*
X149166395Y-109261501D01*
X148972834Y-109125967D01*
X148972830Y-109125965D01*
X148972828Y-109125964D01*
X148758663Y-109026097D01*
X148758659Y-109026096D01*
X148758655Y-109026094D01*
X148530413Y-108964938D01*
X148530403Y-108964936D01*
X148295001Y-108944341D01*
X148294999Y-108944341D01*
X148059596Y-108964936D01*
X148059586Y-108964938D01*
X147831344Y-109026094D01*
X147831335Y-109026098D01*
X147617171Y-109125964D01*
X147617169Y-109125965D01*
X147423597Y-109261505D01*
X147256505Y-109428597D01*
X147126575Y-109614158D01*
X147071998Y-109657783D01*
X147002500Y-109664977D01*
X146940145Y-109633454D01*
X146923425Y-109614158D01*
X146793494Y-109428597D01*
X146626402Y-109261506D01*
X146626395Y-109261501D01*
X146432834Y-109125967D01*
X146432830Y-109125965D01*
X146432828Y-109125964D01*
X146218663Y-109026097D01*
X146218659Y-109026096D01*
X146218655Y-109026094D01*
X145990413Y-108964938D01*
X145990403Y-108964936D01*
X145755001Y-108944341D01*
X145754999Y-108944341D01*
X145519596Y-108964936D01*
X145519586Y-108964938D01*
X145291344Y-109026094D01*
X145291335Y-109026098D01*
X145077171Y-109125964D01*
X145077169Y-109125965D01*
X144883597Y-109261505D01*
X144716505Y-109428597D01*
X144586575Y-109614158D01*
X144531998Y-109657783D01*
X144462500Y-109664977D01*
X144400145Y-109633454D01*
X144383425Y-109614158D01*
X144253494Y-109428597D01*
X144086402Y-109261506D01*
X144086395Y-109261501D01*
X143892834Y-109125967D01*
X143892830Y-109125965D01*
X143892828Y-109125964D01*
X143678663Y-109026097D01*
X143678659Y-109026096D01*
X143678655Y-109026094D01*
X143450413Y-108964938D01*
X143450403Y-108964936D01*
X143215001Y-108944341D01*
X143214999Y-108944341D01*
X142979596Y-108964936D01*
X142979586Y-108964938D01*
X142751344Y-109026094D01*
X142751335Y-109026098D01*
X142537171Y-109125964D01*
X142537169Y-109125965D01*
X142343597Y-109261505D01*
X142176505Y-109428597D01*
X142046575Y-109614158D01*
X141991998Y-109657783D01*
X141922500Y-109664977D01*
X141860145Y-109633454D01*
X141843425Y-109614158D01*
X141713494Y-109428597D01*
X141546402Y-109261506D01*
X141546395Y-109261501D01*
X141352834Y-109125967D01*
X141352830Y-109125965D01*
X141352828Y-109125964D01*
X141138663Y-109026097D01*
X141138659Y-109026096D01*
X141138655Y-109026094D01*
X140910413Y-108964938D01*
X140910403Y-108964936D01*
X140675001Y-108944341D01*
X140674999Y-108944341D01*
X140439596Y-108964936D01*
X140439586Y-108964938D01*
X140211344Y-109026094D01*
X140211335Y-109026098D01*
X139997171Y-109125964D01*
X139997169Y-109125965D01*
X139803597Y-109261505D01*
X139636505Y-109428597D01*
X139506575Y-109614158D01*
X139451998Y-109657783D01*
X139382500Y-109664977D01*
X139320145Y-109633454D01*
X139303425Y-109614158D01*
X139173494Y-109428597D01*
X139006402Y-109261506D01*
X139006395Y-109261501D01*
X138812834Y-109125967D01*
X138812830Y-109125965D01*
X138812828Y-109125964D01*
X138598663Y-109026097D01*
X138598659Y-109026096D01*
X138598655Y-109026094D01*
X138370413Y-108964938D01*
X138370403Y-108964936D01*
X138135001Y-108944341D01*
X138134999Y-108944341D01*
X137899596Y-108964936D01*
X137899586Y-108964938D01*
X137671344Y-109026094D01*
X137671335Y-109026098D01*
X137457171Y-109125964D01*
X137457169Y-109125965D01*
X137263597Y-109261505D01*
X137096505Y-109428597D01*
X136966575Y-109614158D01*
X136911998Y-109657783D01*
X136842500Y-109664977D01*
X136780145Y-109633454D01*
X136763425Y-109614158D01*
X136633494Y-109428597D01*
X136466402Y-109261506D01*
X136466395Y-109261501D01*
X136272834Y-109125967D01*
X136272830Y-109125965D01*
X136272828Y-109125964D01*
X136058663Y-109026097D01*
X136058659Y-109026096D01*
X136058655Y-109026094D01*
X135830413Y-108964938D01*
X135830403Y-108964936D01*
X135595001Y-108944341D01*
X135594999Y-108944341D01*
X135359596Y-108964936D01*
X135359586Y-108964938D01*
X135131344Y-109026094D01*
X135131335Y-109026098D01*
X134917171Y-109125964D01*
X134917169Y-109125965D01*
X134723597Y-109261505D01*
X134556505Y-109428597D01*
X134426575Y-109614158D01*
X134371998Y-109657783D01*
X134302500Y-109664977D01*
X134240145Y-109633454D01*
X134223425Y-109614158D01*
X134093494Y-109428597D01*
X133926402Y-109261506D01*
X133926395Y-109261501D01*
X133732834Y-109125967D01*
X133732830Y-109125965D01*
X133732828Y-109125964D01*
X133518663Y-109026097D01*
X133518659Y-109026096D01*
X133518655Y-109026094D01*
X133290413Y-108964938D01*
X133290403Y-108964936D01*
X133055001Y-108944341D01*
X133054999Y-108944341D01*
X132819596Y-108964936D01*
X132819586Y-108964938D01*
X132591344Y-109026094D01*
X132591335Y-109026098D01*
X132377171Y-109125964D01*
X132377169Y-109125965D01*
X132183597Y-109261505D01*
X132016505Y-109428597D01*
X131880965Y-109622169D01*
X131880964Y-109622171D01*
X131781098Y-109836335D01*
X131781094Y-109836344D01*
X131719938Y-110064586D01*
X131719936Y-110064596D01*
X131699341Y-110299999D01*
X131699341Y-110300000D01*
X129330659Y-110300000D01*
X129310063Y-110064592D01*
X129248903Y-109836337D01*
X129149035Y-109622171D01*
X129143425Y-109614158D01*
X129013494Y-109428597D01*
X128846402Y-109261506D01*
X128846395Y-109261501D01*
X128652834Y-109125967D01*
X128652830Y-109125965D01*
X128652828Y-109125964D01*
X128438663Y-109026097D01*
X128438659Y-109026096D01*
X128438655Y-109026094D01*
X128210413Y-108964938D01*
X128210403Y-108964936D01*
X127975001Y-108944341D01*
X127974999Y-108944341D01*
X127739596Y-108964936D01*
X127739586Y-108964938D01*
X127511344Y-109026094D01*
X127511335Y-109026098D01*
X127297171Y-109125964D01*
X127297169Y-109125965D01*
X127103597Y-109261505D01*
X126936505Y-109428597D01*
X126800965Y-109622169D01*
X126800964Y-109622171D01*
X126701098Y-109836335D01*
X126701094Y-109836344D01*
X126639938Y-110064586D01*
X126639936Y-110064596D01*
X126619341Y-110299999D01*
X126619341Y-110300000D01*
X126639936Y-110535403D01*
X126639938Y-110535413D01*
X126701094Y-110763655D01*
X126701096Y-110763659D01*
X126701097Y-110763663D01*
X126705000Y-110772032D01*
X126800965Y-110977830D01*
X126800967Y-110977834D01*
X126909281Y-111132521D01*
X126936501Y-111171396D01*
X126936506Y-111171402D01*
X127103597Y-111338493D01*
X127103603Y-111338498D01*
X127226672Y-111424672D01*
X127270297Y-111479249D01*
X127277491Y-111548747D01*
X127245968Y-111611102D01*
X127226673Y-111627822D01*
X127078594Y-111731508D01*
X126911505Y-111898597D01*
X126781575Y-112084158D01*
X126726998Y-112127783D01*
X126657500Y-112134977D01*
X126595145Y-112103454D01*
X126578425Y-112084158D01*
X126448494Y-111898597D01*
X126281402Y-111731506D01*
X126281395Y-111731501D01*
X126087834Y-111595967D01*
X126087830Y-111595965D01*
X126040518Y-111573903D01*
X125873663Y-111496097D01*
X125873659Y-111496096D01*
X125873655Y-111496094D01*
X125645413Y-111434938D01*
X125645403Y-111434936D01*
X125410001Y-111414341D01*
X125409999Y-111414341D01*
X125174596Y-111434936D01*
X125174586Y-111434938D01*
X124946344Y-111496094D01*
X124946335Y-111496098D01*
X124732171Y-111595964D01*
X124732169Y-111595965D01*
X124538597Y-111731505D01*
X124371505Y-111898597D01*
X124235965Y-112092169D01*
X124235964Y-112092171D01*
X124136098Y-112306335D01*
X124136094Y-112306344D01*
X124074938Y-112534586D01*
X124074936Y-112534596D01*
X124054341Y-112769999D01*
X124054341Y-112770000D01*
X121685659Y-112770000D01*
X121665063Y-112534592D01*
X121603903Y-112306337D01*
X121504035Y-112092171D01*
X121498425Y-112084158D01*
X121368494Y-111898597D01*
X121201402Y-111731506D01*
X121201395Y-111731501D01*
X121007834Y-111595967D01*
X121007830Y-111595965D01*
X120960518Y-111573903D01*
X120793663Y-111496097D01*
X120793659Y-111496096D01*
X120793655Y-111496094D01*
X120565413Y-111434938D01*
X120565403Y-111434936D01*
X120330001Y-111414341D01*
X120329999Y-111414341D01*
X120094596Y-111434936D01*
X120094586Y-111434938D01*
X119866344Y-111496094D01*
X119866335Y-111496098D01*
X119652171Y-111595964D01*
X119652169Y-111595965D01*
X119458597Y-111731505D01*
X119291505Y-111898597D01*
X119155965Y-112092169D01*
X119155964Y-112092171D01*
X119056098Y-112306335D01*
X119056094Y-112306344D01*
X118994938Y-112534586D01*
X118994936Y-112534596D01*
X118974341Y-112769999D01*
X118974341Y-112770000D01*
X111200500Y-112770000D01*
X111200499Y-104521000D01*
X116459541Y-104521000D01*
X116480136Y-104756403D01*
X116480138Y-104756413D01*
X116541294Y-104984655D01*
X116541296Y-104984659D01*
X116541297Y-104984663D01*
X116621204Y-105156023D01*
X116641165Y-105198830D01*
X116641167Y-105198834D01*
X116713022Y-105301453D01*
X116776705Y-105392401D01*
X116943799Y-105559495D01*
X116999024Y-105598164D01*
X117137365Y-105695032D01*
X117137367Y-105695033D01*
X117137370Y-105695035D01*
X117351537Y-105794903D01*
X117579792Y-105856063D01*
X117768118Y-105872539D01*
X117815199Y-105876659D01*
X117815200Y-105876659D01*
X117815201Y-105876659D01*
X117854434Y-105873226D01*
X118050608Y-105856063D01*
X118278863Y-105794903D01*
X118493030Y-105695035D01*
X118686601Y-105559495D01*
X118853695Y-105392401D01*
X118983626Y-105206840D01*
X119038201Y-105163217D01*
X119107699Y-105156023D01*
X119170054Y-105187546D01*
X119186774Y-105206841D01*
X119316705Y-105392401D01*
X119483799Y-105559495D01*
X119539024Y-105598164D01*
X119677365Y-105695032D01*
X119677367Y-105695033D01*
X119677370Y-105695035D01*
X119891537Y-105794903D01*
X120119792Y-105856063D01*
X120308118Y-105872539D01*
X120355199Y-105876659D01*
X120355200Y-105876659D01*
X120355201Y-105876659D01*
X120394434Y-105873226D01*
X120590608Y-105856063D01*
X120818863Y-105794903D01*
X121033030Y-105695035D01*
X121226601Y-105559495D01*
X121393695Y-105392401D01*
X121523626Y-105206841D01*
X121578202Y-105163217D01*
X121647700Y-105156023D01*
X121710055Y-105187546D01*
X121726775Y-105206842D01*
X121856700Y-105392395D01*
X121856705Y-105392401D01*
X122023799Y-105559495D01*
X122079024Y-105598164D01*
X122217365Y-105695032D01*
X122217367Y-105695033D01*
X122217370Y-105695035D01*
X122431537Y-105794903D01*
X122659792Y-105856063D01*
X122848118Y-105872539D01*
X122895199Y-105876659D01*
X122895200Y-105876659D01*
X122895201Y-105876659D01*
X122934434Y-105873226D01*
X123130608Y-105856063D01*
X123358863Y-105794903D01*
X123573030Y-105695035D01*
X123766601Y-105559495D01*
X123933695Y-105392401D01*
X124063626Y-105206840D01*
X124118201Y-105163217D01*
X124187699Y-105156023D01*
X124250054Y-105187546D01*
X124266774Y-105206841D01*
X124396705Y-105392401D01*
X124563799Y-105559495D01*
X124619024Y-105598164D01*
X124757365Y-105695032D01*
X124757367Y-105695033D01*
X124757370Y-105695035D01*
X124971537Y-105794903D01*
X125199792Y-105856063D01*
X125388118Y-105872539D01*
X125435199Y-105876659D01*
X125435200Y-105876659D01*
X125435201Y-105876659D01*
X125474434Y-105873226D01*
X125670608Y-105856063D01*
X125898863Y-105794903D01*
X126113030Y-105695035D01*
X126306601Y-105559495D01*
X126473695Y-105392401D01*
X126603626Y-105206841D01*
X126658202Y-105163217D01*
X126727700Y-105156023D01*
X126790055Y-105187546D01*
X126806775Y-105206842D01*
X126936700Y-105392395D01*
X126936705Y-105392401D01*
X127103799Y-105559495D01*
X127159024Y-105598164D01*
X127297365Y-105695032D01*
X127297367Y-105695033D01*
X127297370Y-105695035D01*
X127511537Y-105794903D01*
X127739792Y-105856063D01*
X127928118Y-105872539D01*
X127975199Y-105876659D01*
X127975200Y-105876659D01*
X127975201Y-105876659D01*
X128014434Y-105873226D01*
X128210608Y-105856063D01*
X128438863Y-105794903D01*
X128653030Y-105695035D01*
X128846601Y-105559495D01*
X129013695Y-105392401D01*
X129143626Y-105206840D01*
X129198201Y-105163217D01*
X129267699Y-105156023D01*
X129330054Y-105187546D01*
X129346774Y-105206841D01*
X129476705Y-105392401D01*
X129643799Y-105559495D01*
X129699024Y-105598164D01*
X129837365Y-105695032D01*
X129837367Y-105695033D01*
X129837370Y-105695035D01*
X130051537Y-105794903D01*
X130279792Y-105856063D01*
X130468118Y-105872539D01*
X130515199Y-105876659D01*
X130515200Y-105876659D01*
X130515201Y-105876659D01*
X130554434Y-105873226D01*
X130750608Y-105856063D01*
X130978863Y-105794903D01*
X131193030Y-105695035D01*
X131386601Y-105559495D01*
X131553695Y-105392401D01*
X131683626Y-105206841D01*
X131738202Y-105163217D01*
X131807700Y-105156023D01*
X131870055Y-105187546D01*
X131886775Y-105206842D01*
X132016700Y-105392395D01*
X132016705Y-105392401D01*
X132183799Y-105559495D01*
X132239024Y-105598164D01*
X132377365Y-105695032D01*
X132377367Y-105695033D01*
X132377370Y-105695035D01*
X132591537Y-105794903D01*
X132819792Y-105856063D01*
X133008118Y-105872539D01*
X133055199Y-105876659D01*
X133055200Y-105876659D01*
X133055201Y-105876659D01*
X133094434Y-105873226D01*
X133290608Y-105856063D01*
X133518863Y-105794903D01*
X133733030Y-105695035D01*
X133926601Y-105559495D01*
X134093695Y-105392401D01*
X134223626Y-105206841D01*
X134278202Y-105163217D01*
X134347700Y-105156023D01*
X134410055Y-105187546D01*
X134426775Y-105206842D01*
X134556700Y-105392395D01*
X134556705Y-105392401D01*
X134723799Y-105559495D01*
X134779024Y-105598164D01*
X134917365Y-105695032D01*
X134917367Y-105695033D01*
X134917370Y-105695035D01*
X135131537Y-105794903D01*
X135359792Y-105856063D01*
X135548118Y-105872539D01*
X135595199Y-105876659D01*
X135595200Y-105876659D01*
X135595201Y-105876659D01*
X135634434Y-105873226D01*
X135830608Y-105856063D01*
X136058863Y-105794903D01*
X136273030Y-105695035D01*
X136466601Y-105559495D01*
X136633695Y-105392401D01*
X136763626Y-105206841D01*
X136818202Y-105163217D01*
X136887700Y-105156023D01*
X136950055Y-105187546D01*
X136966775Y-105206842D01*
X137096700Y-105392395D01*
X137096705Y-105392401D01*
X137263799Y-105559495D01*
X137319024Y-105598164D01*
X137457365Y-105695032D01*
X137457367Y-105695033D01*
X137457370Y-105695035D01*
X137671537Y-105794903D01*
X137899792Y-105856063D01*
X138088118Y-105872539D01*
X138135199Y-105876659D01*
X138135200Y-105876659D01*
X138135201Y-105876659D01*
X138174434Y-105873226D01*
X138370608Y-105856063D01*
X138598863Y-105794903D01*
X138813030Y-105695035D01*
X139006601Y-105559495D01*
X139173695Y-105392401D01*
X139303626Y-105206841D01*
X139358202Y-105163217D01*
X139427700Y-105156023D01*
X139490055Y-105187546D01*
X139506775Y-105206842D01*
X139636700Y-105392395D01*
X139636705Y-105392401D01*
X139803799Y-105559495D01*
X139859024Y-105598164D01*
X139997365Y-105695032D01*
X139997367Y-105695033D01*
X139997370Y-105695035D01*
X140211537Y-105794903D01*
X140439792Y-105856063D01*
X140628118Y-105872539D01*
X140675199Y-105876659D01*
X140675200Y-105876659D01*
X140675201Y-105876659D01*
X140714434Y-105873226D01*
X140910608Y-105856063D01*
X141138863Y-105794903D01*
X141353030Y-105695035D01*
X141546601Y-105559495D01*
X141713695Y-105392401D01*
X141843626Y-105206841D01*
X141898202Y-105163217D01*
X141967700Y-105156023D01*
X142030055Y-105187546D01*
X142046775Y-105206842D01*
X142176700Y-105392395D01*
X142176705Y-105392401D01*
X142343799Y-105559495D01*
X142399024Y-105598164D01*
X142537365Y-105695032D01*
X142537367Y-105695033D01*
X142537370Y-105695035D01*
X142751537Y-105794903D01*
X142979792Y-105856063D01*
X143168118Y-105872539D01*
X143215199Y-105876659D01*
X143215200Y-105876659D01*
X143215201Y-105876659D01*
X143254434Y-105873226D01*
X143450608Y-105856063D01*
X143678863Y-105794903D01*
X143893030Y-105695035D01*
X144086601Y-105559495D01*
X144253695Y-105392401D01*
X144383626Y-105206841D01*
X144438202Y-105163217D01*
X144507700Y-105156023D01*
X144570055Y-105187546D01*
X144586775Y-105206842D01*
X144716700Y-105392395D01*
X144716705Y-105392401D01*
X144883799Y-105559495D01*
X144939024Y-105598164D01*
X145077365Y-105695032D01*
X145077367Y-105695033D01*
X145077370Y-105695035D01*
X145291537Y-105794903D01*
X145519792Y-105856063D01*
X145708118Y-105872539D01*
X145755199Y-105876659D01*
X145755200Y-105876659D01*
X145755201Y-105876659D01*
X145794434Y-105873226D01*
X145990608Y-105856063D01*
X146218863Y-105794903D01*
X146433030Y-105695035D01*
X146626601Y-105559495D01*
X146793695Y-105392401D01*
X146923626Y-105206841D01*
X146978202Y-105163217D01*
X147047700Y-105156023D01*
X147110055Y-105187546D01*
X147126775Y-105206842D01*
X147256700Y-105392395D01*
X147256705Y-105392401D01*
X147423799Y-105559495D01*
X147479024Y-105598164D01*
X147617365Y-105695032D01*
X147617367Y-105695033D01*
X147617370Y-105695035D01*
X147831537Y-105794903D01*
X148059792Y-105856063D01*
X148248118Y-105872539D01*
X148295199Y-105876659D01*
X148295200Y-105876659D01*
X148295201Y-105876659D01*
X148334434Y-105873226D01*
X148530608Y-105856063D01*
X148758863Y-105794903D01*
X148973030Y-105695035D01*
X149166601Y-105559495D01*
X149333695Y-105392401D01*
X149469235Y-105198830D01*
X149561949Y-105000005D01*
X152194754Y-105000005D01*
X152213718Y-105301446D01*
X152213719Y-105301453D01*
X152270320Y-105598164D01*
X152363659Y-105885431D01*
X152363661Y-105885436D01*
X152492265Y-106158732D01*
X152492268Y-106158738D01*
X152654111Y-106413763D01*
X152846652Y-106646505D01*
X153066836Y-106853272D01*
X153066846Y-106853280D01*
X153311193Y-107030808D01*
X153311198Y-107030810D01*
X153311205Y-107030816D01*
X153575896Y-107176332D01*
X153575901Y-107176334D01*
X153575903Y-107176335D01*
X153575904Y-107176336D01*
X153856734Y-107287524D01*
X153856737Y-107287525D01*
X153954259Y-107312564D01*
X154149302Y-107362642D01*
X154296039Y-107381179D01*
X154448963Y-107400499D01*
X154448969Y-107400499D01*
X154448973Y-107400500D01*
X154448975Y-107400500D01*
X154751025Y-107400500D01*
X154751027Y-107400500D01*
X154751032Y-107400499D01*
X154751036Y-107400499D01*
X154830591Y-107390448D01*
X155050698Y-107362642D01*
X155343262Y-107287525D01*
X155343265Y-107287524D01*
X155624095Y-107176336D01*
X155624096Y-107176335D01*
X155624094Y-107176335D01*
X155624104Y-107176332D01*
X155888795Y-107030816D01*
X156133162Y-106853274D01*
X156353349Y-106646504D01*
X156545885Y-106413768D01*
X156707733Y-106158736D01*
X156836341Y-105885430D01*
X156929681Y-105598160D01*
X156986280Y-105301457D01*
X156992233Y-105206841D01*
X157005246Y-105000005D01*
X157005246Y-104999994D01*
X156986281Y-104698553D01*
X156986280Y-104698546D01*
X156986280Y-104698543D01*
X156929681Y-104401840D01*
X156836341Y-104114570D01*
X156809412Y-104057344D01*
X156728773Y-103885976D01*
X156707733Y-103841264D01*
X156545885Y-103586232D01*
X156353349Y-103353496D01*
X156133162Y-103146726D01*
X156133159Y-103146724D01*
X156133153Y-103146719D01*
X155888806Y-102969191D01*
X155888799Y-102969186D01*
X155888795Y-102969184D01*
X155624104Y-102823668D01*
X155624101Y-102823666D01*
X155624096Y-102823664D01*
X155624095Y-102823663D01*
X155343265Y-102712475D01*
X155343262Y-102712474D01*
X155050695Y-102637357D01*
X154751036Y-102599500D01*
X154751027Y-102599500D01*
X154448973Y-102599500D01*
X154448963Y-102599500D01*
X154149304Y-102637357D01*
X153856737Y-102712474D01*
X153856734Y-102712475D01*
X153575904Y-102823663D01*
X153575903Y-102823664D01*
X153311205Y-102969184D01*
X153311193Y-102969191D01*
X153066846Y-103146719D01*
X153066836Y-103146727D01*
X152846652Y-103353494D01*
X152654111Y-103586236D01*
X152492268Y-103841261D01*
X152492265Y-103841267D01*
X152363661Y-104114563D01*
X152363659Y-104114568D01*
X152270320Y-104401835D01*
X152213719Y-104698546D01*
X152213718Y-104698553D01*
X152194754Y-104999994D01*
X152194754Y-105000005D01*
X149561949Y-105000005D01*
X149569103Y-104984663D01*
X149630263Y-104756408D01*
X149650859Y-104521000D01*
X149630263Y-104285592D01*
X149569103Y-104057337D01*
X149469235Y-103843171D01*
X149463625Y-103835158D01*
X149333694Y-103649597D01*
X149166602Y-103482506D01*
X149166595Y-103482501D01*
X148973034Y-103346967D01*
X148973030Y-103346965D01*
X148973028Y-103346964D01*
X148758863Y-103247097D01*
X148758859Y-103247096D01*
X148758855Y-103247094D01*
X148530613Y-103185938D01*
X148530603Y-103185936D01*
X148295201Y-103165341D01*
X148295199Y-103165341D01*
X148059796Y-103185936D01*
X148059786Y-103185938D01*
X147831544Y-103247094D01*
X147831535Y-103247098D01*
X147617371Y-103346964D01*
X147617369Y-103346965D01*
X147423797Y-103482505D01*
X147256705Y-103649597D01*
X147126775Y-103835158D01*
X147072198Y-103878783D01*
X147002700Y-103885977D01*
X146940345Y-103854454D01*
X146923625Y-103835158D01*
X146793694Y-103649597D01*
X146626602Y-103482506D01*
X146626595Y-103482501D01*
X146433034Y-103346967D01*
X146433030Y-103346965D01*
X146433028Y-103346964D01*
X146218863Y-103247097D01*
X146218859Y-103247096D01*
X146218855Y-103247094D01*
X145990613Y-103185938D01*
X145990603Y-103185936D01*
X145755201Y-103165341D01*
X145755199Y-103165341D01*
X145519796Y-103185936D01*
X145519786Y-103185938D01*
X145291544Y-103247094D01*
X145291535Y-103247098D01*
X145077371Y-103346964D01*
X145077369Y-103346965D01*
X144883797Y-103482505D01*
X144716708Y-103649594D01*
X144586774Y-103835159D01*
X144532197Y-103878784D01*
X144462698Y-103885976D01*
X144400344Y-103854454D01*
X144383624Y-103835158D01*
X144253694Y-103649597D01*
X144086602Y-103482506D01*
X144086595Y-103482501D01*
X143893034Y-103346967D01*
X143893030Y-103346965D01*
X143893028Y-103346964D01*
X143678863Y-103247097D01*
X143678859Y-103247096D01*
X143678855Y-103247094D01*
X143450613Y-103185938D01*
X143450603Y-103185936D01*
X143215201Y-103165341D01*
X143215199Y-103165341D01*
X142979796Y-103185936D01*
X142979786Y-103185938D01*
X142751544Y-103247094D01*
X142751535Y-103247098D01*
X142537371Y-103346964D01*
X142537369Y-103346965D01*
X142343797Y-103482505D01*
X142176705Y-103649597D01*
X142046775Y-103835158D01*
X141992198Y-103878783D01*
X141922700Y-103885977D01*
X141860345Y-103854454D01*
X141843625Y-103835158D01*
X141713694Y-103649597D01*
X141546602Y-103482506D01*
X141546595Y-103482501D01*
X141353034Y-103346967D01*
X141353030Y-103346965D01*
X141353028Y-103346964D01*
X141138863Y-103247097D01*
X141138859Y-103247096D01*
X141138855Y-103247094D01*
X140910613Y-103185938D01*
X140910603Y-103185936D01*
X140675201Y-103165341D01*
X140675199Y-103165341D01*
X140439796Y-103185936D01*
X140439786Y-103185938D01*
X140211544Y-103247094D01*
X140211535Y-103247098D01*
X139997371Y-103346964D01*
X139997369Y-103346965D01*
X139803797Y-103482505D01*
X139636705Y-103649597D01*
X139506775Y-103835158D01*
X139452198Y-103878783D01*
X139382700Y-103885977D01*
X139320345Y-103854454D01*
X139303625Y-103835158D01*
X139173694Y-103649597D01*
X139006602Y-103482506D01*
X139006595Y-103482501D01*
X138813034Y-103346967D01*
X138813030Y-103346965D01*
X138813028Y-103346964D01*
X138598863Y-103247097D01*
X138598859Y-103247096D01*
X138598855Y-103247094D01*
X138370613Y-103185938D01*
X138370603Y-103185936D01*
X138135201Y-103165341D01*
X138135199Y-103165341D01*
X137899796Y-103185936D01*
X137899786Y-103185938D01*
X137671544Y-103247094D01*
X137671535Y-103247098D01*
X137457371Y-103346964D01*
X137457369Y-103346965D01*
X137263797Y-103482505D01*
X137096705Y-103649597D01*
X136966775Y-103835158D01*
X136912198Y-103878783D01*
X136842700Y-103885977D01*
X136780345Y-103854454D01*
X136763625Y-103835158D01*
X136633694Y-103649597D01*
X136466602Y-103482506D01*
X136466595Y-103482501D01*
X136273034Y-103346967D01*
X136273030Y-103346965D01*
X136273028Y-103346964D01*
X136058863Y-103247097D01*
X136058859Y-103247096D01*
X136058855Y-103247094D01*
X135830613Y-103185938D01*
X135830603Y-103185936D01*
X135595201Y-103165341D01*
X135595199Y-103165341D01*
X135359796Y-103185936D01*
X135359786Y-103185938D01*
X135131544Y-103247094D01*
X135131535Y-103247098D01*
X134917371Y-103346964D01*
X134917369Y-103346965D01*
X134723797Y-103482505D01*
X134556705Y-103649597D01*
X134426775Y-103835158D01*
X134372198Y-103878783D01*
X134302700Y-103885977D01*
X134240345Y-103854454D01*
X134223625Y-103835158D01*
X134093694Y-103649597D01*
X133926602Y-103482506D01*
X133926595Y-103482501D01*
X133733034Y-103346967D01*
X133733030Y-103346965D01*
X133733028Y-103346964D01*
X133518863Y-103247097D01*
X133518859Y-103247096D01*
X133518855Y-103247094D01*
X133290613Y-103185938D01*
X133290603Y-103185936D01*
X133055201Y-103165341D01*
X133055199Y-103165341D01*
X132819796Y-103185936D01*
X132819786Y-103185938D01*
X132591544Y-103247094D01*
X132591535Y-103247098D01*
X132377371Y-103346964D01*
X132377369Y-103346965D01*
X132183797Y-103482505D01*
X132016708Y-103649594D01*
X131886774Y-103835159D01*
X131832197Y-103878784D01*
X131762698Y-103885976D01*
X131700344Y-103854454D01*
X131683624Y-103835158D01*
X131553694Y-103649597D01*
X131386602Y-103482506D01*
X131386595Y-103482501D01*
X131193034Y-103346967D01*
X131193030Y-103346965D01*
X131193028Y-103346964D01*
X130978863Y-103247097D01*
X130978859Y-103247096D01*
X130978855Y-103247094D01*
X130750613Y-103185938D01*
X130750603Y-103185936D01*
X130515201Y-103165341D01*
X130515199Y-103165341D01*
X130279796Y-103185936D01*
X130279786Y-103185938D01*
X130051544Y-103247094D01*
X130051535Y-103247098D01*
X129837371Y-103346964D01*
X129837369Y-103346965D01*
X129643797Y-103482505D01*
X129476705Y-103649597D01*
X129346775Y-103835158D01*
X129292198Y-103878783D01*
X129222700Y-103885977D01*
X129160345Y-103854454D01*
X129143625Y-103835158D01*
X129013694Y-103649597D01*
X128846602Y-103482506D01*
X128846595Y-103482501D01*
X128653034Y-103346967D01*
X128653030Y-103346965D01*
X128653028Y-103346964D01*
X128438863Y-103247097D01*
X128438859Y-103247096D01*
X128438855Y-103247094D01*
X128210613Y-103185938D01*
X128210603Y-103185936D01*
X127975201Y-103165341D01*
X127975199Y-103165341D01*
X127739796Y-103185936D01*
X127739786Y-103185938D01*
X127511544Y-103247094D01*
X127511535Y-103247098D01*
X127297371Y-103346964D01*
X127297369Y-103346965D01*
X127103797Y-103482505D01*
X126936705Y-103649597D01*
X126806775Y-103835158D01*
X126752198Y-103878783D01*
X126682700Y-103885977D01*
X126620345Y-103854454D01*
X126603625Y-103835158D01*
X126473694Y-103649597D01*
X126306602Y-103482506D01*
X126306595Y-103482501D01*
X126113034Y-103346967D01*
X126113030Y-103346965D01*
X126113028Y-103346964D01*
X125898863Y-103247097D01*
X125898859Y-103247096D01*
X125898855Y-103247094D01*
X125670613Y-103185938D01*
X125670603Y-103185936D01*
X125435201Y-103165341D01*
X125435199Y-103165341D01*
X125199796Y-103185936D01*
X125199786Y-103185938D01*
X124971544Y-103247094D01*
X124971535Y-103247098D01*
X124757371Y-103346964D01*
X124757369Y-103346965D01*
X124563797Y-103482505D01*
X124396705Y-103649597D01*
X124266775Y-103835158D01*
X124212198Y-103878783D01*
X124142700Y-103885977D01*
X124080345Y-103854454D01*
X124063625Y-103835158D01*
X123933694Y-103649597D01*
X123766602Y-103482506D01*
X123766595Y-103482501D01*
X123573034Y-103346967D01*
X123573030Y-103346965D01*
X123573028Y-103346964D01*
X123358863Y-103247097D01*
X123358859Y-103247096D01*
X123358855Y-103247094D01*
X123130613Y-103185938D01*
X123130603Y-103185936D01*
X122895201Y-103165341D01*
X122895199Y-103165341D01*
X122659796Y-103185936D01*
X122659786Y-103185938D01*
X122431544Y-103247094D01*
X122431535Y-103247098D01*
X122217371Y-103346964D01*
X122217369Y-103346965D01*
X122023797Y-103482505D01*
X121856705Y-103649597D01*
X121726775Y-103835158D01*
X121672198Y-103878783D01*
X121602700Y-103885977D01*
X121540345Y-103854454D01*
X121523625Y-103835158D01*
X121393694Y-103649597D01*
X121226602Y-103482506D01*
X121226595Y-103482501D01*
X121033034Y-103346967D01*
X121033030Y-103346965D01*
X121033028Y-103346964D01*
X120818863Y-103247097D01*
X120818859Y-103247096D01*
X120818855Y-103247094D01*
X120590613Y-103185938D01*
X120590603Y-103185936D01*
X120355201Y-103165341D01*
X120355199Y-103165341D01*
X120119796Y-103185936D01*
X120119786Y-103185938D01*
X119891544Y-103247094D01*
X119891535Y-103247098D01*
X119677371Y-103346964D01*
X119677369Y-103346965D01*
X119483797Y-103482505D01*
X119316708Y-103649594D01*
X119186774Y-103835159D01*
X119132197Y-103878784D01*
X119062698Y-103885976D01*
X119000344Y-103854454D01*
X118983624Y-103835158D01*
X118853694Y-103649597D01*
X118686602Y-103482506D01*
X118686595Y-103482501D01*
X118493034Y-103346967D01*
X118493030Y-103346965D01*
X118493028Y-103346964D01*
X118278863Y-103247097D01*
X118278859Y-103247096D01*
X118278855Y-103247094D01*
X118050613Y-103185938D01*
X118050603Y-103185936D01*
X117815201Y-103165341D01*
X117815199Y-103165341D01*
X117579796Y-103185936D01*
X117579786Y-103185938D01*
X117351544Y-103247094D01*
X117351535Y-103247098D01*
X117137371Y-103346964D01*
X117137369Y-103346965D01*
X116943797Y-103482505D01*
X116776705Y-103649597D01*
X116641165Y-103843169D01*
X116641164Y-103843171D01*
X116541298Y-104057335D01*
X116541294Y-104057344D01*
X116480138Y-104285586D01*
X116480136Y-104285596D01*
X116459541Y-104520999D01*
X116459541Y-104521000D01*
X111200499Y-104521000D01*
X111200499Y-100070000D01*
X126594341Y-100070000D01*
X126614936Y-100305403D01*
X126614938Y-100305413D01*
X126676094Y-100533655D01*
X126676096Y-100533659D01*
X126676097Y-100533663D01*
X126690087Y-100563664D01*
X126775965Y-100747830D01*
X126775967Y-100747834D01*
X126802581Y-100785842D01*
X126911505Y-100941401D01*
X127078599Y-101108495D01*
X127121448Y-101138498D01*
X127272165Y-101244032D01*
X127272167Y-101244033D01*
X127272170Y-101244035D01*
X127486337Y-101343903D01*
X127714592Y-101405063D01*
X127902918Y-101421539D01*
X127949999Y-101425659D01*
X127950000Y-101425659D01*
X127950001Y-101425659D01*
X127989234Y-101422226D01*
X128185408Y-101405063D01*
X128413663Y-101343903D01*
X128627830Y-101244035D01*
X128821401Y-101108495D01*
X128988495Y-100941401D01*
X129118424Y-100755842D01*
X129173002Y-100712217D01*
X129242500Y-100705023D01*
X129304855Y-100736546D01*
X129321575Y-100755842D01*
X129451500Y-100941395D01*
X129451505Y-100941401D01*
X129618599Y-101108495D01*
X129661448Y-101138498D01*
X129812165Y-101244032D01*
X129812167Y-101244033D01*
X129812170Y-101244035D01*
X130026337Y-101343903D01*
X130254592Y-101405063D01*
X130442918Y-101421539D01*
X130489999Y-101425659D01*
X130490000Y-101425659D01*
X130490001Y-101425659D01*
X130529234Y-101422226D01*
X130725408Y-101405063D01*
X130953663Y-101343903D01*
X131167830Y-101244035D01*
X131361401Y-101108495D01*
X131528495Y-100941401D01*
X131658424Y-100755842D01*
X131713002Y-100712217D01*
X131782500Y-100705023D01*
X131844855Y-100736546D01*
X131861575Y-100755842D01*
X131991500Y-100941395D01*
X131991505Y-100941401D01*
X132158599Y-101108495D01*
X132201448Y-101138498D01*
X132352165Y-101244032D01*
X132352167Y-101244033D01*
X132352170Y-101244035D01*
X132566337Y-101343903D01*
X132794592Y-101405063D01*
X132982918Y-101421539D01*
X133029999Y-101425659D01*
X133030000Y-101425659D01*
X133030001Y-101425659D01*
X133069234Y-101422226D01*
X133265408Y-101405063D01*
X133493663Y-101343903D01*
X133707830Y-101244035D01*
X133901401Y-101108495D01*
X134068495Y-100941401D01*
X134204035Y-100747830D01*
X134303903Y-100533663D01*
X134365063Y-100305408D01*
X134383034Y-100100000D01*
X143144341Y-100100000D01*
X143164936Y-100335403D01*
X143164938Y-100335413D01*
X143226094Y-100563655D01*
X143226096Y-100563659D01*
X143226097Y-100563663D01*
X143295369Y-100712217D01*
X143325965Y-100777830D01*
X143325967Y-100777834D01*
X143434281Y-100932521D01*
X143461505Y-100971401D01*
X143628599Y-101138495D01*
X143725384Y-101206265D01*
X143822165Y-101274032D01*
X143822167Y-101274033D01*
X143822170Y-101274035D01*
X144036337Y-101373903D01*
X144264592Y-101435063D01*
X144452918Y-101451539D01*
X144499999Y-101455659D01*
X144500000Y-101455659D01*
X144500001Y-101455659D01*
X144539234Y-101452226D01*
X144735408Y-101435063D01*
X144963663Y-101373903D01*
X145177830Y-101274035D01*
X145371401Y-101138495D01*
X145538495Y-100971401D01*
X145668424Y-100785842D01*
X145723002Y-100742217D01*
X145792500Y-100735023D01*
X145854855Y-100766546D01*
X145871575Y-100785842D01*
X146001500Y-100971395D01*
X146001505Y-100971401D01*
X146168599Y-101138495D01*
X146265384Y-101206265D01*
X146362165Y-101274032D01*
X146362167Y-101274033D01*
X146362170Y-101274035D01*
X146576337Y-101373903D01*
X146804592Y-101435063D01*
X146992918Y-101451539D01*
X147039999Y-101455659D01*
X147040000Y-101455659D01*
X147040001Y-101455659D01*
X147079234Y-101452226D01*
X147275408Y-101435063D01*
X147503663Y-101373903D01*
X147717830Y-101274035D01*
X147911401Y-101138495D01*
X148078495Y-100971401D01*
X148208424Y-100785842D01*
X148263002Y-100742217D01*
X148332500Y-100735023D01*
X148394855Y-100766546D01*
X148411575Y-100785842D01*
X148541500Y-100971395D01*
X148541505Y-100971401D01*
X148708599Y-101138495D01*
X148805384Y-101206265D01*
X148902165Y-101274032D01*
X148902167Y-101274033D01*
X148902170Y-101274035D01*
X149116337Y-101373903D01*
X149344592Y-101435063D01*
X149532918Y-101451539D01*
X149579999Y-101455659D01*
X149580000Y-101455659D01*
X149580001Y-101455659D01*
X149619234Y-101452226D01*
X149815408Y-101435063D01*
X150043663Y-101373903D01*
X150257830Y-101274035D01*
X150451401Y-101138495D01*
X150618495Y-100971401D01*
X150754035Y-100777830D01*
X150853903Y-100563663D01*
X150915063Y-100335408D01*
X150935659Y-100100000D01*
X150915063Y-99864592D01*
X150853903Y-99636337D01*
X150754035Y-99422171D01*
X150748425Y-99414158D01*
X150618494Y-99228597D01*
X150451402Y-99061506D01*
X150451395Y-99061501D01*
X150257834Y-98925967D01*
X150257830Y-98925965D01*
X150193495Y-98895965D01*
X150043663Y-98826097D01*
X150043659Y-98826096D01*
X150043655Y-98826094D01*
X149815413Y-98764938D01*
X149815403Y-98764936D01*
X149580001Y-98744341D01*
X149579999Y-98744341D01*
X149344596Y-98764936D01*
X149344586Y-98764938D01*
X149116344Y-98826094D01*
X149116335Y-98826098D01*
X148902171Y-98925964D01*
X148902169Y-98925965D01*
X148708597Y-99061505D01*
X148541505Y-99228597D01*
X148411575Y-99414158D01*
X148356998Y-99457783D01*
X148287500Y-99464977D01*
X148225145Y-99433454D01*
X148208425Y-99414158D01*
X148078494Y-99228597D01*
X147911402Y-99061506D01*
X147911395Y-99061501D01*
X147717834Y-98925967D01*
X147717830Y-98925965D01*
X147653495Y-98895965D01*
X147503663Y-98826097D01*
X147503659Y-98826096D01*
X147503655Y-98826094D01*
X147275413Y-98764938D01*
X147275403Y-98764936D01*
X147040001Y-98744341D01*
X147039999Y-98744341D01*
X146804596Y-98764936D01*
X146804586Y-98764938D01*
X146576344Y-98826094D01*
X146576335Y-98826098D01*
X146362171Y-98925964D01*
X146362169Y-98925965D01*
X146168597Y-99061505D01*
X146001505Y-99228597D01*
X145871575Y-99414158D01*
X145816998Y-99457783D01*
X145747500Y-99464977D01*
X145685145Y-99433454D01*
X145668425Y-99414158D01*
X145538494Y-99228597D01*
X145371402Y-99061506D01*
X145371395Y-99061501D01*
X145177834Y-98925967D01*
X145177830Y-98925965D01*
X145113495Y-98895965D01*
X144963663Y-98826097D01*
X144963659Y-98826096D01*
X144963655Y-98826094D01*
X144735413Y-98764938D01*
X144735403Y-98764936D01*
X144500001Y-98744341D01*
X144499999Y-98744341D01*
X144264596Y-98764936D01*
X144264586Y-98764938D01*
X144036344Y-98826094D01*
X144036335Y-98826098D01*
X143822171Y-98925964D01*
X143822169Y-98925965D01*
X143628597Y-99061505D01*
X143461505Y-99228597D01*
X143325965Y-99422169D01*
X143325964Y-99422171D01*
X143226098Y-99636335D01*
X143226094Y-99636344D01*
X143164938Y-99864586D01*
X143164936Y-99864596D01*
X143144341Y-100099999D01*
X143144341Y-100100000D01*
X134383034Y-100100000D01*
X134385659Y-100070000D01*
X134365063Y-99834592D01*
X134303903Y-99606337D01*
X134204035Y-99392171D01*
X134198425Y-99384158D01*
X134068494Y-99198597D01*
X133901402Y-99031506D01*
X133901395Y-99031501D01*
X133707834Y-98895967D01*
X133707830Y-98895965D01*
X133681959Y-98883901D01*
X133493663Y-98796097D01*
X133493659Y-98796096D01*
X133493655Y-98796094D01*
X133265413Y-98734938D01*
X133265403Y-98734936D01*
X133030001Y-98714341D01*
X133029999Y-98714341D01*
X132794596Y-98734936D01*
X132794586Y-98734938D01*
X132566344Y-98796094D01*
X132566335Y-98796098D01*
X132352171Y-98895964D01*
X132352169Y-98895965D01*
X132158597Y-99031505D01*
X131991508Y-99198594D01*
X131861574Y-99384159D01*
X131806997Y-99427784D01*
X131737498Y-99434976D01*
X131675144Y-99403454D01*
X131658424Y-99384158D01*
X131528494Y-99198597D01*
X131361402Y-99031506D01*
X131361395Y-99031501D01*
X131167834Y-98895967D01*
X131167830Y-98895965D01*
X131141959Y-98883901D01*
X130953663Y-98796097D01*
X130953659Y-98796096D01*
X130953655Y-98796094D01*
X130725413Y-98734938D01*
X130725403Y-98734936D01*
X130490001Y-98714341D01*
X130489999Y-98714341D01*
X130254596Y-98734936D01*
X130254586Y-98734938D01*
X130026344Y-98796094D01*
X130026335Y-98796098D01*
X129812171Y-98895964D01*
X129812169Y-98895965D01*
X129618597Y-99031505D01*
X129451508Y-99198594D01*
X129321574Y-99384160D01*
X129266997Y-99427784D01*
X129197498Y-99434977D01*
X129135144Y-99403455D01*
X129118429Y-99384164D01*
X128988495Y-99198599D01*
X128988493Y-99198596D01*
X128821402Y-99031506D01*
X128821395Y-99031501D01*
X128627834Y-98895967D01*
X128627830Y-98895965D01*
X128601959Y-98883901D01*
X128413663Y-98796097D01*
X128413659Y-98796096D01*
X128413655Y-98796094D01*
X128185413Y-98734938D01*
X128185403Y-98734936D01*
X127950001Y-98714341D01*
X127949999Y-98714341D01*
X127714596Y-98734936D01*
X127714586Y-98734938D01*
X127486344Y-98796094D01*
X127486335Y-98796098D01*
X127272171Y-98895964D01*
X127272169Y-98895965D01*
X127078597Y-99031505D01*
X126911505Y-99198597D01*
X126775965Y-99392169D01*
X126775964Y-99392171D01*
X126676098Y-99606335D01*
X126676094Y-99606344D01*
X126614938Y-99834586D01*
X126614936Y-99834596D01*
X126594341Y-100069999D01*
X126594341Y-100070000D01*
X111200499Y-100070000D01*
X111200499Y-97610000D01*
X154644341Y-97610000D01*
X154664936Y-97845403D01*
X154664938Y-97845413D01*
X154726094Y-98073655D01*
X154726096Y-98073659D01*
X154726097Y-98073663D01*
X154825965Y-98287829D01*
X154825965Y-98287830D01*
X154825967Y-98287834D01*
X154934281Y-98442521D01*
X154961505Y-98481401D01*
X155128599Y-98648495D01*
X155222637Y-98714341D01*
X155322165Y-98784032D01*
X155322167Y-98784033D01*
X155322170Y-98784035D01*
X155536337Y-98883903D01*
X155536343Y-98883904D01*
X155536344Y-98883905D01*
X155581361Y-98895967D01*
X155764592Y-98945063D01*
X155952918Y-98961539D01*
X155999999Y-98965659D01*
X156000000Y-98965659D01*
X156000001Y-98965659D01*
X156039234Y-98962226D01*
X156235408Y-98945063D01*
X156463663Y-98883903D01*
X156677830Y-98784035D01*
X156871401Y-98648495D01*
X157038495Y-98481401D01*
X157174035Y-98287830D01*
X157273903Y-98073663D01*
X157335063Y-97845408D01*
X157355659Y-97610000D01*
X157335063Y-97374592D01*
X157273903Y-97146337D01*
X157174035Y-96932171D01*
X157038495Y-96738599D01*
X157038494Y-96738597D01*
X156871402Y-96571506D01*
X156871396Y-96571501D01*
X156685842Y-96441575D01*
X156642217Y-96386998D01*
X156635023Y-96317500D01*
X156666546Y-96255145D01*
X156685842Y-96238425D01*
X156708026Y-96222891D01*
X156871401Y-96108495D01*
X157038495Y-95941401D01*
X157174035Y-95747830D01*
X157273903Y-95533663D01*
X157335063Y-95305408D01*
X157355659Y-95070000D01*
X157335063Y-94834592D01*
X157273903Y-94606337D01*
X157174035Y-94392171D01*
X157146746Y-94353197D01*
X157038494Y-94198597D01*
X156871402Y-94031506D01*
X156871395Y-94031501D01*
X156677834Y-93895967D01*
X156677830Y-93895965D01*
X156619877Y-93868941D01*
X156463663Y-93796097D01*
X156463659Y-93796096D01*
X156463655Y-93796094D01*
X156235413Y-93734938D01*
X156235403Y-93734936D01*
X156000001Y-93714341D01*
X155999999Y-93714341D01*
X155764596Y-93734936D01*
X155764586Y-93734938D01*
X155536344Y-93796094D01*
X155536335Y-93796098D01*
X155322171Y-93895964D01*
X155322169Y-93895965D01*
X155128597Y-94031505D01*
X154961505Y-94198597D01*
X154825965Y-94392169D01*
X154825964Y-94392171D01*
X154726098Y-94606335D01*
X154726094Y-94606344D01*
X154664938Y-94834586D01*
X154664936Y-94834596D01*
X154644341Y-95069999D01*
X154644341Y-95070000D01*
X154664936Y-95305403D01*
X154664938Y-95305413D01*
X154726094Y-95533655D01*
X154726096Y-95533659D01*
X154726097Y-95533663D01*
X154798189Y-95688264D01*
X154825965Y-95747830D01*
X154825967Y-95747834D01*
X154961501Y-95941395D01*
X154961506Y-95941402D01*
X155128597Y-96108493D01*
X155128603Y-96108498D01*
X155314158Y-96238425D01*
X155357783Y-96293002D01*
X155364977Y-96362500D01*
X155333454Y-96424855D01*
X155314158Y-96441575D01*
X155128597Y-96571505D01*
X154961505Y-96738597D01*
X154825965Y-96932169D01*
X154825964Y-96932171D01*
X154726098Y-97146335D01*
X154726094Y-97146344D01*
X154664938Y-97374586D01*
X154664936Y-97374596D01*
X154644341Y-97609999D01*
X154644341Y-97610000D01*
X111200499Y-97610000D01*
X111200499Y-95224600D01*
X119074341Y-95224600D01*
X119094936Y-95460003D01*
X119094938Y-95460013D01*
X119156094Y-95688255D01*
X119156096Y-95688259D01*
X119156097Y-95688263D01*
X119236004Y-95859623D01*
X119255965Y-95902430D01*
X119255967Y-95902434D01*
X119364281Y-96057121D01*
X119391505Y-96096001D01*
X119558599Y-96263095D01*
X119601311Y-96293002D01*
X119752165Y-96398632D01*
X119752167Y-96398633D01*
X119752170Y-96398635D01*
X119966337Y-96498503D01*
X120194592Y-96559663D01*
X120382918Y-96576139D01*
X120429999Y-96580259D01*
X120430000Y-96580259D01*
X120430001Y-96580259D01*
X120469234Y-96576826D01*
X120665408Y-96559663D01*
X120893663Y-96498503D01*
X121107830Y-96398635D01*
X121301401Y-96263095D01*
X121468495Y-96096001D01*
X121604035Y-95902430D01*
X121703903Y-95688263D01*
X121765063Y-95460008D01*
X121785659Y-95224600D01*
X124154341Y-95224600D01*
X124174936Y-95460003D01*
X124174938Y-95460013D01*
X124236094Y-95688255D01*
X124236096Y-95688259D01*
X124236097Y-95688263D01*
X124316004Y-95859623D01*
X124335965Y-95902430D01*
X124335967Y-95902434D01*
X124444281Y-96057121D01*
X124471505Y-96096001D01*
X124638599Y-96263095D01*
X124681311Y-96293002D01*
X124832165Y-96398632D01*
X124832167Y-96398633D01*
X124832170Y-96398635D01*
X125046337Y-96498503D01*
X125274592Y-96559663D01*
X125462918Y-96576139D01*
X125509999Y-96580259D01*
X125510000Y-96580259D01*
X125510001Y-96580259D01*
X125549234Y-96576826D01*
X125745408Y-96559663D01*
X125973663Y-96498503D01*
X126187830Y-96398635D01*
X126381401Y-96263095D01*
X126548495Y-96096001D01*
X126678424Y-95910442D01*
X126733002Y-95866817D01*
X126802500Y-95859623D01*
X126864855Y-95891146D01*
X126881575Y-95910442D01*
X127011500Y-96095995D01*
X127011505Y-96096001D01*
X127178599Y-96263095D01*
X127221311Y-96293002D01*
X127372165Y-96398632D01*
X127372167Y-96398633D01*
X127372170Y-96398635D01*
X127586337Y-96498503D01*
X127814592Y-96559663D01*
X128002918Y-96576139D01*
X128049999Y-96580259D01*
X128050000Y-96580259D01*
X128050001Y-96580259D01*
X128089234Y-96576826D01*
X128285408Y-96559663D01*
X128513663Y-96498503D01*
X128727830Y-96398635D01*
X128921401Y-96263095D01*
X129088495Y-96096001D01*
X129218424Y-95910442D01*
X129273002Y-95866817D01*
X129342500Y-95859623D01*
X129404855Y-95891146D01*
X129421575Y-95910442D01*
X129551500Y-96095995D01*
X129551505Y-96096001D01*
X129718599Y-96263095D01*
X129761311Y-96293002D01*
X129912165Y-96398632D01*
X129912167Y-96398633D01*
X129912170Y-96398635D01*
X130126337Y-96498503D01*
X130354592Y-96559663D01*
X130542918Y-96576139D01*
X130589999Y-96580259D01*
X130590000Y-96580259D01*
X130590001Y-96580259D01*
X130629234Y-96576826D01*
X130825408Y-96559663D01*
X131053663Y-96498503D01*
X131267830Y-96398635D01*
X131461401Y-96263095D01*
X131628495Y-96096001D01*
X131764035Y-95902430D01*
X131863903Y-95688263D01*
X131925063Y-95460008D01*
X131945659Y-95224600D01*
X135524341Y-95224600D01*
X135544936Y-95460003D01*
X135544938Y-95460013D01*
X135606094Y-95688255D01*
X135606096Y-95688259D01*
X135606097Y-95688263D01*
X135686004Y-95859623D01*
X135705965Y-95902430D01*
X135705967Y-95902434D01*
X135814281Y-96057121D01*
X135841505Y-96096001D01*
X136008599Y-96263095D01*
X136051311Y-96293002D01*
X136202165Y-96398632D01*
X136202167Y-96398633D01*
X136202170Y-96398635D01*
X136416337Y-96498503D01*
X136644592Y-96559663D01*
X136832918Y-96576139D01*
X136879999Y-96580259D01*
X136880000Y-96580259D01*
X136880001Y-96580259D01*
X136919234Y-96576826D01*
X137115408Y-96559663D01*
X137343663Y-96498503D01*
X137557830Y-96398635D01*
X137751401Y-96263095D01*
X137918495Y-96096001D01*
X138054035Y-95902430D01*
X138153903Y-95688263D01*
X138215063Y-95460008D01*
X138235659Y-95224600D01*
X140604341Y-95224600D01*
X140624936Y-95460003D01*
X140624938Y-95460013D01*
X140686094Y-95688255D01*
X140686096Y-95688259D01*
X140686097Y-95688263D01*
X140766004Y-95859623D01*
X140785965Y-95902430D01*
X140785967Y-95902434D01*
X140894281Y-96057121D01*
X140921505Y-96096001D01*
X141088599Y-96263095D01*
X141131311Y-96293002D01*
X141282165Y-96398632D01*
X141282167Y-96398633D01*
X141282170Y-96398635D01*
X141496337Y-96498503D01*
X141724592Y-96559663D01*
X141912918Y-96576139D01*
X141959999Y-96580259D01*
X141960000Y-96580259D01*
X141960001Y-96580259D01*
X141999234Y-96576826D01*
X142195408Y-96559663D01*
X142423663Y-96498503D01*
X142637830Y-96398635D01*
X142831401Y-96263095D01*
X142998495Y-96096001D01*
X143128424Y-95910442D01*
X143183002Y-95866817D01*
X143252500Y-95859623D01*
X143314855Y-95891146D01*
X143331575Y-95910442D01*
X143461500Y-96095995D01*
X143461505Y-96096001D01*
X143628599Y-96263095D01*
X143671311Y-96293002D01*
X143822165Y-96398632D01*
X143822167Y-96398633D01*
X143822170Y-96398635D01*
X144036337Y-96498503D01*
X144264592Y-96559663D01*
X144452918Y-96576139D01*
X144499999Y-96580259D01*
X144500000Y-96580259D01*
X144500001Y-96580259D01*
X144539234Y-96576826D01*
X144735408Y-96559663D01*
X144963663Y-96498503D01*
X145177830Y-96398635D01*
X145371401Y-96263095D01*
X145538495Y-96096001D01*
X145668424Y-95910442D01*
X145723002Y-95866817D01*
X145792500Y-95859623D01*
X145854855Y-95891146D01*
X145871575Y-95910442D01*
X146001500Y-96095995D01*
X146001505Y-96096001D01*
X146168599Y-96263095D01*
X146211311Y-96293002D01*
X146362165Y-96398632D01*
X146362167Y-96398633D01*
X146362170Y-96398635D01*
X146576337Y-96498503D01*
X146804592Y-96559663D01*
X146992918Y-96576139D01*
X147039999Y-96580259D01*
X147040000Y-96580259D01*
X147040001Y-96580259D01*
X147079234Y-96576826D01*
X147275408Y-96559663D01*
X147503663Y-96498503D01*
X147717830Y-96398635D01*
X147911401Y-96263095D01*
X148078495Y-96096001D01*
X148214035Y-95902430D01*
X148313903Y-95688263D01*
X148375063Y-95460008D01*
X148395659Y-95224600D01*
X148375063Y-94989192D01*
X148313903Y-94760937D01*
X148214035Y-94546771D01*
X148208425Y-94538758D01*
X148078494Y-94353197D01*
X147911402Y-94186106D01*
X147911395Y-94186101D01*
X147717834Y-94050567D01*
X147717830Y-94050565D01*
X147676947Y-94031501D01*
X147503663Y-93950697D01*
X147503659Y-93950696D01*
X147503655Y-93950694D01*
X147275413Y-93889538D01*
X147275403Y-93889536D01*
X147040001Y-93868941D01*
X147039999Y-93868941D01*
X146804596Y-93889536D01*
X146804586Y-93889538D01*
X146576344Y-93950694D01*
X146576335Y-93950698D01*
X146362171Y-94050564D01*
X146362169Y-94050565D01*
X146168597Y-94186105D01*
X146001505Y-94353197D01*
X145871575Y-94538758D01*
X145816998Y-94582383D01*
X145747500Y-94589577D01*
X145685145Y-94558054D01*
X145668425Y-94538758D01*
X145538494Y-94353197D01*
X145371402Y-94186106D01*
X145371395Y-94186101D01*
X145177834Y-94050567D01*
X145177830Y-94050565D01*
X145136947Y-94031501D01*
X144963663Y-93950697D01*
X144963659Y-93950696D01*
X144963655Y-93950694D01*
X144735413Y-93889538D01*
X144735403Y-93889536D01*
X144500001Y-93868941D01*
X144499999Y-93868941D01*
X144264596Y-93889536D01*
X144264586Y-93889538D01*
X144036344Y-93950694D01*
X144036335Y-93950698D01*
X143822171Y-94050564D01*
X143822169Y-94050565D01*
X143628597Y-94186105D01*
X143461505Y-94353197D01*
X143331575Y-94538758D01*
X143276998Y-94582383D01*
X143207500Y-94589577D01*
X143145145Y-94558054D01*
X143128425Y-94538758D01*
X142998494Y-94353197D01*
X142831402Y-94186106D01*
X142831395Y-94186101D01*
X142637834Y-94050567D01*
X142637830Y-94050565D01*
X142596947Y-94031501D01*
X142423663Y-93950697D01*
X142423659Y-93950696D01*
X142423655Y-93950694D01*
X142195413Y-93889538D01*
X142195403Y-93889536D01*
X141960001Y-93868941D01*
X141959999Y-93868941D01*
X141724596Y-93889536D01*
X141724586Y-93889538D01*
X141496344Y-93950694D01*
X141496335Y-93950698D01*
X141282171Y-94050564D01*
X141282169Y-94050565D01*
X141088597Y-94186105D01*
X140921505Y-94353197D01*
X140785965Y-94546769D01*
X140785964Y-94546771D01*
X140686098Y-94760935D01*
X140686094Y-94760944D01*
X140624938Y-94989186D01*
X140624936Y-94989196D01*
X140604341Y-95224599D01*
X140604341Y-95224600D01*
X138235659Y-95224600D01*
X138215063Y-94989192D01*
X138153903Y-94760937D01*
X138054035Y-94546771D01*
X138048425Y-94538758D01*
X137918494Y-94353197D01*
X137751402Y-94186106D01*
X137751395Y-94186101D01*
X137557834Y-94050567D01*
X137557830Y-94050565D01*
X137516947Y-94031501D01*
X137343663Y-93950697D01*
X137343659Y-93950696D01*
X137343655Y-93950694D01*
X137115413Y-93889538D01*
X137115403Y-93889536D01*
X136880001Y-93868941D01*
X136879999Y-93868941D01*
X136644596Y-93889536D01*
X136644586Y-93889538D01*
X136416344Y-93950694D01*
X136416335Y-93950698D01*
X136202171Y-94050564D01*
X136202169Y-94050565D01*
X136008597Y-94186105D01*
X135841505Y-94353197D01*
X135705965Y-94546769D01*
X135705964Y-94546771D01*
X135606098Y-94760935D01*
X135606094Y-94760944D01*
X135544938Y-94989186D01*
X135544936Y-94989196D01*
X135524341Y-95224599D01*
X135524341Y-95224600D01*
X131945659Y-95224600D01*
X131925063Y-94989192D01*
X131863903Y-94760937D01*
X131764035Y-94546771D01*
X131758425Y-94538758D01*
X131628494Y-94353197D01*
X131461402Y-94186106D01*
X131461395Y-94186101D01*
X131267834Y-94050567D01*
X131267830Y-94050565D01*
X131226947Y-94031501D01*
X131053663Y-93950697D01*
X131053659Y-93950696D01*
X131053655Y-93950694D01*
X130825413Y-93889538D01*
X130825403Y-93889536D01*
X130590001Y-93868941D01*
X130589999Y-93868941D01*
X130354596Y-93889536D01*
X130354586Y-93889538D01*
X130126344Y-93950694D01*
X130126335Y-93950698D01*
X129912171Y-94050564D01*
X129912169Y-94050565D01*
X129718597Y-94186105D01*
X129551505Y-94353197D01*
X129421575Y-94538758D01*
X129366998Y-94582383D01*
X129297500Y-94589577D01*
X129235145Y-94558054D01*
X129218425Y-94538758D01*
X129088494Y-94353197D01*
X128921402Y-94186106D01*
X128921395Y-94186101D01*
X128727834Y-94050567D01*
X128727830Y-94050565D01*
X128686947Y-94031501D01*
X128513663Y-93950697D01*
X128513659Y-93950696D01*
X128513655Y-93950694D01*
X128285413Y-93889538D01*
X128285403Y-93889536D01*
X128050001Y-93868941D01*
X128049999Y-93868941D01*
X127814596Y-93889536D01*
X127814586Y-93889538D01*
X127586344Y-93950694D01*
X127586335Y-93950698D01*
X127372171Y-94050564D01*
X127372169Y-94050565D01*
X127178597Y-94186105D01*
X127011508Y-94353194D01*
X126881574Y-94538760D01*
X126826997Y-94582384D01*
X126757498Y-94589577D01*
X126695144Y-94558055D01*
X126678429Y-94538764D01*
X126548495Y-94353199D01*
X126548493Y-94353196D01*
X126381402Y-94186106D01*
X126381395Y-94186101D01*
X126187834Y-94050567D01*
X126187830Y-94050565D01*
X126146947Y-94031501D01*
X125973663Y-93950697D01*
X125973659Y-93950696D01*
X125973655Y-93950694D01*
X125745413Y-93889538D01*
X125745403Y-93889536D01*
X125510001Y-93868941D01*
X125509999Y-93868941D01*
X125274596Y-93889536D01*
X125274586Y-93889538D01*
X125046344Y-93950694D01*
X125046335Y-93950698D01*
X124832171Y-94050564D01*
X124832169Y-94050565D01*
X124638597Y-94186105D01*
X124471505Y-94353197D01*
X124335965Y-94546769D01*
X124335964Y-94546771D01*
X124236098Y-94760935D01*
X124236094Y-94760944D01*
X124174938Y-94989186D01*
X124174936Y-94989196D01*
X124154341Y-95224599D01*
X124154341Y-95224600D01*
X121785659Y-95224600D01*
X121765063Y-94989192D01*
X121703903Y-94760937D01*
X121604035Y-94546771D01*
X121598425Y-94538758D01*
X121468494Y-94353197D01*
X121301402Y-94186106D01*
X121301395Y-94186101D01*
X121107834Y-94050567D01*
X121107830Y-94050565D01*
X121066947Y-94031501D01*
X120893663Y-93950697D01*
X120893659Y-93950696D01*
X120893655Y-93950694D01*
X120665413Y-93889538D01*
X120665403Y-93889536D01*
X120430001Y-93868941D01*
X120429999Y-93868941D01*
X120194596Y-93889536D01*
X120194586Y-93889538D01*
X119966344Y-93950694D01*
X119966335Y-93950698D01*
X119752171Y-94050564D01*
X119752169Y-94050565D01*
X119558597Y-94186105D01*
X119391505Y-94353197D01*
X119255965Y-94546769D01*
X119255964Y-94546771D01*
X119156098Y-94760935D01*
X119156094Y-94760944D01*
X119094938Y-94989186D01*
X119094936Y-94989196D01*
X119074341Y-95224599D01*
X119074341Y-95224600D01*
X111200499Y-95224600D01*
X111200499Y-89281000D01*
X113919541Y-89281000D01*
X113940136Y-89516403D01*
X113940138Y-89516413D01*
X114001294Y-89744655D01*
X114001296Y-89744659D01*
X114001297Y-89744663D01*
X114005200Y-89753032D01*
X114101165Y-89958830D01*
X114101167Y-89958834D01*
X114209481Y-90113521D01*
X114236705Y-90152401D01*
X114403799Y-90319495D01*
X114500584Y-90387265D01*
X114597365Y-90455032D01*
X114597367Y-90455033D01*
X114597370Y-90455035D01*
X114811537Y-90554903D01*
X115039792Y-90616063D01*
X115228118Y-90632539D01*
X115275199Y-90636659D01*
X115275200Y-90636659D01*
X115275201Y-90636659D01*
X115314434Y-90633226D01*
X115510608Y-90616063D01*
X115738863Y-90554903D01*
X115953030Y-90455035D01*
X116146601Y-90319495D01*
X116313695Y-90152401D01*
X116443624Y-89966842D01*
X116498202Y-89923217D01*
X116567700Y-89916023D01*
X116630055Y-89947546D01*
X116646775Y-89966842D01*
X116776700Y-90152395D01*
X116776705Y-90152401D01*
X116943799Y-90319495D01*
X117040584Y-90387265D01*
X117137365Y-90455032D01*
X117137367Y-90455033D01*
X117137370Y-90455035D01*
X117351537Y-90554903D01*
X117579792Y-90616063D01*
X117768118Y-90632539D01*
X117815199Y-90636659D01*
X117815200Y-90636659D01*
X117815201Y-90636659D01*
X117854434Y-90633226D01*
X118050608Y-90616063D01*
X118278863Y-90554903D01*
X118493030Y-90455035D01*
X118686601Y-90319495D01*
X118853695Y-90152401D01*
X118983624Y-89966842D01*
X119038202Y-89923217D01*
X119107700Y-89916023D01*
X119170055Y-89947546D01*
X119186775Y-89966842D01*
X119316700Y-90152395D01*
X119316705Y-90152401D01*
X119483799Y-90319495D01*
X119580584Y-90387265D01*
X119677365Y-90455032D01*
X119677367Y-90455033D01*
X119677370Y-90455035D01*
X119891537Y-90554903D01*
X120119792Y-90616063D01*
X120308118Y-90632539D01*
X120355199Y-90636659D01*
X120355200Y-90636659D01*
X120355201Y-90636659D01*
X120394434Y-90633226D01*
X120590608Y-90616063D01*
X120818863Y-90554903D01*
X121033030Y-90455035D01*
X121226601Y-90319495D01*
X121393695Y-90152401D01*
X121523624Y-89966842D01*
X121578202Y-89923217D01*
X121647700Y-89916023D01*
X121710055Y-89947546D01*
X121726775Y-89966842D01*
X121856700Y-90152395D01*
X121856705Y-90152401D01*
X122023799Y-90319495D01*
X122120584Y-90387265D01*
X122217365Y-90455032D01*
X122217367Y-90455033D01*
X122217370Y-90455035D01*
X122431537Y-90554903D01*
X122659792Y-90616063D01*
X122848118Y-90632539D01*
X122895199Y-90636659D01*
X122895200Y-90636659D01*
X122895201Y-90636659D01*
X122934434Y-90633226D01*
X123130608Y-90616063D01*
X123358863Y-90554903D01*
X123573030Y-90455035D01*
X123766601Y-90319495D01*
X123933695Y-90152401D01*
X124063624Y-89966842D01*
X124118202Y-89923217D01*
X124187700Y-89916023D01*
X124250055Y-89947546D01*
X124266775Y-89966842D01*
X124396700Y-90152395D01*
X124396705Y-90152401D01*
X124563799Y-90319495D01*
X124660584Y-90387265D01*
X124757365Y-90455032D01*
X124757367Y-90455033D01*
X124757370Y-90455035D01*
X124971537Y-90554903D01*
X125199792Y-90616063D01*
X125388118Y-90632539D01*
X125435199Y-90636659D01*
X125435200Y-90636659D01*
X125435201Y-90636659D01*
X125474434Y-90633226D01*
X125670608Y-90616063D01*
X125898863Y-90554903D01*
X126113030Y-90455035D01*
X126306601Y-90319495D01*
X126473695Y-90152401D01*
X126603624Y-89966842D01*
X126658202Y-89923217D01*
X126727700Y-89916023D01*
X126790055Y-89947546D01*
X126806775Y-89966842D01*
X126936700Y-90152395D01*
X126936705Y-90152401D01*
X127103799Y-90319495D01*
X127200584Y-90387265D01*
X127297365Y-90455032D01*
X127297367Y-90455033D01*
X127297370Y-90455035D01*
X127511537Y-90554903D01*
X127739792Y-90616063D01*
X127928118Y-90632539D01*
X127975199Y-90636659D01*
X127975200Y-90636659D01*
X127975201Y-90636659D01*
X128014434Y-90633226D01*
X128210608Y-90616063D01*
X128438863Y-90554903D01*
X128653030Y-90455035D01*
X128846601Y-90319495D01*
X129013695Y-90152401D01*
X129143624Y-89966842D01*
X129198202Y-89923217D01*
X129267700Y-89916023D01*
X129330055Y-89947546D01*
X129346775Y-89966842D01*
X129476700Y-90152395D01*
X129476705Y-90152401D01*
X129643799Y-90319495D01*
X129740584Y-90387265D01*
X129837365Y-90455032D01*
X129837367Y-90455033D01*
X129837370Y-90455035D01*
X130051537Y-90554903D01*
X130279792Y-90616063D01*
X130468118Y-90632539D01*
X130515199Y-90636659D01*
X130515200Y-90636659D01*
X130515201Y-90636659D01*
X130554434Y-90633226D01*
X130750608Y-90616063D01*
X130978863Y-90554903D01*
X131193030Y-90455035D01*
X131386601Y-90319495D01*
X131553695Y-90152401D01*
X131683624Y-89966842D01*
X131738202Y-89923217D01*
X131807700Y-89916023D01*
X131870055Y-89947546D01*
X131886775Y-89966842D01*
X132016700Y-90152395D01*
X132016705Y-90152401D01*
X132183799Y-90319495D01*
X132280584Y-90387265D01*
X132377365Y-90455032D01*
X132377367Y-90455033D01*
X132377370Y-90455035D01*
X132591537Y-90554903D01*
X132819792Y-90616063D01*
X133008118Y-90632539D01*
X133055199Y-90636659D01*
X133055200Y-90636659D01*
X133055201Y-90636659D01*
X133094434Y-90633226D01*
X133290608Y-90616063D01*
X133518863Y-90554903D01*
X133733030Y-90455035D01*
X133926601Y-90319495D01*
X134093695Y-90152401D01*
X134223624Y-89966842D01*
X134278202Y-89923217D01*
X134347700Y-89916023D01*
X134410055Y-89947546D01*
X134426775Y-89966842D01*
X134556700Y-90152395D01*
X134556705Y-90152401D01*
X134723799Y-90319495D01*
X134820584Y-90387265D01*
X134917365Y-90455032D01*
X134917367Y-90455033D01*
X134917370Y-90455035D01*
X135131537Y-90554903D01*
X135359792Y-90616063D01*
X135548118Y-90632539D01*
X135595199Y-90636659D01*
X135595200Y-90636659D01*
X135595201Y-90636659D01*
X135634434Y-90633226D01*
X135830608Y-90616063D01*
X136058863Y-90554903D01*
X136273030Y-90455035D01*
X136466601Y-90319495D01*
X136633695Y-90152401D01*
X136763624Y-89966842D01*
X136818202Y-89923217D01*
X136887700Y-89916023D01*
X136950055Y-89947546D01*
X136966775Y-89966842D01*
X137096700Y-90152395D01*
X137096705Y-90152401D01*
X137263799Y-90319495D01*
X137360584Y-90387265D01*
X137457365Y-90455032D01*
X137457367Y-90455033D01*
X137457370Y-90455035D01*
X137671537Y-90554903D01*
X137899792Y-90616063D01*
X138088118Y-90632539D01*
X138135199Y-90636659D01*
X138135200Y-90636659D01*
X138135201Y-90636659D01*
X138174434Y-90633226D01*
X138370608Y-90616063D01*
X138598863Y-90554903D01*
X138813030Y-90455035D01*
X139006601Y-90319495D01*
X139173695Y-90152401D01*
X139303624Y-89966842D01*
X139358202Y-89923217D01*
X139427700Y-89916023D01*
X139490055Y-89947546D01*
X139506775Y-89966842D01*
X139636700Y-90152395D01*
X139636705Y-90152401D01*
X139803799Y-90319495D01*
X139900584Y-90387265D01*
X139997365Y-90455032D01*
X139997367Y-90455033D01*
X139997370Y-90455035D01*
X140211537Y-90554903D01*
X140439792Y-90616063D01*
X140628118Y-90632539D01*
X140675199Y-90636659D01*
X140675200Y-90636659D01*
X140675201Y-90636659D01*
X140714434Y-90633226D01*
X140910608Y-90616063D01*
X141138863Y-90554903D01*
X141353030Y-90455035D01*
X141546601Y-90319495D01*
X141713695Y-90152401D01*
X141843624Y-89966842D01*
X141898202Y-89923217D01*
X141967700Y-89916023D01*
X142030055Y-89947546D01*
X142046775Y-89966842D01*
X142176700Y-90152395D01*
X142176705Y-90152401D01*
X142343799Y-90319495D01*
X142440584Y-90387265D01*
X142537365Y-90455032D01*
X142537367Y-90455033D01*
X142537370Y-90455035D01*
X142751537Y-90554903D01*
X142979792Y-90616063D01*
X143168118Y-90632539D01*
X143215199Y-90636659D01*
X143215200Y-90636659D01*
X143215201Y-90636659D01*
X143254434Y-90633226D01*
X143450608Y-90616063D01*
X143678863Y-90554903D01*
X143893030Y-90455035D01*
X144086601Y-90319495D01*
X144253695Y-90152401D01*
X144383624Y-89966842D01*
X144438202Y-89923217D01*
X144507700Y-89916023D01*
X144570055Y-89947546D01*
X144586775Y-89966842D01*
X144716700Y-90152395D01*
X144716705Y-90152401D01*
X144883799Y-90319495D01*
X144980584Y-90387264D01*
X145077365Y-90455032D01*
X145077367Y-90455033D01*
X145077370Y-90455035D01*
X145291537Y-90554903D01*
X145519792Y-90616063D01*
X145708118Y-90632539D01*
X145755199Y-90636659D01*
X145755200Y-90636659D01*
X145755201Y-90636659D01*
X145794434Y-90633226D01*
X145990608Y-90616063D01*
X146218863Y-90554903D01*
X146433030Y-90455035D01*
X146626601Y-90319495D01*
X146793695Y-90152401D01*
X146923624Y-89966842D01*
X146978202Y-89923217D01*
X147047700Y-89916023D01*
X147110055Y-89947546D01*
X147126775Y-89966842D01*
X147256700Y-90152395D01*
X147256705Y-90152401D01*
X147423799Y-90319495D01*
X147520584Y-90387264D01*
X147617365Y-90455032D01*
X147617367Y-90455033D01*
X147617370Y-90455035D01*
X147831537Y-90554903D01*
X148059792Y-90616063D01*
X148248118Y-90632539D01*
X148295199Y-90636659D01*
X148295200Y-90636659D01*
X148295201Y-90636659D01*
X148334434Y-90633226D01*
X148530608Y-90616063D01*
X148758863Y-90554903D01*
X148973030Y-90455035D01*
X149166601Y-90319495D01*
X149333695Y-90152401D01*
X149469235Y-89958830D01*
X149569103Y-89744663D01*
X149630263Y-89516408D01*
X149650859Y-89281000D01*
X149630263Y-89045592D01*
X149569103Y-88817337D01*
X149469235Y-88603171D01*
X149463625Y-88595158D01*
X149333694Y-88409597D01*
X149166602Y-88242506D01*
X149166595Y-88242501D01*
X148973034Y-88106967D01*
X148973030Y-88106965D01*
X148973029Y-88106964D01*
X148758863Y-88007097D01*
X148758859Y-88007096D01*
X148758855Y-88007094D01*
X148530613Y-87945938D01*
X148530603Y-87945936D01*
X148295201Y-87925341D01*
X148295199Y-87925341D01*
X148059796Y-87945936D01*
X148059786Y-87945938D01*
X147831544Y-88007094D01*
X147831535Y-88007098D01*
X147617371Y-88106964D01*
X147617369Y-88106965D01*
X147423797Y-88242505D01*
X147256705Y-88409597D01*
X147126775Y-88595158D01*
X147072198Y-88638783D01*
X147002700Y-88645977D01*
X146940345Y-88614454D01*
X146923625Y-88595158D01*
X146793694Y-88409597D01*
X146626602Y-88242506D01*
X146626595Y-88242501D01*
X146433034Y-88106967D01*
X146433030Y-88106965D01*
X146433030Y-88106964D01*
X146218863Y-88007097D01*
X146218859Y-88007096D01*
X146218855Y-88007094D01*
X145990613Y-87945938D01*
X145990603Y-87945936D01*
X145755201Y-87925341D01*
X145755199Y-87925341D01*
X145519796Y-87945936D01*
X145519786Y-87945938D01*
X145291544Y-88007094D01*
X145291535Y-88007098D01*
X145077371Y-88106964D01*
X145077369Y-88106965D01*
X144883797Y-88242505D01*
X144716705Y-88409597D01*
X144586775Y-88595158D01*
X144532198Y-88638783D01*
X144462700Y-88645977D01*
X144400345Y-88614454D01*
X144383625Y-88595158D01*
X144253694Y-88409597D01*
X144086602Y-88242506D01*
X144086595Y-88242501D01*
X143893034Y-88106967D01*
X143893030Y-88106965D01*
X143893030Y-88106964D01*
X143678863Y-88007097D01*
X143678859Y-88007096D01*
X143678855Y-88007094D01*
X143450613Y-87945938D01*
X143450603Y-87945936D01*
X143215201Y-87925341D01*
X143215199Y-87925341D01*
X142979796Y-87945936D01*
X142979786Y-87945938D01*
X142751544Y-88007094D01*
X142751535Y-88007098D01*
X142537371Y-88106964D01*
X142537369Y-88106965D01*
X142343797Y-88242505D01*
X142176705Y-88409597D01*
X142046775Y-88595158D01*
X141992198Y-88638783D01*
X141922700Y-88645977D01*
X141860345Y-88614454D01*
X141843625Y-88595158D01*
X141713694Y-88409597D01*
X141546602Y-88242506D01*
X141546595Y-88242501D01*
X141353034Y-88106967D01*
X141353030Y-88106965D01*
X141353029Y-88106964D01*
X141138863Y-88007097D01*
X141138859Y-88007096D01*
X141138855Y-88007094D01*
X140910613Y-87945938D01*
X140910603Y-87945936D01*
X140675201Y-87925341D01*
X140675199Y-87925341D01*
X140439796Y-87945936D01*
X140439786Y-87945938D01*
X140211544Y-88007094D01*
X140211535Y-88007098D01*
X139997371Y-88106964D01*
X139997369Y-88106965D01*
X139803797Y-88242505D01*
X139636705Y-88409597D01*
X139506775Y-88595158D01*
X139452198Y-88638783D01*
X139382700Y-88645977D01*
X139320345Y-88614454D01*
X139303625Y-88595158D01*
X139173694Y-88409597D01*
X139006602Y-88242506D01*
X139006595Y-88242501D01*
X138813034Y-88106967D01*
X138813030Y-88106965D01*
X138813029Y-88106964D01*
X138598863Y-88007097D01*
X138598859Y-88007096D01*
X138598855Y-88007094D01*
X138370613Y-87945938D01*
X138370603Y-87945936D01*
X138135201Y-87925341D01*
X138135199Y-87925341D01*
X137899796Y-87945936D01*
X137899786Y-87945938D01*
X137671544Y-88007094D01*
X137671535Y-88007098D01*
X137457371Y-88106964D01*
X137457369Y-88106965D01*
X137263797Y-88242505D01*
X137096705Y-88409597D01*
X136966775Y-88595158D01*
X136912198Y-88638783D01*
X136842700Y-88645977D01*
X136780345Y-88614454D01*
X136763625Y-88595158D01*
X136633694Y-88409597D01*
X136466602Y-88242506D01*
X136466595Y-88242501D01*
X136273034Y-88106967D01*
X136273030Y-88106965D01*
X136273030Y-88106964D01*
X136058863Y-88007097D01*
X136058859Y-88007096D01*
X136058855Y-88007094D01*
X135830613Y-87945938D01*
X135830603Y-87945936D01*
X135595201Y-87925341D01*
X135595199Y-87925341D01*
X135359796Y-87945936D01*
X135359786Y-87945938D01*
X135131544Y-88007094D01*
X135131535Y-88007098D01*
X134917371Y-88106964D01*
X134917369Y-88106965D01*
X134723797Y-88242505D01*
X134556705Y-88409597D01*
X134426775Y-88595158D01*
X134372198Y-88638783D01*
X134302700Y-88645977D01*
X134240345Y-88614454D01*
X134223625Y-88595158D01*
X134093694Y-88409597D01*
X133926602Y-88242506D01*
X133926595Y-88242501D01*
X133733034Y-88106967D01*
X133733030Y-88106965D01*
X133733030Y-88106964D01*
X133518863Y-88007097D01*
X133518859Y-88007096D01*
X133518855Y-88007094D01*
X133290613Y-87945938D01*
X133290603Y-87945936D01*
X133055201Y-87925341D01*
X133055199Y-87925341D01*
X132819796Y-87945936D01*
X132819786Y-87945938D01*
X132591544Y-88007094D01*
X132591535Y-88007098D01*
X132377371Y-88106964D01*
X132377369Y-88106965D01*
X132183797Y-88242505D01*
X132016705Y-88409597D01*
X131886775Y-88595158D01*
X131832198Y-88638783D01*
X131762700Y-88645977D01*
X131700345Y-88614454D01*
X131683625Y-88595158D01*
X131553694Y-88409597D01*
X131386602Y-88242506D01*
X131386595Y-88242501D01*
X131193034Y-88106967D01*
X131193030Y-88106965D01*
X131193029Y-88106964D01*
X130978863Y-88007097D01*
X130978859Y-88007096D01*
X130978855Y-88007094D01*
X130750613Y-87945938D01*
X130750603Y-87945936D01*
X130515201Y-87925341D01*
X130515199Y-87925341D01*
X130279796Y-87945936D01*
X130279786Y-87945938D01*
X130051544Y-88007094D01*
X130051535Y-88007098D01*
X129837371Y-88106964D01*
X129837369Y-88106965D01*
X129643797Y-88242505D01*
X129476705Y-88409597D01*
X129346775Y-88595158D01*
X129292198Y-88638783D01*
X129222700Y-88645977D01*
X129160345Y-88614454D01*
X129143625Y-88595158D01*
X129013694Y-88409597D01*
X128846602Y-88242506D01*
X128846595Y-88242501D01*
X128653034Y-88106967D01*
X128653030Y-88106965D01*
X128653028Y-88106964D01*
X128438863Y-88007097D01*
X128438859Y-88007096D01*
X128438855Y-88007094D01*
X128210613Y-87945938D01*
X128210603Y-87945936D01*
X127975201Y-87925341D01*
X127975199Y-87925341D01*
X127739796Y-87945936D01*
X127739786Y-87945938D01*
X127511544Y-88007094D01*
X127511535Y-88007098D01*
X127297371Y-88106964D01*
X127297369Y-88106965D01*
X127103797Y-88242505D01*
X126936708Y-88409594D01*
X126806774Y-88595159D01*
X126752197Y-88638784D01*
X126682698Y-88645976D01*
X126620344Y-88614454D01*
X126603624Y-88595158D01*
X126473694Y-88409597D01*
X126306602Y-88242506D01*
X126306595Y-88242501D01*
X126113034Y-88106967D01*
X126113030Y-88106965D01*
X126113028Y-88106964D01*
X125898863Y-88007097D01*
X125898859Y-88007096D01*
X125898855Y-88007094D01*
X125670613Y-87945938D01*
X125670603Y-87945936D01*
X125435201Y-87925341D01*
X125435199Y-87925341D01*
X125199796Y-87945936D01*
X125199786Y-87945938D01*
X124971544Y-88007094D01*
X124971535Y-88007098D01*
X124757371Y-88106964D01*
X124757369Y-88106965D01*
X124563797Y-88242505D01*
X124396705Y-88409597D01*
X124266775Y-88595158D01*
X124212198Y-88638783D01*
X124142700Y-88645977D01*
X124080345Y-88614454D01*
X124063625Y-88595158D01*
X123933694Y-88409597D01*
X123766602Y-88242506D01*
X123766595Y-88242501D01*
X123573034Y-88106967D01*
X123573030Y-88106965D01*
X123573028Y-88106964D01*
X123358863Y-88007097D01*
X123358859Y-88007096D01*
X123358855Y-88007094D01*
X123130613Y-87945938D01*
X123130603Y-87945936D01*
X122895201Y-87925341D01*
X122895199Y-87925341D01*
X122659796Y-87945936D01*
X122659786Y-87945938D01*
X122431544Y-88007094D01*
X122431535Y-88007098D01*
X122217371Y-88106964D01*
X122217369Y-88106965D01*
X122023797Y-88242505D01*
X121856705Y-88409597D01*
X121726775Y-88595158D01*
X121672198Y-88638783D01*
X121602700Y-88645977D01*
X121540345Y-88614454D01*
X121523625Y-88595158D01*
X121393694Y-88409597D01*
X121226602Y-88242506D01*
X121226595Y-88242501D01*
X121033034Y-88106967D01*
X121033030Y-88106965D01*
X121033028Y-88106964D01*
X120818863Y-88007097D01*
X120818859Y-88007096D01*
X120818855Y-88007094D01*
X120590613Y-87945938D01*
X120590603Y-87945936D01*
X120355201Y-87925341D01*
X120355199Y-87925341D01*
X120119796Y-87945936D01*
X120119786Y-87945938D01*
X119891544Y-88007094D01*
X119891535Y-88007098D01*
X119677371Y-88106964D01*
X119677369Y-88106965D01*
X119483797Y-88242505D01*
X119316705Y-88409597D01*
X119186775Y-88595158D01*
X119132198Y-88638783D01*
X119062700Y-88645977D01*
X119000345Y-88614454D01*
X118983625Y-88595158D01*
X118853694Y-88409597D01*
X118686602Y-88242506D01*
X118686595Y-88242501D01*
X118493034Y-88106967D01*
X118493030Y-88106965D01*
X118493028Y-88106964D01*
X118278863Y-88007097D01*
X118278859Y-88007096D01*
X118278855Y-88007094D01*
X118050613Y-87945938D01*
X118050603Y-87945936D01*
X117815201Y-87925341D01*
X117815199Y-87925341D01*
X117579796Y-87945936D01*
X117579786Y-87945938D01*
X117351544Y-88007094D01*
X117351535Y-88007098D01*
X117137371Y-88106964D01*
X117137369Y-88106965D01*
X116943797Y-88242505D01*
X116776705Y-88409597D01*
X116646775Y-88595158D01*
X116592198Y-88638783D01*
X116522700Y-88645977D01*
X116460345Y-88614454D01*
X116443625Y-88595158D01*
X116313694Y-88409597D01*
X116146602Y-88242506D01*
X116146595Y-88242501D01*
X115953034Y-88106967D01*
X115953030Y-88106965D01*
X115953028Y-88106964D01*
X115738863Y-88007097D01*
X115738859Y-88007096D01*
X115738855Y-88007094D01*
X115510613Y-87945938D01*
X115510603Y-87945936D01*
X115275201Y-87925341D01*
X115275199Y-87925341D01*
X115039796Y-87945936D01*
X115039786Y-87945938D01*
X114811544Y-88007094D01*
X114811535Y-88007098D01*
X114597371Y-88106964D01*
X114597369Y-88106965D01*
X114403797Y-88242505D01*
X114236705Y-88409597D01*
X114101165Y-88603169D01*
X114101164Y-88603171D01*
X114001298Y-88817335D01*
X114001294Y-88817344D01*
X113940138Y-89045586D01*
X113940136Y-89045596D01*
X113919541Y-89280999D01*
X113919541Y-89281000D01*
X111200499Y-89281000D01*
X111200499Y-87450000D01*
X154644341Y-87450000D01*
X154664936Y-87685403D01*
X154664938Y-87685413D01*
X154726094Y-87913655D01*
X154726096Y-87913659D01*
X154726097Y-87913663D01*
X154816236Y-88106967D01*
X154825965Y-88127830D01*
X154825967Y-88127834D01*
X154906261Y-88242505D01*
X154961505Y-88321401D01*
X155128599Y-88488495D01*
X155225384Y-88556265D01*
X155322165Y-88624032D01*
X155322167Y-88624033D01*
X155322170Y-88624035D01*
X155536337Y-88723903D01*
X155764592Y-88785063D01*
X155952918Y-88801539D01*
X155999999Y-88805659D01*
X156000000Y-88805659D01*
X156000001Y-88805659D01*
X156039234Y-88802226D01*
X156235408Y-88785063D01*
X156463663Y-88723903D01*
X156677830Y-88624035D01*
X156871401Y-88488495D01*
X157038495Y-88321401D01*
X157174035Y-88127830D01*
X157273903Y-87913663D01*
X157335063Y-87685408D01*
X157355659Y-87450000D01*
X157335063Y-87214592D01*
X157273903Y-86986337D01*
X157174035Y-86772171D01*
X157038495Y-86578599D01*
X157038494Y-86578597D01*
X156871402Y-86411506D01*
X156871395Y-86411501D01*
X156677834Y-86275967D01*
X156677830Y-86275965D01*
X156677830Y-86275964D01*
X156463663Y-86176097D01*
X156463659Y-86176096D01*
X156463655Y-86176094D01*
X156235413Y-86114938D01*
X156235403Y-86114936D01*
X156000001Y-86094341D01*
X155999999Y-86094341D01*
X155764596Y-86114936D01*
X155764586Y-86114938D01*
X155536344Y-86176094D01*
X155536335Y-86176098D01*
X155322171Y-86275964D01*
X155322169Y-86275965D01*
X155128597Y-86411505D01*
X154961505Y-86578597D01*
X154825965Y-86772169D01*
X154825964Y-86772171D01*
X154726098Y-86986335D01*
X154726094Y-86986344D01*
X154664938Y-87214586D01*
X154664936Y-87214596D01*
X154644341Y-87449999D01*
X154644341Y-87450000D01*
X111200499Y-87450000D01*
X111200499Y-82524600D01*
X126694341Y-82524600D01*
X126714936Y-82760003D01*
X126714938Y-82760013D01*
X126776094Y-82988255D01*
X126776096Y-82988259D01*
X126776097Y-82988263D01*
X126780000Y-82996632D01*
X126875965Y-83202430D01*
X126875967Y-83202434D01*
X126984281Y-83357121D01*
X127011505Y-83396001D01*
X127178599Y-83563095D01*
X127275384Y-83630865D01*
X127372165Y-83698632D01*
X127372167Y-83698633D01*
X127372170Y-83698635D01*
X127586337Y-83798503D01*
X127814592Y-83859663D01*
X128002918Y-83876139D01*
X128049999Y-83880259D01*
X128050000Y-83880259D01*
X128050001Y-83880259D01*
X128089234Y-83876826D01*
X128285408Y-83859663D01*
X128513663Y-83798503D01*
X128727830Y-83698635D01*
X128921401Y-83563095D01*
X129088495Y-83396001D01*
X129218424Y-83210442D01*
X129273002Y-83166817D01*
X129342500Y-83159623D01*
X129404855Y-83191146D01*
X129421575Y-83210442D01*
X129551500Y-83395995D01*
X129551505Y-83396001D01*
X129718599Y-83563095D01*
X129815384Y-83630865D01*
X129912165Y-83698632D01*
X129912167Y-83698633D01*
X129912170Y-83698635D01*
X130126337Y-83798503D01*
X130354592Y-83859663D01*
X130542918Y-83876139D01*
X130589999Y-83880259D01*
X130590000Y-83880259D01*
X130590001Y-83880259D01*
X130629234Y-83876826D01*
X130825408Y-83859663D01*
X131053663Y-83798503D01*
X131267830Y-83698635D01*
X131461401Y-83563095D01*
X131628495Y-83396001D01*
X131758424Y-83210442D01*
X131813002Y-83166817D01*
X131882500Y-83159623D01*
X131944855Y-83191146D01*
X131961575Y-83210442D01*
X132091500Y-83395995D01*
X132091505Y-83396001D01*
X132258599Y-83563095D01*
X132355384Y-83630865D01*
X132452165Y-83698632D01*
X132452167Y-83698633D01*
X132452170Y-83698635D01*
X132666337Y-83798503D01*
X132894592Y-83859663D01*
X133082918Y-83876139D01*
X133129999Y-83880259D01*
X133130000Y-83880259D01*
X133130001Y-83880259D01*
X133169234Y-83876826D01*
X133365408Y-83859663D01*
X133593663Y-83798503D01*
X133807830Y-83698635D01*
X134001401Y-83563095D01*
X134168495Y-83396001D01*
X134304035Y-83202430D01*
X134403903Y-82988263D01*
X134465063Y-82760008D01*
X134485659Y-82524600D01*
X143144341Y-82524600D01*
X143164936Y-82760003D01*
X143164938Y-82760013D01*
X143226094Y-82988255D01*
X143226096Y-82988259D01*
X143226097Y-82988263D01*
X143230000Y-82996632D01*
X143325965Y-83202430D01*
X143325967Y-83202434D01*
X143434281Y-83357121D01*
X143461505Y-83396001D01*
X143628599Y-83563095D01*
X143725384Y-83630864D01*
X143822165Y-83698632D01*
X143822167Y-83698633D01*
X143822170Y-83698635D01*
X144036337Y-83798503D01*
X144264592Y-83859663D01*
X144452918Y-83876139D01*
X144499999Y-83880259D01*
X144500000Y-83880259D01*
X144500001Y-83880259D01*
X144539234Y-83876826D01*
X144735408Y-83859663D01*
X144963663Y-83798503D01*
X145177830Y-83698635D01*
X145371401Y-83563095D01*
X145538495Y-83396001D01*
X145668424Y-83210442D01*
X145723002Y-83166817D01*
X145792500Y-83159623D01*
X145854855Y-83191146D01*
X145871575Y-83210442D01*
X146001500Y-83395995D01*
X146001505Y-83396001D01*
X146168599Y-83563095D01*
X146265384Y-83630864D01*
X146362165Y-83698632D01*
X146362167Y-83698633D01*
X146362170Y-83698635D01*
X146576337Y-83798503D01*
X146804592Y-83859663D01*
X146992918Y-83876139D01*
X147039999Y-83880259D01*
X147040000Y-83880259D01*
X147040001Y-83880259D01*
X147079234Y-83876826D01*
X147275408Y-83859663D01*
X147503663Y-83798503D01*
X147717830Y-83698635D01*
X147911401Y-83563095D01*
X148078495Y-83396001D01*
X148208424Y-83210442D01*
X148263002Y-83166817D01*
X148332500Y-83159623D01*
X148394855Y-83191146D01*
X148411575Y-83210442D01*
X148541500Y-83395995D01*
X148541505Y-83396001D01*
X148708599Y-83563095D01*
X148805384Y-83630864D01*
X148902165Y-83698632D01*
X148902167Y-83698633D01*
X148902170Y-83698635D01*
X149116337Y-83798503D01*
X149344592Y-83859663D01*
X149532918Y-83876139D01*
X149579999Y-83880259D01*
X149580000Y-83880259D01*
X149580001Y-83880259D01*
X149619234Y-83876826D01*
X149815408Y-83859663D01*
X150043663Y-83798503D01*
X150257830Y-83698635D01*
X150451401Y-83563095D01*
X150618495Y-83396001D01*
X150754035Y-83202430D01*
X150853903Y-82988263D01*
X150915063Y-82760008D01*
X150935659Y-82524600D01*
X150915063Y-82289192D01*
X150853903Y-82060937D01*
X150754035Y-81846771D01*
X150748425Y-81838758D01*
X150618494Y-81653197D01*
X150451402Y-81486106D01*
X150451395Y-81486101D01*
X150257834Y-81350567D01*
X150257830Y-81350565D01*
X150257829Y-81350564D01*
X150043663Y-81250697D01*
X150043659Y-81250696D01*
X150043655Y-81250694D01*
X149815413Y-81189538D01*
X149815403Y-81189536D01*
X149580001Y-81168941D01*
X149579999Y-81168941D01*
X149344596Y-81189536D01*
X149344586Y-81189538D01*
X149116344Y-81250694D01*
X149116335Y-81250698D01*
X148902171Y-81350564D01*
X148902169Y-81350565D01*
X148708597Y-81486105D01*
X148541505Y-81653197D01*
X148411575Y-81838758D01*
X148356998Y-81882383D01*
X148287500Y-81889577D01*
X148225145Y-81858054D01*
X148208425Y-81838758D01*
X148078494Y-81653197D01*
X147911402Y-81486106D01*
X147911395Y-81486101D01*
X147717834Y-81350567D01*
X147717830Y-81350565D01*
X147717829Y-81350564D01*
X147503663Y-81250697D01*
X147503659Y-81250696D01*
X147503655Y-81250694D01*
X147275413Y-81189538D01*
X147275403Y-81189536D01*
X147040001Y-81168941D01*
X147039999Y-81168941D01*
X146804596Y-81189536D01*
X146804586Y-81189538D01*
X146576344Y-81250694D01*
X146576335Y-81250698D01*
X146362171Y-81350564D01*
X146362169Y-81350565D01*
X146168597Y-81486105D01*
X146001505Y-81653197D01*
X145871575Y-81838758D01*
X145816998Y-81882383D01*
X145747500Y-81889577D01*
X145685145Y-81858054D01*
X145668425Y-81838758D01*
X145538494Y-81653197D01*
X145371402Y-81486106D01*
X145371395Y-81486101D01*
X145177834Y-81350567D01*
X145177830Y-81350565D01*
X145177829Y-81350564D01*
X144963663Y-81250697D01*
X144963659Y-81250696D01*
X144963655Y-81250694D01*
X144735413Y-81189538D01*
X144735403Y-81189536D01*
X144500001Y-81168941D01*
X144499999Y-81168941D01*
X144264596Y-81189536D01*
X144264586Y-81189538D01*
X144036344Y-81250694D01*
X144036335Y-81250698D01*
X143822171Y-81350564D01*
X143822169Y-81350565D01*
X143628597Y-81486105D01*
X143461505Y-81653197D01*
X143325965Y-81846769D01*
X143325964Y-81846771D01*
X143226098Y-82060935D01*
X143226094Y-82060944D01*
X143164938Y-82289186D01*
X143164936Y-82289196D01*
X143144341Y-82524599D01*
X143144341Y-82524600D01*
X134485659Y-82524600D01*
X134465063Y-82289192D01*
X134403903Y-82060937D01*
X134304035Y-81846771D01*
X134298425Y-81838758D01*
X134168494Y-81653197D01*
X134001402Y-81486106D01*
X134001395Y-81486101D01*
X133807834Y-81350567D01*
X133807830Y-81350565D01*
X133807830Y-81350564D01*
X133593663Y-81250697D01*
X133593659Y-81250696D01*
X133593655Y-81250694D01*
X133365413Y-81189538D01*
X133365403Y-81189536D01*
X133130001Y-81168941D01*
X133129999Y-81168941D01*
X132894596Y-81189536D01*
X132894586Y-81189538D01*
X132666344Y-81250694D01*
X132666335Y-81250698D01*
X132452171Y-81350564D01*
X132452169Y-81350565D01*
X132258597Y-81486105D01*
X132091508Y-81653194D01*
X131961574Y-81838760D01*
X131906997Y-81882384D01*
X131837498Y-81889577D01*
X131775144Y-81858055D01*
X131758429Y-81838764D01*
X131628495Y-81653199D01*
X131628493Y-81653196D01*
X131461402Y-81486106D01*
X131461395Y-81486101D01*
X131267834Y-81350567D01*
X131267830Y-81350565D01*
X131267830Y-81350564D01*
X131053663Y-81250697D01*
X131053659Y-81250696D01*
X131053655Y-81250694D01*
X130825413Y-81189538D01*
X130825403Y-81189536D01*
X130590001Y-81168941D01*
X130589999Y-81168941D01*
X130354596Y-81189536D01*
X130354586Y-81189538D01*
X130126344Y-81250694D01*
X130126335Y-81250698D01*
X129912171Y-81350564D01*
X129912169Y-81350565D01*
X129718597Y-81486105D01*
X129551508Y-81653194D01*
X129421574Y-81838759D01*
X129366997Y-81882384D01*
X129297498Y-81889576D01*
X129235144Y-81858054D01*
X129218424Y-81838758D01*
X129088494Y-81653197D01*
X128921402Y-81486106D01*
X128921395Y-81486101D01*
X128727834Y-81350567D01*
X128727830Y-81350565D01*
X128727830Y-81350564D01*
X128513663Y-81250697D01*
X128513659Y-81250696D01*
X128513655Y-81250694D01*
X128285413Y-81189538D01*
X128285403Y-81189536D01*
X128050001Y-81168941D01*
X128049999Y-81168941D01*
X127814596Y-81189536D01*
X127814586Y-81189538D01*
X127586344Y-81250694D01*
X127586335Y-81250698D01*
X127372171Y-81350564D01*
X127372169Y-81350565D01*
X127178597Y-81486105D01*
X127011505Y-81653197D01*
X126875965Y-81846769D01*
X126875964Y-81846771D01*
X126776098Y-82060935D01*
X126776094Y-82060944D01*
X126714938Y-82289186D01*
X126714936Y-82289196D01*
X126694341Y-82524599D01*
X126694341Y-82524600D01*
X111200499Y-82524600D01*
X111200499Y-78001740D01*
X111200548Y-78000005D01*
X111594754Y-78000005D01*
X111613718Y-78301446D01*
X111613719Y-78301453D01*
X111613720Y-78301457D01*
X111658349Y-78535413D01*
X111670320Y-78598164D01*
X111763659Y-78885431D01*
X111763661Y-78885436D01*
X111892265Y-79158732D01*
X111892268Y-79158738D01*
X112054111Y-79413763D01*
X112054114Y-79413767D01*
X112054115Y-79413768D01*
X112103971Y-79474034D01*
X112246652Y-79646505D01*
X112466836Y-79853272D01*
X112466846Y-79853280D01*
X112711193Y-80030808D01*
X112711198Y-80030810D01*
X112711205Y-80030816D01*
X112975896Y-80176332D01*
X112975901Y-80176334D01*
X112975903Y-80176335D01*
X112975904Y-80176336D01*
X113256734Y-80287524D01*
X113256737Y-80287525D01*
X113354259Y-80312563D01*
X113549302Y-80362642D01*
X113696039Y-80381179D01*
X113848963Y-80400499D01*
X113848969Y-80400499D01*
X113848973Y-80400500D01*
X113848975Y-80400500D01*
X114151025Y-80400500D01*
X114151027Y-80400500D01*
X114151032Y-80400499D01*
X114151036Y-80400499D01*
X114230591Y-80390448D01*
X114450698Y-80362642D01*
X114743262Y-80287525D01*
X114743265Y-80287524D01*
X115024095Y-80176336D01*
X115024096Y-80176335D01*
X115024094Y-80176335D01*
X115024104Y-80176332D01*
X115288795Y-80030816D01*
X115533162Y-79853274D01*
X115753349Y-79646504D01*
X115945885Y-79413768D01*
X116107733Y-79158736D01*
X116236341Y-78885430D01*
X116329681Y-78598160D01*
X116386280Y-78301457D01*
X116386372Y-78300000D01*
X121284341Y-78300000D01*
X121304936Y-78535403D01*
X121304938Y-78535413D01*
X121366094Y-78763655D01*
X121366096Y-78763659D01*
X121366097Y-78763663D01*
X121370000Y-78772032D01*
X121465965Y-78977830D01*
X121465967Y-78977834D01*
X121574281Y-79132521D01*
X121601505Y-79171401D01*
X121768599Y-79338495D01*
X121865384Y-79406264D01*
X121962165Y-79474032D01*
X121962167Y-79474033D01*
X121962170Y-79474035D01*
X122176337Y-79573903D01*
X122404592Y-79635063D01*
X122592918Y-79651539D01*
X122639999Y-79655659D01*
X122640000Y-79655659D01*
X122640001Y-79655659D01*
X122679234Y-79652226D01*
X122875408Y-79635063D01*
X123103663Y-79573903D01*
X123317830Y-79474035D01*
X123511401Y-79338495D01*
X123678495Y-79171401D01*
X123808426Y-78985840D01*
X123863001Y-78942217D01*
X123932499Y-78935023D01*
X123994854Y-78966546D01*
X124011574Y-78985841D01*
X124141505Y-79171401D01*
X124308599Y-79338495D01*
X124405384Y-79406264D01*
X124502165Y-79474032D01*
X124502167Y-79474033D01*
X124502170Y-79474035D01*
X124716337Y-79573903D01*
X124944592Y-79635063D01*
X125132918Y-79651539D01*
X125179999Y-79655659D01*
X125180000Y-79655659D01*
X125180001Y-79655659D01*
X125219234Y-79652226D01*
X125415408Y-79635063D01*
X125643663Y-79573903D01*
X125857830Y-79474035D01*
X126051401Y-79338495D01*
X126218495Y-79171401D01*
X126348426Y-78985841D01*
X126403002Y-78942217D01*
X126472500Y-78935023D01*
X126534855Y-78966546D01*
X126551575Y-78985842D01*
X126681500Y-79171395D01*
X126681505Y-79171401D01*
X126848599Y-79338495D01*
X126945384Y-79406264D01*
X127042165Y-79474032D01*
X127042167Y-79474033D01*
X127042170Y-79474035D01*
X127256337Y-79573903D01*
X127484592Y-79635063D01*
X127672918Y-79651539D01*
X127719999Y-79655659D01*
X127720000Y-79655659D01*
X127720001Y-79655659D01*
X127759234Y-79652226D01*
X127955408Y-79635063D01*
X128183663Y-79573903D01*
X128397830Y-79474035D01*
X128591401Y-79338495D01*
X128758495Y-79171401D01*
X128888426Y-78985840D01*
X128943001Y-78942217D01*
X129012499Y-78935023D01*
X129074854Y-78966546D01*
X129091574Y-78985841D01*
X129221505Y-79171401D01*
X129388599Y-79338495D01*
X129485384Y-79406264D01*
X129582165Y-79474032D01*
X129582167Y-79474033D01*
X129582170Y-79474035D01*
X129796337Y-79573903D01*
X130024592Y-79635063D01*
X130212918Y-79651539D01*
X130259999Y-79655659D01*
X130260000Y-79655659D01*
X130260001Y-79655659D01*
X130299234Y-79652226D01*
X130495408Y-79635063D01*
X130723663Y-79573903D01*
X130937830Y-79474035D01*
X131131401Y-79338495D01*
X131298495Y-79171401D01*
X131428426Y-78985841D01*
X131483002Y-78942217D01*
X131552500Y-78935023D01*
X131614855Y-78966546D01*
X131631575Y-78985842D01*
X131761500Y-79171395D01*
X131761505Y-79171401D01*
X131928599Y-79338495D01*
X132025384Y-79406264D01*
X132122165Y-79474032D01*
X132122167Y-79474033D01*
X132122170Y-79474035D01*
X132336337Y-79573903D01*
X132564592Y-79635063D01*
X132752918Y-79651539D01*
X132799999Y-79655659D01*
X132800000Y-79655659D01*
X132800001Y-79655659D01*
X132839234Y-79652226D01*
X133035408Y-79635063D01*
X133263663Y-79573903D01*
X133477830Y-79474035D01*
X133671401Y-79338495D01*
X133838495Y-79171401D01*
X133974035Y-78977830D01*
X134073903Y-78763663D01*
X134135063Y-78535408D01*
X134155659Y-78300000D01*
X138384341Y-78300000D01*
X138404936Y-78535403D01*
X138404938Y-78535413D01*
X138466094Y-78763655D01*
X138466096Y-78763659D01*
X138466097Y-78763663D01*
X138470000Y-78772032D01*
X138565965Y-78977830D01*
X138565967Y-78977834D01*
X138674281Y-79132521D01*
X138701505Y-79171401D01*
X138868599Y-79338495D01*
X138965384Y-79406264D01*
X139062165Y-79474032D01*
X139062167Y-79474033D01*
X139062170Y-79474035D01*
X139276337Y-79573903D01*
X139504592Y-79635063D01*
X139692918Y-79651539D01*
X139739999Y-79655659D01*
X139740000Y-79655659D01*
X139740001Y-79655659D01*
X139779234Y-79652226D01*
X139975408Y-79635063D01*
X140203663Y-79573903D01*
X140417830Y-79474035D01*
X140611401Y-79338495D01*
X140778495Y-79171401D01*
X140908426Y-78985841D01*
X140963002Y-78942217D01*
X141032500Y-78935023D01*
X141094855Y-78966546D01*
X141111575Y-78985842D01*
X141241500Y-79171395D01*
X141241505Y-79171401D01*
X141408599Y-79338495D01*
X141505384Y-79406264D01*
X141602165Y-79474032D01*
X141602167Y-79474033D01*
X141602170Y-79474035D01*
X141816337Y-79573903D01*
X142044592Y-79635063D01*
X142232918Y-79651539D01*
X142279999Y-79655659D01*
X142280000Y-79655659D01*
X142280001Y-79655659D01*
X142319234Y-79652226D01*
X142515408Y-79635063D01*
X142743663Y-79573903D01*
X142957830Y-79474035D01*
X143151401Y-79338495D01*
X143318495Y-79171401D01*
X143448426Y-78985841D01*
X143503002Y-78942217D01*
X143572500Y-78935023D01*
X143634855Y-78966546D01*
X143651575Y-78985842D01*
X143781500Y-79171395D01*
X143781505Y-79171401D01*
X143948599Y-79338495D01*
X144045384Y-79406264D01*
X144142165Y-79474032D01*
X144142167Y-79474033D01*
X144142170Y-79474035D01*
X144356337Y-79573903D01*
X144584592Y-79635063D01*
X144772918Y-79651539D01*
X144819999Y-79655659D01*
X144820000Y-79655659D01*
X144820001Y-79655659D01*
X144859234Y-79652226D01*
X145055408Y-79635063D01*
X145283663Y-79573903D01*
X145497830Y-79474035D01*
X145691401Y-79338495D01*
X145858495Y-79171401D01*
X145988426Y-78985841D01*
X146043002Y-78942217D01*
X146112500Y-78935023D01*
X146174855Y-78966546D01*
X146191575Y-78985842D01*
X146321500Y-79171395D01*
X146321505Y-79171401D01*
X146488599Y-79338495D01*
X146585384Y-79406264D01*
X146682165Y-79474032D01*
X146682167Y-79474033D01*
X146682170Y-79474035D01*
X146896337Y-79573903D01*
X147124592Y-79635063D01*
X147312918Y-79651539D01*
X147359999Y-79655659D01*
X147360000Y-79655659D01*
X147360001Y-79655659D01*
X147399234Y-79652226D01*
X147595408Y-79635063D01*
X147823663Y-79573903D01*
X148037830Y-79474035D01*
X148231401Y-79338495D01*
X148398495Y-79171401D01*
X148528426Y-78985841D01*
X148583002Y-78942217D01*
X148652500Y-78935023D01*
X148714855Y-78966546D01*
X148731575Y-78985842D01*
X148861500Y-79171395D01*
X148861505Y-79171401D01*
X149028599Y-79338495D01*
X149125384Y-79406264D01*
X149222165Y-79474032D01*
X149222167Y-79474033D01*
X149222170Y-79474035D01*
X149436337Y-79573903D01*
X149664592Y-79635063D01*
X149852918Y-79651539D01*
X149899999Y-79655659D01*
X149900000Y-79655659D01*
X149900001Y-79655659D01*
X149939234Y-79652226D01*
X150135408Y-79635063D01*
X150363663Y-79573903D01*
X150577830Y-79474035D01*
X150771401Y-79338495D01*
X150938495Y-79171401D01*
X151074035Y-78977830D01*
X151173903Y-78763663D01*
X151235063Y-78535408D01*
X151255659Y-78300000D01*
X151235063Y-78064592D01*
X151217757Y-78000005D01*
X153594754Y-78000005D01*
X153613718Y-78301446D01*
X153613719Y-78301453D01*
X153613720Y-78301457D01*
X153658349Y-78535413D01*
X153670320Y-78598164D01*
X153763659Y-78885431D01*
X153763661Y-78885436D01*
X153892265Y-79158732D01*
X153892268Y-79158738D01*
X154054111Y-79413763D01*
X154054114Y-79413767D01*
X154054115Y-79413768D01*
X154103971Y-79474034D01*
X154246652Y-79646505D01*
X154466836Y-79853272D01*
X154466846Y-79853280D01*
X154711193Y-80030808D01*
X154711198Y-80030810D01*
X154711205Y-80030816D01*
X154975896Y-80176332D01*
X154975901Y-80176334D01*
X154975903Y-80176335D01*
X154975904Y-80176336D01*
X155256734Y-80287524D01*
X155256737Y-80287525D01*
X155354259Y-80312563D01*
X155549302Y-80362642D01*
X155696039Y-80381179D01*
X155848963Y-80400499D01*
X155848969Y-80400499D01*
X155848973Y-80400500D01*
X155848975Y-80400500D01*
X156151025Y-80400500D01*
X156151027Y-80400500D01*
X156151032Y-80400499D01*
X156151036Y-80400499D01*
X156230591Y-80390448D01*
X156450698Y-80362642D01*
X156743262Y-80287525D01*
X156743265Y-80287524D01*
X157024095Y-80176336D01*
X157024096Y-80176335D01*
X157024094Y-80176335D01*
X157024104Y-80176332D01*
X157288795Y-80030816D01*
X157533162Y-79853274D01*
X157753349Y-79646504D01*
X157945885Y-79413768D01*
X158107733Y-79158736D01*
X158236341Y-78885430D01*
X158329681Y-78598160D01*
X158386280Y-78301457D01*
X158401182Y-78064596D01*
X158405246Y-78000005D01*
X158405246Y-77999994D01*
X158386281Y-77698553D01*
X158386280Y-77698546D01*
X158386280Y-77698543D01*
X158329681Y-77401840D01*
X158236341Y-77114570D01*
X158217901Y-77075384D01*
X158182765Y-77000716D01*
X158107733Y-76841264D01*
X157945885Y-76586232D01*
X157753349Y-76353496D01*
X157533162Y-76146726D01*
X157533159Y-76146724D01*
X157533153Y-76146719D01*
X157288806Y-75969191D01*
X157288799Y-75969186D01*
X157288795Y-75969184D01*
X157024104Y-75823668D01*
X157024101Y-75823666D01*
X157024096Y-75823664D01*
X157024095Y-75823663D01*
X156743265Y-75712475D01*
X156743262Y-75712474D01*
X156450695Y-75637357D01*
X156151036Y-75599500D01*
X156151027Y-75599500D01*
X155848973Y-75599500D01*
X155848963Y-75599500D01*
X155549304Y-75637357D01*
X155256737Y-75712474D01*
X155256734Y-75712475D01*
X154975904Y-75823663D01*
X154975903Y-75823664D01*
X154711205Y-75969184D01*
X154711193Y-75969191D01*
X154466846Y-76146719D01*
X154466836Y-76146727D01*
X154246652Y-76353494D01*
X154054111Y-76586236D01*
X153892268Y-76841261D01*
X153892265Y-76841267D01*
X153763661Y-77114563D01*
X153763659Y-77114568D01*
X153670320Y-77401835D01*
X153613719Y-77698546D01*
X153613718Y-77698553D01*
X153594754Y-77999994D01*
X153594754Y-78000005D01*
X151217757Y-78000005D01*
X151173903Y-77836337D01*
X151074035Y-77622171D01*
X151068425Y-77614158D01*
X150938494Y-77428597D01*
X150771402Y-77261506D01*
X150771395Y-77261501D01*
X150577834Y-77125967D01*
X150577830Y-77125965D01*
X150476532Y-77078729D01*
X150363663Y-77026097D01*
X150363659Y-77026096D01*
X150363655Y-77026094D01*
X150135413Y-76964938D01*
X150135403Y-76964936D01*
X149900001Y-76944341D01*
X149899999Y-76944341D01*
X149664596Y-76964936D01*
X149664586Y-76964938D01*
X149436344Y-77026094D01*
X149436335Y-77026098D01*
X149222171Y-77125964D01*
X149222169Y-77125965D01*
X149028597Y-77261505D01*
X148861505Y-77428597D01*
X148731575Y-77614158D01*
X148676998Y-77657783D01*
X148607500Y-77664977D01*
X148545145Y-77633454D01*
X148528425Y-77614158D01*
X148398494Y-77428597D01*
X148231402Y-77261506D01*
X148231395Y-77261501D01*
X148037834Y-77125967D01*
X148037830Y-77125965D01*
X147936532Y-77078729D01*
X147823663Y-77026097D01*
X147823659Y-77026096D01*
X147823655Y-77026094D01*
X147595413Y-76964938D01*
X147595403Y-76964936D01*
X147360001Y-76944341D01*
X147359999Y-76944341D01*
X147124596Y-76964936D01*
X147124586Y-76964938D01*
X146896344Y-77026094D01*
X146896335Y-77026098D01*
X146682171Y-77125964D01*
X146682169Y-77125965D01*
X146488597Y-77261505D01*
X146321505Y-77428597D01*
X146191575Y-77614158D01*
X146136998Y-77657783D01*
X146067500Y-77664977D01*
X146005145Y-77633454D01*
X145988425Y-77614158D01*
X145858494Y-77428597D01*
X145691402Y-77261506D01*
X145691395Y-77261501D01*
X145497834Y-77125967D01*
X145497830Y-77125965D01*
X145396532Y-77078729D01*
X145283663Y-77026097D01*
X145283659Y-77026096D01*
X145283655Y-77026094D01*
X145055413Y-76964938D01*
X145055403Y-76964936D01*
X144820001Y-76944341D01*
X144819999Y-76944341D01*
X144584596Y-76964936D01*
X144584586Y-76964938D01*
X144356344Y-77026094D01*
X144356335Y-77026098D01*
X144142171Y-77125964D01*
X144142169Y-77125965D01*
X143948597Y-77261505D01*
X143781505Y-77428597D01*
X143651575Y-77614158D01*
X143596998Y-77657783D01*
X143527500Y-77664977D01*
X143465145Y-77633454D01*
X143448425Y-77614158D01*
X143318494Y-77428597D01*
X143151402Y-77261506D01*
X143151395Y-77261501D01*
X142957834Y-77125967D01*
X142957830Y-77125965D01*
X142856532Y-77078729D01*
X142743663Y-77026097D01*
X142743659Y-77026096D01*
X142743655Y-77026094D01*
X142515413Y-76964938D01*
X142515403Y-76964936D01*
X142280001Y-76944341D01*
X142279999Y-76944341D01*
X142044596Y-76964936D01*
X142044586Y-76964938D01*
X141816344Y-77026094D01*
X141816335Y-77026098D01*
X141602171Y-77125964D01*
X141602169Y-77125965D01*
X141408597Y-77261505D01*
X141241505Y-77428597D01*
X141111575Y-77614158D01*
X141056998Y-77657783D01*
X140987500Y-77664977D01*
X140925145Y-77633454D01*
X140908425Y-77614158D01*
X140778494Y-77428597D01*
X140611402Y-77261506D01*
X140611395Y-77261501D01*
X140417834Y-77125967D01*
X140417830Y-77125965D01*
X140316532Y-77078729D01*
X140203663Y-77026097D01*
X140203659Y-77026096D01*
X140203655Y-77026094D01*
X139975413Y-76964938D01*
X139975403Y-76964936D01*
X139740001Y-76944341D01*
X139739999Y-76944341D01*
X139504596Y-76964936D01*
X139504586Y-76964938D01*
X139276344Y-77026094D01*
X139276335Y-77026098D01*
X139062171Y-77125964D01*
X139062169Y-77125965D01*
X138868597Y-77261505D01*
X138701505Y-77428597D01*
X138565965Y-77622169D01*
X138565964Y-77622171D01*
X138466098Y-77836335D01*
X138466094Y-77836344D01*
X138404938Y-78064586D01*
X138404936Y-78064596D01*
X138384341Y-78299999D01*
X138384341Y-78300000D01*
X134155659Y-78300000D01*
X134135063Y-78064592D01*
X134073903Y-77836337D01*
X133974035Y-77622171D01*
X133968425Y-77614158D01*
X133838494Y-77428597D01*
X133671402Y-77261506D01*
X133671395Y-77261501D01*
X133477834Y-77125967D01*
X133477830Y-77125965D01*
X133376532Y-77078729D01*
X133263663Y-77026097D01*
X133263659Y-77026096D01*
X133263655Y-77026094D01*
X133035413Y-76964938D01*
X133035403Y-76964936D01*
X132800001Y-76944341D01*
X132799999Y-76944341D01*
X132564596Y-76964936D01*
X132564586Y-76964938D01*
X132336344Y-77026094D01*
X132336335Y-77026098D01*
X132122171Y-77125964D01*
X132122169Y-77125965D01*
X131928597Y-77261505D01*
X131761505Y-77428597D01*
X131631575Y-77614158D01*
X131576998Y-77657783D01*
X131507500Y-77664977D01*
X131445145Y-77633454D01*
X131428425Y-77614158D01*
X131298494Y-77428597D01*
X131131402Y-77261506D01*
X131131395Y-77261501D01*
X130937834Y-77125967D01*
X130937830Y-77125965D01*
X130836532Y-77078729D01*
X130723663Y-77026097D01*
X130723659Y-77026096D01*
X130723655Y-77026094D01*
X130495413Y-76964938D01*
X130495403Y-76964936D01*
X130260001Y-76944341D01*
X130259999Y-76944341D01*
X130024596Y-76964936D01*
X130024586Y-76964938D01*
X129796344Y-77026094D01*
X129796335Y-77026098D01*
X129582171Y-77125964D01*
X129582169Y-77125965D01*
X129388597Y-77261505D01*
X129221505Y-77428597D01*
X129091575Y-77614158D01*
X129036998Y-77657783D01*
X128967500Y-77664977D01*
X128905145Y-77633454D01*
X128888425Y-77614158D01*
X128758494Y-77428597D01*
X128591402Y-77261506D01*
X128591395Y-77261501D01*
X128397834Y-77125967D01*
X128397830Y-77125965D01*
X128296532Y-77078729D01*
X128183663Y-77026097D01*
X128183659Y-77026096D01*
X128183655Y-77026094D01*
X127955413Y-76964938D01*
X127955403Y-76964936D01*
X127720001Y-76944341D01*
X127719999Y-76944341D01*
X127484596Y-76964936D01*
X127484586Y-76964938D01*
X127256344Y-77026094D01*
X127256335Y-77026098D01*
X127042171Y-77125964D01*
X127042169Y-77125965D01*
X126848597Y-77261505D01*
X126681505Y-77428597D01*
X126551575Y-77614158D01*
X126496998Y-77657783D01*
X126427500Y-77664977D01*
X126365145Y-77633454D01*
X126348425Y-77614158D01*
X126218494Y-77428597D01*
X126051402Y-77261506D01*
X126051395Y-77261501D01*
X125857834Y-77125967D01*
X125857830Y-77125965D01*
X125756532Y-77078729D01*
X125643663Y-77026097D01*
X125643659Y-77026096D01*
X125643655Y-77026094D01*
X125415413Y-76964938D01*
X125415403Y-76964936D01*
X125180001Y-76944341D01*
X125179999Y-76944341D01*
X124944596Y-76964936D01*
X124944586Y-76964938D01*
X124716344Y-77026094D01*
X124716335Y-77026098D01*
X124502171Y-77125964D01*
X124502169Y-77125965D01*
X124308597Y-77261505D01*
X124141505Y-77428597D01*
X124011575Y-77614158D01*
X123956998Y-77657783D01*
X123887500Y-77664977D01*
X123825145Y-77633454D01*
X123808425Y-77614158D01*
X123678494Y-77428597D01*
X123511402Y-77261506D01*
X123511395Y-77261501D01*
X123317834Y-77125967D01*
X123317830Y-77125965D01*
X123216532Y-77078729D01*
X123103663Y-77026097D01*
X123103659Y-77026096D01*
X123103655Y-77026094D01*
X122875413Y-76964938D01*
X122875403Y-76964936D01*
X122640001Y-76944341D01*
X122639999Y-76944341D01*
X122404596Y-76964936D01*
X122404586Y-76964938D01*
X122176344Y-77026094D01*
X122176335Y-77026098D01*
X121962171Y-77125964D01*
X121962169Y-77125965D01*
X121768597Y-77261505D01*
X121601505Y-77428597D01*
X121465965Y-77622169D01*
X121465964Y-77622171D01*
X121366098Y-77836335D01*
X121366094Y-77836344D01*
X121304938Y-78064586D01*
X121304936Y-78064596D01*
X121284341Y-78299999D01*
X121284341Y-78300000D01*
X116386372Y-78300000D01*
X116401182Y-78064596D01*
X116405246Y-78000005D01*
X116405246Y-77999994D01*
X116386281Y-77698553D01*
X116386280Y-77698546D01*
X116386280Y-77698543D01*
X116329681Y-77401840D01*
X116236341Y-77114570D01*
X116217901Y-77075384D01*
X116182765Y-77000716D01*
X116107733Y-76841264D01*
X115945885Y-76586232D01*
X115753349Y-76353496D01*
X115533162Y-76146726D01*
X115533159Y-76146724D01*
X115533153Y-76146719D01*
X115288806Y-75969191D01*
X115288799Y-75969186D01*
X115288795Y-75969184D01*
X115024104Y-75823668D01*
X115024101Y-75823666D01*
X115024096Y-75823664D01*
X115024095Y-75823663D01*
X114743265Y-75712475D01*
X114743262Y-75712474D01*
X114450695Y-75637357D01*
X114151036Y-75599500D01*
X114151027Y-75599500D01*
X113848973Y-75599500D01*
X113848963Y-75599500D01*
X113549304Y-75637357D01*
X113256737Y-75712474D01*
X113256734Y-75712475D01*
X112975904Y-75823663D01*
X112975903Y-75823664D01*
X112711205Y-75969184D01*
X112711193Y-75969191D01*
X112466846Y-76146719D01*
X112466836Y-76146727D01*
X112246652Y-76353494D01*
X112054111Y-76586236D01*
X111892268Y-76841261D01*
X111892265Y-76841267D01*
X111763661Y-77114563D01*
X111763659Y-77114568D01*
X111670320Y-77401835D01*
X111613719Y-77698546D01*
X111613718Y-77698553D01*
X111594754Y-77999994D01*
X111594754Y-78000005D01*
X111200548Y-78000005D01*
X111200597Y-77998262D01*
X111217429Y-77698553D01*
X111217908Y-77690021D01*
X111218684Y-77683132D01*
X111270105Y-77380489D01*
X111271653Y-77373706D01*
X111356636Y-77078723D01*
X111358929Y-77072171D01*
X111476411Y-76788543D01*
X111479414Y-76782308D01*
X111627912Y-76513621D01*
X111631608Y-76507740D01*
X111809256Y-76257367D01*
X111813570Y-76251957D01*
X112018135Y-76023050D01*
X112023053Y-76018133D01*
X112251957Y-75813570D01*
X112257367Y-75809256D01*
X112507740Y-75631608D01*
X112513621Y-75627912D01*
X112782308Y-75479414D01*
X112788543Y-75476411D01*
X113072171Y-75358929D01*
X113078723Y-75356636D01*
X113373710Y-75271652D01*
X113380490Y-75270105D01*
X113683134Y-75218684D01*
X113690021Y-75217908D01*
X113858267Y-75208459D01*
X113998265Y-75200598D01*
X114001742Y-75200500D01*
X114039882Y-75200500D01*
X155960118Y-75200500D01*
X155998258Y-75200500D01*
X156001735Y-75200598D01*
G37*
G04 #@! TD.AperFunction*
M02*
