%TF.GenerationSoftware,KiCad,Pcbnew,7.0.5*%
%TF.CreationDate,2023-08-11T11:44:44-04:00*%
%TF.ProjectId,Tadpole,54616470-6f6c-4652-9e6b-696361645f70,rev?*%
%TF.SameCoordinates,Original*%
%TF.FileFunction,Drillmap*%
%TF.FilePolarity,Positive*%
%FSLAX45Y45*%
G04 Gerber Fmt 4.5, Leading zero omitted, Abs format (unit mm)*
G04 Created by KiCad (PCBNEW 7.0.5) date 2023-08-11 11:44:44*
%MOMM*%
%LPD*%
G01*
G04 APERTURE LIST*
%ADD10C,0.100000*%
%ADD11C,0.200000*%
G04 APERTURE END LIST*
D10*
X11100000Y-12000000D02*
G75*
G03*
X11400000Y-12300000I300000J0D01*
G01*
X15600000Y-12300000D02*
G75*
G03*
X15900000Y-12000000I0J300000D01*
G01*
X15600000Y-12300000D02*
X11400000Y-12300000D01*
X11400000Y-7500000D02*
G75*
G03*
X11100000Y-7800000I0J-300000D01*
G01*
X11100000Y-12000000D02*
X11100000Y-7800000D01*
X15900000Y-7800000D02*
G75*
G03*
X15600000Y-7500000I-300000J0D01*
G01*
X15900000Y-7800000D02*
X15900000Y-12000000D01*
X11400000Y-7500000D02*
X15600000Y-7500000D01*
D11*
X11355777Y-12616484D02*
X11355777Y-12416484D01*
X11355777Y-12416484D02*
X11403396Y-12416484D01*
X11403396Y-12416484D02*
X11431967Y-12426008D01*
X11431967Y-12426008D02*
X11451015Y-12445055D01*
X11451015Y-12445055D02*
X11460539Y-12464103D01*
X11460539Y-12464103D02*
X11470062Y-12502198D01*
X11470062Y-12502198D02*
X11470062Y-12530769D01*
X11470062Y-12530769D02*
X11460539Y-12568865D01*
X11460539Y-12568865D02*
X11451015Y-12587912D01*
X11451015Y-12587912D02*
X11431967Y-12606960D01*
X11431967Y-12606960D02*
X11403396Y-12616484D01*
X11403396Y-12616484D02*
X11355777Y-12616484D01*
X11555777Y-12616484D02*
X11555777Y-12483150D01*
X11555777Y-12521246D02*
X11565301Y-12502198D01*
X11565301Y-12502198D02*
X11574824Y-12492674D01*
X11574824Y-12492674D02*
X11593872Y-12483150D01*
X11593872Y-12483150D02*
X11612920Y-12483150D01*
X11679586Y-12616484D02*
X11679586Y-12483150D01*
X11679586Y-12416484D02*
X11670062Y-12426008D01*
X11670062Y-12426008D02*
X11679586Y-12435531D01*
X11679586Y-12435531D02*
X11689110Y-12426008D01*
X11689110Y-12426008D02*
X11679586Y-12416484D01*
X11679586Y-12416484D02*
X11679586Y-12435531D01*
X11803396Y-12616484D02*
X11784348Y-12606960D01*
X11784348Y-12606960D02*
X11774824Y-12587912D01*
X11774824Y-12587912D02*
X11774824Y-12416484D01*
X11908158Y-12616484D02*
X11889110Y-12606960D01*
X11889110Y-12606960D02*
X11879586Y-12587912D01*
X11879586Y-12587912D02*
X11879586Y-12416484D01*
X12136729Y-12616484D02*
X12136729Y-12416484D01*
X12136729Y-12416484D02*
X12203396Y-12559341D01*
X12203396Y-12559341D02*
X12270062Y-12416484D01*
X12270062Y-12416484D02*
X12270062Y-12616484D01*
X12451015Y-12616484D02*
X12451015Y-12511722D01*
X12451015Y-12511722D02*
X12441491Y-12492674D01*
X12441491Y-12492674D02*
X12422443Y-12483150D01*
X12422443Y-12483150D02*
X12384348Y-12483150D01*
X12384348Y-12483150D02*
X12365301Y-12492674D01*
X12451015Y-12606960D02*
X12431967Y-12616484D01*
X12431967Y-12616484D02*
X12384348Y-12616484D01*
X12384348Y-12616484D02*
X12365301Y-12606960D01*
X12365301Y-12606960D02*
X12355777Y-12587912D01*
X12355777Y-12587912D02*
X12355777Y-12568865D01*
X12355777Y-12568865D02*
X12365301Y-12549817D01*
X12365301Y-12549817D02*
X12384348Y-12540293D01*
X12384348Y-12540293D02*
X12431967Y-12540293D01*
X12431967Y-12540293D02*
X12451015Y-12530769D01*
X12546253Y-12483150D02*
X12546253Y-12683150D01*
X12546253Y-12492674D02*
X12565301Y-12483150D01*
X12565301Y-12483150D02*
X12603396Y-12483150D01*
X12603396Y-12483150D02*
X12622443Y-12492674D01*
X12622443Y-12492674D02*
X12631967Y-12502198D01*
X12631967Y-12502198D02*
X12641491Y-12521246D01*
X12641491Y-12521246D02*
X12641491Y-12578388D01*
X12641491Y-12578388D02*
X12631967Y-12597436D01*
X12631967Y-12597436D02*
X12622443Y-12606960D01*
X12622443Y-12606960D02*
X12603396Y-12616484D01*
X12603396Y-12616484D02*
X12565301Y-12616484D01*
X12565301Y-12616484D02*
X12546253Y-12606960D01*
X12727205Y-12597436D02*
X12736729Y-12606960D01*
X12736729Y-12606960D02*
X12727205Y-12616484D01*
X12727205Y-12616484D02*
X12717682Y-12606960D01*
X12717682Y-12606960D02*
X12727205Y-12597436D01*
X12727205Y-12597436D02*
X12727205Y-12616484D01*
X12727205Y-12492674D02*
X12736729Y-12502198D01*
X12736729Y-12502198D02*
X12727205Y-12511722D01*
X12727205Y-12511722D02*
X12717682Y-12502198D01*
X12717682Y-12502198D02*
X12727205Y-12492674D01*
X12727205Y-12492674D02*
X12727205Y-12511722D01*
M02*
