G04 #@! TF.GenerationSoftware,KiCad,Pcbnew,7.0.5*
G04 #@! TF.CreationDate,2023-08-11T11:43:47-04:00*
G04 #@! TF.ProjectId,Tadpole,54616470-6f6c-4652-9e6b-696361645f70,rev?*
G04 #@! TF.SameCoordinates,Original*
G04 #@! TF.FileFunction,Soldermask,Top*
G04 #@! TF.FilePolarity,Negative*
%FSLAX46Y46*%
G04 Gerber Fmt 4.6, Leading zero omitted, Abs format (unit mm)*
G04 Created by KiCad (PCBNEW 7.0.5) date 2023-08-11 11:43:47*
%MOMM*%
%LPD*%
G01*
G04 APERTURE LIST*
G04 Aperture macros list*
%AMRoundRect*
0 Rectangle with rounded corners*
0 $1 Rounding radius*
0 $2 $3 $4 $5 $6 $7 $8 $9 X,Y pos of 4 corners*
0 Add a 4 corners polygon primitive as box body*
4,1,4,$2,$3,$4,$5,$6,$7,$8,$9,$2,$3,0*
0 Add four circle primitives for the rounded corners*
1,1,$1+$1,$2,$3*
1,1,$1+$1,$4,$5*
1,1,$1+$1,$6,$7*
1,1,$1+$1,$8,$9*
0 Add four rect primitives between the rounded corners*
20,1,$1+$1,$2,$3,$4,$5,0*
20,1,$1+$1,$4,$5,$6,$7,0*
20,1,$1+$1,$6,$7,$8,$9,0*
20,1,$1+$1,$8,$9,$2,$3,0*%
G04 Aperture macros list end*
%ADD10O,1.800000X1.800000*%
%ADD11RoundRect,0.050000X0.850000X0.850000X-0.850000X0.850000X-0.850000X-0.850000X0.850000X-0.850000X0*%
%ADD12RoundRect,0.050000X0.850000X-0.850000X0.850000X0.850000X-0.850000X0.850000X-0.850000X-0.850000X0*%
%ADD13RoundRect,0.050000X-0.850000X0.850000X-0.850000X-0.850000X0.850000X-0.850000X0.850000X0.850000X0*%
%ADD14RoundRect,0.050000X1.900000X-1.900000X1.900000X1.900000X-1.900000X1.900000X-1.900000X-1.900000X0*%
%ADD15C,3.900000*%
%ADD16C,1.800000*%
G04 APERTURE END LIST*
D10*
X156000000Y-97610000D03*
X156000000Y-95070000D03*
D11*
X156000000Y-92530000D03*
X156000000Y-89990000D03*
D10*
X156000000Y-87450000D03*
X120100000Y-119400000D03*
X122640000Y-119400000D03*
X125180000Y-119400000D03*
X127720000Y-119400000D03*
X130260000Y-119400000D03*
D12*
X132800000Y-119400000D03*
D10*
X137000000Y-119400000D03*
X139540000Y-119400000D03*
X142080000Y-119400000D03*
X144620000Y-119400000D03*
X147160000Y-119400000D03*
D12*
X149700000Y-119400000D03*
D10*
X132800000Y-78300000D03*
X130260000Y-78300000D03*
X127720000Y-78300000D03*
X125180000Y-78300000D03*
X122640000Y-78300000D03*
D13*
X120100000Y-78300000D03*
D10*
X149900000Y-78300000D03*
X147360000Y-78300000D03*
X144820000Y-78300000D03*
X142280000Y-78300000D03*
X139740000Y-78300000D03*
D13*
X137200000Y-78300000D03*
D14*
X154600000Y-110000000D03*
D15*
X154600000Y-105000000D03*
D10*
X148295000Y-110300000D03*
X145755000Y-110300000D03*
X143215000Y-110300000D03*
X140675000Y-110300000D03*
X138135000Y-110300000D03*
X135595000Y-110300000D03*
X133055000Y-110300000D03*
X130515000Y-110300000D03*
X127975000Y-110300000D03*
D16*
X117815200Y-104521000D03*
X120355200Y-104521000D03*
X122895200Y-104521000D03*
X125435200Y-104521000D03*
X120355200Y-89281000D03*
X127975200Y-104521000D03*
X130515200Y-104521000D03*
X133055200Y-104521000D03*
X135595200Y-104521000D03*
X138135200Y-104521000D03*
X140675200Y-104521000D03*
X143215200Y-104521000D03*
X145755200Y-104521000D03*
X148295200Y-104521000D03*
X148295200Y-89281000D03*
X145755200Y-89281000D03*
X143215200Y-89281000D03*
X140675200Y-89281000D03*
X138135200Y-89281000D03*
X135595200Y-89281000D03*
X133055200Y-89281000D03*
X130515200Y-89281000D03*
X127975200Y-89281000D03*
X125435200Y-89281000D03*
X122895200Y-89281000D03*
X117815200Y-89281000D03*
X115275200Y-104521000D03*
X115275200Y-89281000D03*
X144500000Y-100100000D03*
X147040000Y-100100000D03*
X149580000Y-100100000D03*
X136880000Y-112800000D03*
D13*
X139420000Y-112800000D03*
D16*
X141960000Y-112800000D03*
X144500000Y-112800000D03*
X147040000Y-112800000D03*
D13*
X149580000Y-112800000D03*
D16*
X127950000Y-100070000D03*
X130490000Y-100070000D03*
X133030000Y-100070000D03*
X120330000Y-112770000D03*
D13*
X122870000Y-112770000D03*
D16*
X125410000Y-112770000D03*
X127950000Y-112770000D03*
X130490000Y-112770000D03*
D13*
X133030000Y-112770000D03*
D16*
X144500000Y-82524600D03*
X147040000Y-82524600D03*
X149580000Y-82524600D03*
X136880000Y-95224600D03*
D13*
X139420000Y-95224600D03*
D16*
X141960000Y-95224600D03*
X144500000Y-95224600D03*
X147040000Y-95224600D03*
D13*
X149580000Y-95224600D03*
X133130000Y-95224600D03*
D16*
X130590000Y-95224600D03*
X128050000Y-95224600D03*
X125510000Y-95224600D03*
D13*
X122970000Y-95224600D03*
D16*
X120430000Y-95224600D03*
X133130000Y-82524600D03*
X130590000Y-82524600D03*
X128050000Y-82524600D03*
D15*
X114000000Y-120000000D03*
X156000000Y-78000000D03*
X156000000Y-120000000D03*
X114000000Y-78000000D03*
M02*
