G04 #@! TF.GenerationSoftware,KiCad,Pcbnew,7.0.5*
G04 #@! TF.CreationDate,2023-08-11T11:43:47-04:00*
G04 #@! TF.ProjectId,Tadpole,54616470-6f6c-4652-9e6b-696361645f70,rev?*
G04 #@! TF.SameCoordinates,Original*
G04 #@! TF.FileFunction,Legend,Bot*
G04 #@! TF.FilePolarity,Positive*
%FSLAX46Y46*%
G04 Gerber Fmt 4.6, Leading zero omitted, Abs format (unit mm)*
G04 Created by KiCad (PCBNEW 7.0.5) date 2023-08-11 11:43:47*
%MOMM*%
%LPD*%
G01*
G04 APERTURE LIST*
G04 Aperture macros list*
%AMRoundRect*
0 Rectangle with rounded corners*
0 $1 Rounding radius*
0 $2 $3 $4 $5 $6 $7 $8 $9 X,Y pos of 4 corners*
0 Add a 4 corners polygon primitive as box body*
4,1,4,$2,$3,$4,$5,$6,$7,$8,$9,$2,$3,0*
0 Add four circle primitives for the rounded corners*
1,1,$1+$1,$2,$3*
1,1,$1+$1,$4,$5*
1,1,$1+$1,$6,$7*
1,1,$1+$1,$8,$9*
0 Add four rect primitives between the rounded corners*
20,1,$1+$1,$2,$3,$4,$5,0*
20,1,$1+$1,$4,$5,$6,$7,0*
20,1,$1+$1,$6,$7,$8,$9,0*
20,1,$1+$1,$8,$9,$2,$3,0*%
G04 Aperture macros list end*
%ADD10C,0.150000*%
%ADD11C,0.125000*%
%ADD12C,0.100000*%
%ADD13O,1.800000X1.800000*%
%ADD14RoundRect,0.050000X0.850000X0.850000X-0.850000X0.850000X-0.850000X-0.850000X0.850000X-0.850000X0*%
%ADD15RoundRect,0.050000X0.850000X-0.850000X0.850000X0.850000X-0.850000X0.850000X-0.850000X-0.850000X0*%
%ADD16RoundRect,0.050000X-0.850000X0.850000X-0.850000X-0.850000X0.850000X-0.850000X0.850000X0.850000X0*%
%ADD17RoundRect,0.050000X1.900000X-1.900000X1.900000X1.900000X-1.900000X1.900000X-1.900000X-1.900000X0*%
%ADD18C,3.900000*%
%ADD19C,1.800000*%
G04 APERTURE END LIST*
D10*
X115700000Y-95850000D02*
X115700000Y-99500000D01*
X113400000Y-97750000D02*
X118150000Y-97750000D01*
D11*
X117759523Y-99271119D02*
X117759523Y-98271119D01*
X117759523Y-98271119D02*
X117426190Y-98985404D01*
X117426190Y-98985404D02*
X117092857Y-98271119D01*
X117092857Y-98271119D02*
X117092857Y-99271119D01*
X116092857Y-99271119D02*
X116664285Y-99271119D01*
X116378571Y-99271119D02*
X116378571Y-98271119D01*
X116378571Y-98271119D02*
X116473809Y-98413976D01*
X116473809Y-98413976D02*
X116569047Y-98509214D01*
X116569047Y-98509214D02*
X116664285Y-98556833D01*
X115209523Y-99271119D02*
X115209523Y-98271119D01*
X115209523Y-98271119D02*
X114876190Y-98985404D01*
X114876190Y-98985404D02*
X114542857Y-98271119D01*
X114542857Y-98271119D02*
X114542857Y-99271119D01*
X114114285Y-98366357D02*
X114066666Y-98318738D01*
X114066666Y-98318738D02*
X113971428Y-98271119D01*
X113971428Y-98271119D02*
X113733333Y-98271119D01*
X113733333Y-98271119D02*
X113638095Y-98318738D01*
X113638095Y-98318738D02*
X113590476Y-98366357D01*
X113590476Y-98366357D02*
X113542857Y-98461595D01*
X113542857Y-98461595D02*
X113542857Y-98556833D01*
X113542857Y-98556833D02*
X113590476Y-98699690D01*
X113590476Y-98699690D02*
X114161904Y-99271119D01*
X114161904Y-99271119D02*
X113542857Y-99271119D01*
X117809523Y-97171119D02*
X117809523Y-96171119D01*
X117809523Y-96171119D02*
X117476190Y-96885404D01*
X117476190Y-96885404D02*
X117142857Y-96171119D01*
X117142857Y-96171119D02*
X117142857Y-97171119D01*
X116238095Y-96504452D02*
X116238095Y-97171119D01*
X116476190Y-96123500D02*
X116714285Y-96837785D01*
X116714285Y-96837785D02*
X116095238Y-96837785D01*
X115259523Y-97171119D02*
X115259523Y-96171119D01*
X115259523Y-96171119D02*
X114926190Y-96885404D01*
X114926190Y-96885404D02*
X114592857Y-96171119D01*
X114592857Y-96171119D02*
X114592857Y-97171119D01*
X114211904Y-96171119D02*
X113592857Y-96171119D01*
X113592857Y-96171119D02*
X113926190Y-96552071D01*
X113926190Y-96552071D02*
X113783333Y-96552071D01*
X113783333Y-96552071D02*
X113688095Y-96599690D01*
X113688095Y-96599690D02*
X113640476Y-96647309D01*
X113640476Y-96647309D02*
X113592857Y-96742547D01*
X113592857Y-96742547D02*
X113592857Y-96980642D01*
X113592857Y-96980642D02*
X113640476Y-97075880D01*
X113640476Y-97075880D02*
X113688095Y-97123500D01*
X113688095Y-97123500D02*
X113783333Y-97171119D01*
X113783333Y-97171119D02*
X114069047Y-97171119D01*
X114069047Y-97171119D02*
X114164285Y-97123500D01*
X114164285Y-97123500D02*
X114211904Y-97075880D01*
X149635713Y-109073500D02*
X149492856Y-109121119D01*
X149492856Y-109121119D02*
X149254761Y-109121119D01*
X149254761Y-109121119D02*
X149159523Y-109073500D01*
X149159523Y-109073500D02*
X149111904Y-109025880D01*
X149111904Y-109025880D02*
X149064285Y-108930642D01*
X149064285Y-108930642D02*
X149064285Y-108835404D01*
X149064285Y-108835404D02*
X149111904Y-108740166D01*
X149111904Y-108740166D02*
X149159523Y-108692547D01*
X149159523Y-108692547D02*
X149254761Y-108644928D01*
X149254761Y-108644928D02*
X149445237Y-108597309D01*
X149445237Y-108597309D02*
X149540475Y-108549690D01*
X149540475Y-108549690D02*
X149588094Y-108502071D01*
X149588094Y-108502071D02*
X149635713Y-108406833D01*
X149635713Y-108406833D02*
X149635713Y-108311595D01*
X149635713Y-108311595D02*
X149588094Y-108216357D01*
X149588094Y-108216357D02*
X149540475Y-108168738D01*
X149540475Y-108168738D02*
X149445237Y-108121119D01*
X149445237Y-108121119D02*
X149207142Y-108121119D01*
X149207142Y-108121119D02*
X149064285Y-108168738D01*
X148064285Y-109025880D02*
X148111904Y-109073500D01*
X148111904Y-109073500D02*
X148254761Y-109121119D01*
X148254761Y-109121119D02*
X148349999Y-109121119D01*
X148349999Y-109121119D02*
X148492856Y-109073500D01*
X148492856Y-109073500D02*
X148588094Y-108978261D01*
X148588094Y-108978261D02*
X148635713Y-108883023D01*
X148635713Y-108883023D02*
X148683332Y-108692547D01*
X148683332Y-108692547D02*
X148683332Y-108549690D01*
X148683332Y-108549690D02*
X148635713Y-108359214D01*
X148635713Y-108359214D02*
X148588094Y-108263976D01*
X148588094Y-108263976D02*
X148492856Y-108168738D01*
X148492856Y-108168738D02*
X148349999Y-108121119D01*
X148349999Y-108121119D02*
X148254761Y-108121119D01*
X148254761Y-108121119D02*
X148111904Y-108168738D01*
X148111904Y-108168738D02*
X148064285Y-108216357D01*
X147635713Y-109121119D02*
X147635713Y-108121119D01*
X147064285Y-109121119D02*
X147492856Y-108549690D01*
X147064285Y-108121119D02*
X147635713Y-108692547D01*
X147321427Y-107671119D02*
X147321427Y-106671119D01*
X147321427Y-106671119D02*
X146988094Y-107385404D01*
X146988094Y-107385404D02*
X146654761Y-106671119D01*
X146654761Y-106671119D02*
X146654761Y-107671119D01*
X146178570Y-107671119D02*
X146178570Y-106671119D01*
X145749999Y-107623500D02*
X145607142Y-107671119D01*
X145607142Y-107671119D02*
X145369047Y-107671119D01*
X145369047Y-107671119D02*
X145273809Y-107623500D01*
X145273809Y-107623500D02*
X145226190Y-107575880D01*
X145226190Y-107575880D02*
X145178571Y-107480642D01*
X145178571Y-107480642D02*
X145178571Y-107385404D01*
X145178571Y-107385404D02*
X145226190Y-107290166D01*
X145226190Y-107290166D02*
X145273809Y-107242547D01*
X145273809Y-107242547D02*
X145369047Y-107194928D01*
X145369047Y-107194928D02*
X145559523Y-107147309D01*
X145559523Y-107147309D02*
X145654761Y-107099690D01*
X145654761Y-107099690D02*
X145702380Y-107052071D01*
X145702380Y-107052071D02*
X145749999Y-106956833D01*
X145749999Y-106956833D02*
X145749999Y-106861595D01*
X145749999Y-106861595D02*
X145702380Y-106766357D01*
X145702380Y-106766357D02*
X145654761Y-106718738D01*
X145654761Y-106718738D02*
X145559523Y-106671119D01*
X145559523Y-106671119D02*
X145321428Y-106671119D01*
X145321428Y-106671119D02*
X145178571Y-106718738D01*
X144559523Y-106671119D02*
X144369047Y-106671119D01*
X144369047Y-106671119D02*
X144273809Y-106718738D01*
X144273809Y-106718738D02*
X144178571Y-106813976D01*
X144178571Y-106813976D02*
X144130952Y-107004452D01*
X144130952Y-107004452D02*
X144130952Y-107337785D01*
X144130952Y-107337785D02*
X144178571Y-107528261D01*
X144178571Y-107528261D02*
X144273809Y-107623500D01*
X144273809Y-107623500D02*
X144369047Y-107671119D01*
X144369047Y-107671119D02*
X144559523Y-107671119D01*
X144559523Y-107671119D02*
X144654761Y-107623500D01*
X144654761Y-107623500D02*
X144749999Y-107528261D01*
X144749999Y-107528261D02*
X144797618Y-107337785D01*
X144797618Y-107337785D02*
X144797618Y-107004452D01*
X144797618Y-107004452D02*
X144749999Y-106813976D01*
X144749999Y-106813976D02*
X144654761Y-106718738D01*
X144654761Y-106718738D02*
X144559523Y-106671119D01*
X145071427Y-108971119D02*
X145071427Y-107971119D01*
X145071427Y-107971119D02*
X144738094Y-108685404D01*
X144738094Y-108685404D02*
X144404761Y-107971119D01*
X144404761Y-107971119D02*
X144404761Y-108971119D01*
X143738094Y-107971119D02*
X143547618Y-107971119D01*
X143547618Y-107971119D02*
X143452380Y-108018738D01*
X143452380Y-108018738D02*
X143357142Y-108113976D01*
X143357142Y-108113976D02*
X143309523Y-108304452D01*
X143309523Y-108304452D02*
X143309523Y-108637785D01*
X143309523Y-108637785D02*
X143357142Y-108828261D01*
X143357142Y-108828261D02*
X143452380Y-108923500D01*
X143452380Y-108923500D02*
X143547618Y-108971119D01*
X143547618Y-108971119D02*
X143738094Y-108971119D01*
X143738094Y-108971119D02*
X143833332Y-108923500D01*
X143833332Y-108923500D02*
X143928570Y-108828261D01*
X143928570Y-108828261D02*
X143976189Y-108637785D01*
X143976189Y-108637785D02*
X143976189Y-108304452D01*
X143976189Y-108304452D02*
X143928570Y-108113976D01*
X143928570Y-108113976D02*
X143833332Y-108018738D01*
X143833332Y-108018738D02*
X143738094Y-107971119D01*
X142928570Y-108923500D02*
X142785713Y-108971119D01*
X142785713Y-108971119D02*
X142547618Y-108971119D01*
X142547618Y-108971119D02*
X142452380Y-108923500D01*
X142452380Y-108923500D02*
X142404761Y-108875880D01*
X142404761Y-108875880D02*
X142357142Y-108780642D01*
X142357142Y-108780642D02*
X142357142Y-108685404D01*
X142357142Y-108685404D02*
X142404761Y-108590166D01*
X142404761Y-108590166D02*
X142452380Y-108542547D01*
X142452380Y-108542547D02*
X142547618Y-108494928D01*
X142547618Y-108494928D02*
X142738094Y-108447309D01*
X142738094Y-108447309D02*
X142833332Y-108399690D01*
X142833332Y-108399690D02*
X142880951Y-108352071D01*
X142880951Y-108352071D02*
X142928570Y-108256833D01*
X142928570Y-108256833D02*
X142928570Y-108161595D01*
X142928570Y-108161595D02*
X142880951Y-108066357D01*
X142880951Y-108066357D02*
X142833332Y-108018738D01*
X142833332Y-108018738D02*
X142738094Y-107971119D01*
X142738094Y-107971119D02*
X142499999Y-107971119D01*
X142499999Y-107971119D02*
X142357142Y-108018738D01*
X141928570Y-108971119D02*
X141928570Y-107971119D01*
X140816666Y-108875880D02*
X140864285Y-108923500D01*
X140864285Y-108923500D02*
X141007142Y-108971119D01*
X141007142Y-108971119D02*
X141102380Y-108971119D01*
X141102380Y-108971119D02*
X141245237Y-108923500D01*
X141245237Y-108923500D02*
X141340475Y-108828261D01*
X141340475Y-108828261D02*
X141388094Y-108733023D01*
X141388094Y-108733023D02*
X141435713Y-108542547D01*
X141435713Y-108542547D02*
X141435713Y-108399690D01*
X141435713Y-108399690D02*
X141388094Y-108209214D01*
X141388094Y-108209214D02*
X141340475Y-108113976D01*
X141340475Y-108113976D02*
X141245237Y-108018738D01*
X141245237Y-108018738D02*
X141102380Y-107971119D01*
X141102380Y-107971119D02*
X141007142Y-107971119D01*
X141007142Y-107971119D02*
X140864285Y-108018738D01*
X140864285Y-108018738D02*
X140816666Y-108066357D01*
X140435713Y-108923500D02*
X140292856Y-108971119D01*
X140292856Y-108971119D02*
X140054761Y-108971119D01*
X140054761Y-108971119D02*
X139959523Y-108923500D01*
X139959523Y-108923500D02*
X139911904Y-108875880D01*
X139911904Y-108875880D02*
X139864285Y-108780642D01*
X139864285Y-108780642D02*
X139864285Y-108685404D01*
X139864285Y-108685404D02*
X139911904Y-108590166D01*
X139911904Y-108590166D02*
X139959523Y-108542547D01*
X139959523Y-108542547D02*
X140054761Y-108494928D01*
X140054761Y-108494928D02*
X140245237Y-108447309D01*
X140245237Y-108447309D02*
X140340475Y-108399690D01*
X140340475Y-108399690D02*
X140388094Y-108352071D01*
X140388094Y-108352071D02*
X140435713Y-108256833D01*
X140435713Y-108256833D02*
X140435713Y-108161595D01*
X140435713Y-108161595D02*
X140388094Y-108066357D01*
X140388094Y-108066357D02*
X140340475Y-108018738D01*
X140340475Y-108018738D02*
X140245237Y-107971119D01*
X140245237Y-107971119D02*
X140007142Y-107971119D01*
X140007142Y-107971119D02*
X139864285Y-108018738D01*
X139273808Y-108971119D02*
X139273808Y-107971119D01*
X138226190Y-108971119D02*
X138559523Y-108494928D01*
X138797618Y-108971119D02*
X138797618Y-107971119D01*
X138797618Y-107971119D02*
X138416666Y-107971119D01*
X138416666Y-107971119D02*
X138321428Y-108018738D01*
X138321428Y-108018738D02*
X138273809Y-108066357D01*
X138273809Y-108066357D02*
X138226190Y-108161595D01*
X138226190Y-108161595D02*
X138226190Y-108304452D01*
X138226190Y-108304452D02*
X138273809Y-108399690D01*
X138273809Y-108399690D02*
X138321428Y-108447309D01*
X138321428Y-108447309D02*
X138416666Y-108494928D01*
X138416666Y-108494928D02*
X138797618Y-108494928D01*
X137130952Y-109066357D02*
X137226190Y-109018738D01*
X137226190Y-109018738D02*
X137321428Y-108923500D01*
X137321428Y-108923500D02*
X137464285Y-108780642D01*
X137464285Y-108780642D02*
X137559523Y-108733023D01*
X137559523Y-108733023D02*
X137654761Y-108733023D01*
X137607142Y-108971119D02*
X137702380Y-108923500D01*
X137702380Y-108923500D02*
X137797618Y-108828261D01*
X137797618Y-108828261D02*
X137845237Y-108637785D01*
X137845237Y-108637785D02*
X137845237Y-108304452D01*
X137845237Y-108304452D02*
X137797618Y-108113976D01*
X137797618Y-108113976D02*
X137702380Y-108018738D01*
X137702380Y-108018738D02*
X137607142Y-107971119D01*
X137607142Y-107971119D02*
X137416666Y-107971119D01*
X137416666Y-107971119D02*
X137321428Y-108018738D01*
X137321428Y-108018738D02*
X137226190Y-108113976D01*
X137226190Y-108113976D02*
X137178571Y-108304452D01*
X137178571Y-108304452D02*
X137178571Y-108637785D01*
X137178571Y-108637785D02*
X137226190Y-108828261D01*
X137226190Y-108828261D02*
X137321428Y-108923500D01*
X137321428Y-108923500D02*
X137416666Y-108971119D01*
X137416666Y-108971119D02*
X137607142Y-108971119D01*
X131511904Y-107868738D02*
X131607142Y-107821119D01*
X131607142Y-107821119D02*
X131749999Y-107821119D01*
X131749999Y-107821119D02*
X131892856Y-107868738D01*
X131892856Y-107868738D02*
X131988094Y-107963976D01*
X131988094Y-107963976D02*
X132035713Y-108059214D01*
X132035713Y-108059214D02*
X132083332Y-108249690D01*
X132083332Y-108249690D02*
X132083332Y-108392547D01*
X132083332Y-108392547D02*
X132035713Y-108583023D01*
X132035713Y-108583023D02*
X131988094Y-108678261D01*
X131988094Y-108678261D02*
X131892856Y-108773500D01*
X131892856Y-108773500D02*
X131749999Y-108821119D01*
X131749999Y-108821119D02*
X131654761Y-108821119D01*
X131654761Y-108821119D02*
X131511904Y-108773500D01*
X131511904Y-108773500D02*
X131464285Y-108725880D01*
X131464285Y-108725880D02*
X131464285Y-108392547D01*
X131464285Y-108392547D02*
X131654761Y-108392547D01*
X131035713Y-108821119D02*
X131035713Y-107821119D01*
X131035713Y-107821119D02*
X130464285Y-108821119D01*
X130464285Y-108821119D02*
X130464285Y-107821119D01*
X129988094Y-108821119D02*
X129988094Y-107821119D01*
X129988094Y-107821119D02*
X129749999Y-107821119D01*
X129749999Y-107821119D02*
X129607142Y-107868738D01*
X129607142Y-107868738D02*
X129511904Y-107963976D01*
X129511904Y-107963976D02*
X129464285Y-108059214D01*
X129464285Y-108059214D02*
X129416666Y-108249690D01*
X129416666Y-108249690D02*
X129416666Y-108392547D01*
X129416666Y-108392547D02*
X129464285Y-108583023D01*
X129464285Y-108583023D02*
X129511904Y-108678261D01*
X129511904Y-108678261D02*
X129607142Y-108773500D01*
X129607142Y-108773500D02*
X129749999Y-108821119D01*
X129749999Y-108821119D02*
X129988094Y-108821119D01*
X129040475Y-107821119D02*
X128707142Y-108821119D01*
X128707142Y-108821119D02*
X128373809Y-107821119D01*
X127611904Y-108773500D02*
X127707142Y-108821119D01*
X127707142Y-108821119D02*
X127897618Y-108821119D01*
X127897618Y-108821119D02*
X127992856Y-108773500D01*
X127992856Y-108773500D02*
X128040475Y-108725880D01*
X128040475Y-108725880D02*
X128088094Y-108630642D01*
X128088094Y-108630642D02*
X128088094Y-108344928D01*
X128088094Y-108344928D02*
X128040475Y-108249690D01*
X128040475Y-108249690D02*
X127992856Y-108202071D01*
X127992856Y-108202071D02*
X127897618Y-108154452D01*
X127897618Y-108154452D02*
X127707142Y-108154452D01*
X127707142Y-108154452D02*
X127611904Y-108202071D01*
X126754761Y-108773500D02*
X126849999Y-108821119D01*
X126849999Y-108821119D02*
X127040475Y-108821119D01*
X127040475Y-108821119D02*
X127135713Y-108773500D01*
X127135713Y-108773500D02*
X127183332Y-108725880D01*
X127183332Y-108725880D02*
X127230951Y-108630642D01*
X127230951Y-108630642D02*
X127230951Y-108344928D01*
X127230951Y-108344928D02*
X127183332Y-108249690D01*
X127183332Y-108249690D02*
X127135713Y-108202071D01*
X127135713Y-108202071D02*
X127040475Y-108154452D01*
X127040475Y-108154452D02*
X126849999Y-108154452D01*
X126849999Y-108154452D02*
X126754761Y-108202071D01*
X148540476Y-102868119D02*
X149111904Y-102868119D01*
X148826190Y-102868119D02*
X148826190Y-101868119D01*
X148826190Y-101868119D02*
X148921428Y-102010976D01*
X148921428Y-102010976D02*
X149016666Y-102106214D01*
X149016666Y-102106214D02*
X149111904Y-102153833D01*
X148159523Y-101963357D02*
X148111904Y-101915738D01*
X148111904Y-101915738D02*
X148016666Y-101868119D01*
X148016666Y-101868119D02*
X147778571Y-101868119D01*
X147778571Y-101868119D02*
X147683333Y-101915738D01*
X147683333Y-101915738D02*
X147635714Y-101963357D01*
X147635714Y-101963357D02*
X147588095Y-102058595D01*
X147588095Y-102058595D02*
X147588095Y-102153833D01*
X147588095Y-102153833D02*
X147635714Y-102296690D01*
X147635714Y-102296690D02*
X148207142Y-102868119D01*
X148207142Y-102868119D02*
X147588095Y-102868119D01*
X140890475Y-102821119D02*
X140699999Y-102821119D01*
X140699999Y-102821119D02*
X140604761Y-102773500D01*
X140604761Y-102773500D02*
X140557142Y-102725880D01*
X140557142Y-102725880D02*
X140461904Y-102583023D01*
X140461904Y-102583023D02*
X140414285Y-102392547D01*
X140414285Y-102392547D02*
X140414285Y-102011595D01*
X140414285Y-102011595D02*
X140461904Y-101916357D01*
X140461904Y-101916357D02*
X140509523Y-101868738D01*
X140509523Y-101868738D02*
X140604761Y-101821119D01*
X140604761Y-101821119D02*
X140795237Y-101821119D01*
X140795237Y-101821119D02*
X140890475Y-101868738D01*
X140890475Y-101868738D02*
X140938094Y-101916357D01*
X140938094Y-101916357D02*
X140985713Y-102011595D01*
X140985713Y-102011595D02*
X140985713Y-102249690D01*
X140985713Y-102249690D02*
X140938094Y-102344928D01*
X140938094Y-102344928D02*
X140890475Y-102392547D01*
X140890475Y-102392547D02*
X140795237Y-102440166D01*
X140795237Y-102440166D02*
X140604761Y-102440166D01*
X140604761Y-102440166D02*
X140509523Y-102392547D01*
X140509523Y-102392547D02*
X140461904Y-102344928D01*
X140461904Y-102344928D02*
X140414285Y-102249690D01*
X143390476Y-102868119D02*
X143961904Y-102868119D01*
X143676190Y-102868119D02*
X143676190Y-101868119D01*
X143676190Y-101868119D02*
X143771428Y-102010976D01*
X143771428Y-102010976D02*
X143866666Y-102106214D01*
X143866666Y-102106214D02*
X143961904Y-102153833D01*
X142771428Y-101868119D02*
X142676190Y-101868119D01*
X142676190Y-101868119D02*
X142580952Y-101915738D01*
X142580952Y-101915738D02*
X142533333Y-101963357D01*
X142533333Y-101963357D02*
X142485714Y-102058595D01*
X142485714Y-102058595D02*
X142438095Y-102249071D01*
X142438095Y-102249071D02*
X142438095Y-102487166D01*
X142438095Y-102487166D02*
X142485714Y-102677642D01*
X142485714Y-102677642D02*
X142533333Y-102772880D01*
X142533333Y-102772880D02*
X142580952Y-102820500D01*
X142580952Y-102820500D02*
X142676190Y-102868119D01*
X142676190Y-102868119D02*
X142771428Y-102868119D01*
X142771428Y-102868119D02*
X142866666Y-102820500D01*
X142866666Y-102820500D02*
X142914285Y-102772880D01*
X142914285Y-102772880D02*
X142961904Y-102677642D01*
X142961904Y-102677642D02*
X143009523Y-102487166D01*
X143009523Y-102487166D02*
X143009523Y-102249071D01*
X143009523Y-102249071D02*
X142961904Y-102058595D01*
X142961904Y-102058595D02*
X142914285Y-101963357D01*
X142914285Y-101963357D02*
X142866666Y-101915738D01*
X142866666Y-101915738D02*
X142771428Y-101868119D01*
X145990476Y-102868119D02*
X146561904Y-102868119D01*
X146276190Y-102868119D02*
X146276190Y-101868119D01*
X146276190Y-101868119D02*
X146371428Y-102010976D01*
X146371428Y-102010976D02*
X146466666Y-102106214D01*
X146466666Y-102106214D02*
X146561904Y-102153833D01*
X145038095Y-102868119D02*
X145609523Y-102868119D01*
X145323809Y-102868119D02*
X145323809Y-101868119D01*
X145323809Y-101868119D02*
X145419047Y-102010976D01*
X145419047Y-102010976D02*
X145514285Y-102106214D01*
X145514285Y-102106214D02*
X145609523Y-102153833D01*
D10*
X135500000Y-116800000D02*
X151300000Y-116800000D01*
X151300000Y-120700000D01*
X135500000Y-120700000D01*
X135500000Y-116800000D01*
D11*
X140205656Y-117971119D02*
X140205656Y-116971119D01*
X140205656Y-116971119D02*
X139872323Y-117685404D01*
X139872323Y-117685404D02*
X139538990Y-116971119D01*
X139538990Y-116971119D02*
X139538990Y-117971119D01*
X139110418Y-117066357D02*
X139062799Y-117018738D01*
X139062799Y-117018738D02*
X138967561Y-116971119D01*
X138967561Y-116971119D02*
X138729466Y-116971119D01*
X138729466Y-116971119D02*
X138634228Y-117018738D01*
X138634228Y-117018738D02*
X138586609Y-117066357D01*
X138586609Y-117066357D02*
X138538990Y-117161595D01*
X138538990Y-117161595D02*
X138538990Y-117256833D01*
X138538990Y-117256833D02*
X138586609Y-117399690D01*
X138586609Y-117399690D02*
X139158037Y-117971119D01*
X139158037Y-117971119D02*
X138538990Y-117971119D01*
X144938094Y-117685404D02*
X144461904Y-117685404D01*
X145033332Y-117971119D02*
X144699999Y-116971119D01*
X144699999Y-116971119D02*
X144366666Y-117971119D01*
X143390475Y-116971119D02*
X143057142Y-117971119D01*
X143057142Y-117971119D02*
X142723809Y-116971119D01*
X141961904Y-117923500D02*
X142057142Y-117971119D01*
X142057142Y-117971119D02*
X142247618Y-117971119D01*
X142247618Y-117971119D02*
X142342856Y-117923500D01*
X142342856Y-117923500D02*
X142390475Y-117875880D01*
X142390475Y-117875880D02*
X142438094Y-117780642D01*
X142438094Y-117780642D02*
X142438094Y-117494928D01*
X142438094Y-117494928D02*
X142390475Y-117399690D01*
X142390475Y-117399690D02*
X142342856Y-117352071D01*
X142342856Y-117352071D02*
X142247618Y-117304452D01*
X142247618Y-117304452D02*
X142057142Y-117304452D01*
X142057142Y-117304452D02*
X141961904Y-117352071D01*
X141104761Y-117923500D02*
X141199999Y-117971119D01*
X141199999Y-117971119D02*
X141390475Y-117971119D01*
X141390475Y-117971119D02*
X141485713Y-117923500D01*
X141485713Y-117923500D02*
X141533332Y-117875880D01*
X141533332Y-117875880D02*
X141580951Y-117780642D01*
X141580951Y-117780642D02*
X141580951Y-117494928D01*
X141580951Y-117494928D02*
X141533332Y-117399690D01*
X141533332Y-117399690D02*
X141485713Y-117352071D01*
X141485713Y-117352071D02*
X141390475Y-117304452D01*
X141390475Y-117304452D02*
X141199999Y-117304452D01*
X141199999Y-117304452D02*
X141104761Y-117352071D01*
X137509523Y-117971119D02*
X137509523Y-116971119D01*
X137509523Y-116971119D02*
X137176190Y-117685404D01*
X137176190Y-117685404D02*
X136842857Y-116971119D01*
X136842857Y-116971119D02*
X136842857Y-117971119D01*
X135842857Y-117971119D02*
X136414285Y-117971119D01*
X136128571Y-117971119D02*
X136128571Y-116971119D01*
X136128571Y-116971119D02*
X136223809Y-117113976D01*
X136223809Y-117113976D02*
X136319047Y-117209214D01*
X136319047Y-117209214D02*
X136414285Y-117256833D01*
X147128571Y-117447309D02*
X146985714Y-117494928D01*
X146985714Y-117494928D02*
X146938095Y-117542547D01*
X146938095Y-117542547D02*
X146890476Y-117637785D01*
X146890476Y-117637785D02*
X146890476Y-117780642D01*
X146890476Y-117780642D02*
X146938095Y-117875880D01*
X146938095Y-117875880D02*
X146985714Y-117923500D01*
X146985714Y-117923500D02*
X147080952Y-117971119D01*
X147080952Y-117971119D02*
X147461904Y-117971119D01*
X147461904Y-117971119D02*
X147461904Y-116971119D01*
X147461904Y-116971119D02*
X147128571Y-116971119D01*
X147128571Y-116971119D02*
X147033333Y-117018738D01*
X147033333Y-117018738D02*
X146985714Y-117066357D01*
X146985714Y-117066357D02*
X146938095Y-117161595D01*
X146938095Y-117161595D02*
X146938095Y-117256833D01*
X146938095Y-117256833D02*
X146985714Y-117352071D01*
X146985714Y-117352071D02*
X147033333Y-117399690D01*
X147033333Y-117399690D02*
X147128571Y-117447309D01*
X147128571Y-117447309D02*
X147461904Y-117447309D01*
X150461904Y-117018738D02*
X150557142Y-116971119D01*
X150557142Y-116971119D02*
X150699999Y-116971119D01*
X150699999Y-116971119D02*
X150842856Y-117018738D01*
X150842856Y-117018738D02*
X150938094Y-117113976D01*
X150938094Y-117113976D02*
X150985713Y-117209214D01*
X150985713Y-117209214D02*
X151033332Y-117399690D01*
X151033332Y-117399690D02*
X151033332Y-117542547D01*
X151033332Y-117542547D02*
X150985713Y-117733023D01*
X150985713Y-117733023D02*
X150938094Y-117828261D01*
X150938094Y-117828261D02*
X150842856Y-117923500D01*
X150842856Y-117923500D02*
X150699999Y-117971119D01*
X150699999Y-117971119D02*
X150604761Y-117971119D01*
X150604761Y-117971119D02*
X150461904Y-117923500D01*
X150461904Y-117923500D02*
X150414285Y-117875880D01*
X150414285Y-117875880D02*
X150414285Y-117542547D01*
X150414285Y-117542547D02*
X150604761Y-117542547D01*
X149985713Y-117971119D02*
X149985713Y-116971119D01*
X149985713Y-116971119D02*
X149414285Y-117971119D01*
X149414285Y-117971119D02*
X149414285Y-116971119D01*
X148938094Y-117971119D02*
X148938094Y-116971119D01*
X148938094Y-116971119D02*
X148699999Y-116971119D01*
X148699999Y-116971119D02*
X148557142Y-117018738D01*
X148557142Y-117018738D02*
X148461904Y-117113976D01*
X148461904Y-117113976D02*
X148414285Y-117209214D01*
X148414285Y-117209214D02*
X148366666Y-117399690D01*
X148366666Y-117399690D02*
X148366666Y-117542547D01*
X148366666Y-117542547D02*
X148414285Y-117733023D01*
X148414285Y-117733023D02*
X148461904Y-117828261D01*
X148461904Y-117828261D02*
X148557142Y-117923500D01*
X148557142Y-117923500D02*
X148699999Y-117971119D01*
X148699999Y-117971119D02*
X148938094Y-117971119D01*
D10*
X118700000Y-116800000D02*
X134500000Y-116800000D01*
X134500000Y-120700000D01*
X118700000Y-120700000D01*
X118700000Y-116800000D01*
D11*
X123405656Y-117971119D02*
X123405656Y-116971119D01*
X123405656Y-116971119D02*
X123072323Y-117685404D01*
X123072323Y-117685404D02*
X122738990Y-116971119D01*
X122738990Y-116971119D02*
X122738990Y-117971119D01*
X122310418Y-117066357D02*
X122262799Y-117018738D01*
X122262799Y-117018738D02*
X122167561Y-116971119D01*
X122167561Y-116971119D02*
X121929466Y-116971119D01*
X121929466Y-116971119D02*
X121834228Y-117018738D01*
X121834228Y-117018738D02*
X121786609Y-117066357D01*
X121786609Y-117066357D02*
X121738990Y-117161595D01*
X121738990Y-117161595D02*
X121738990Y-117256833D01*
X121738990Y-117256833D02*
X121786609Y-117399690D01*
X121786609Y-117399690D02*
X122358037Y-117971119D01*
X122358037Y-117971119D02*
X121738990Y-117971119D01*
X120709523Y-117971119D02*
X120709523Y-116971119D01*
X120709523Y-116971119D02*
X120376190Y-117685404D01*
X120376190Y-117685404D02*
X120042857Y-116971119D01*
X120042857Y-116971119D02*
X120042857Y-117971119D01*
X119042857Y-117971119D02*
X119614285Y-117971119D01*
X119328571Y-117971119D02*
X119328571Y-116971119D01*
X119328571Y-116971119D02*
X119423809Y-117113976D01*
X119423809Y-117113976D02*
X119519047Y-117209214D01*
X119519047Y-117209214D02*
X119614285Y-117256833D01*
X130328571Y-117447309D02*
X130185714Y-117494928D01*
X130185714Y-117494928D02*
X130138095Y-117542547D01*
X130138095Y-117542547D02*
X130090476Y-117637785D01*
X130090476Y-117637785D02*
X130090476Y-117780642D01*
X130090476Y-117780642D02*
X130138095Y-117875880D01*
X130138095Y-117875880D02*
X130185714Y-117923500D01*
X130185714Y-117923500D02*
X130280952Y-117971119D01*
X130280952Y-117971119D02*
X130661904Y-117971119D01*
X130661904Y-117971119D02*
X130661904Y-116971119D01*
X130661904Y-116971119D02*
X130328571Y-116971119D01*
X130328571Y-116971119D02*
X130233333Y-117018738D01*
X130233333Y-117018738D02*
X130185714Y-117066357D01*
X130185714Y-117066357D02*
X130138095Y-117161595D01*
X130138095Y-117161595D02*
X130138095Y-117256833D01*
X130138095Y-117256833D02*
X130185714Y-117352071D01*
X130185714Y-117352071D02*
X130233333Y-117399690D01*
X130233333Y-117399690D02*
X130328571Y-117447309D01*
X130328571Y-117447309D02*
X130661904Y-117447309D01*
X133661904Y-117018738D02*
X133757142Y-116971119D01*
X133757142Y-116971119D02*
X133899999Y-116971119D01*
X133899999Y-116971119D02*
X134042856Y-117018738D01*
X134042856Y-117018738D02*
X134138094Y-117113976D01*
X134138094Y-117113976D02*
X134185713Y-117209214D01*
X134185713Y-117209214D02*
X134233332Y-117399690D01*
X134233332Y-117399690D02*
X134233332Y-117542547D01*
X134233332Y-117542547D02*
X134185713Y-117733023D01*
X134185713Y-117733023D02*
X134138094Y-117828261D01*
X134138094Y-117828261D02*
X134042856Y-117923500D01*
X134042856Y-117923500D02*
X133899999Y-117971119D01*
X133899999Y-117971119D02*
X133804761Y-117971119D01*
X133804761Y-117971119D02*
X133661904Y-117923500D01*
X133661904Y-117923500D02*
X133614285Y-117875880D01*
X133614285Y-117875880D02*
X133614285Y-117542547D01*
X133614285Y-117542547D02*
X133804761Y-117542547D01*
X133185713Y-117971119D02*
X133185713Y-116971119D01*
X133185713Y-116971119D02*
X132614285Y-117971119D01*
X132614285Y-117971119D02*
X132614285Y-116971119D01*
X132138094Y-117971119D02*
X132138094Y-116971119D01*
X132138094Y-116971119D02*
X131899999Y-116971119D01*
X131899999Y-116971119D02*
X131757142Y-117018738D01*
X131757142Y-117018738D02*
X131661904Y-117113976D01*
X131661904Y-117113976D02*
X131614285Y-117209214D01*
X131614285Y-117209214D02*
X131566666Y-117399690D01*
X131566666Y-117399690D02*
X131566666Y-117542547D01*
X131566666Y-117542547D02*
X131614285Y-117733023D01*
X131614285Y-117733023D02*
X131661904Y-117828261D01*
X131661904Y-117828261D02*
X131757142Y-117923500D01*
X131757142Y-117923500D02*
X131899999Y-117971119D01*
X131899999Y-117971119D02*
X132138094Y-117971119D01*
X126590475Y-116971119D02*
X126257142Y-117971119D01*
X126257142Y-117971119D02*
X125923809Y-116971119D01*
X125161904Y-117923500D02*
X125257142Y-117971119D01*
X125257142Y-117971119D02*
X125447618Y-117971119D01*
X125447618Y-117971119D02*
X125542856Y-117923500D01*
X125542856Y-117923500D02*
X125590475Y-117875880D01*
X125590475Y-117875880D02*
X125638094Y-117780642D01*
X125638094Y-117780642D02*
X125638094Y-117494928D01*
X125638094Y-117494928D02*
X125590475Y-117399690D01*
X125590475Y-117399690D02*
X125542856Y-117352071D01*
X125542856Y-117352071D02*
X125447618Y-117304452D01*
X125447618Y-117304452D02*
X125257142Y-117304452D01*
X125257142Y-117304452D02*
X125161904Y-117352071D01*
X124304761Y-117923500D02*
X124399999Y-117971119D01*
X124399999Y-117971119D02*
X124590475Y-117971119D01*
X124590475Y-117971119D02*
X124685713Y-117923500D01*
X124685713Y-117923500D02*
X124733332Y-117875880D01*
X124733332Y-117875880D02*
X124780951Y-117780642D01*
X124780951Y-117780642D02*
X124780951Y-117494928D01*
X124780951Y-117494928D02*
X124733332Y-117399690D01*
X124733332Y-117399690D02*
X124685713Y-117352071D01*
X124685713Y-117352071D02*
X124590475Y-117304452D01*
X124590475Y-117304452D02*
X124399999Y-117304452D01*
X124399999Y-117304452D02*
X124304761Y-117352071D01*
X128138094Y-117685404D02*
X127661904Y-117685404D01*
X128233332Y-117971119D02*
X127899999Y-116971119D01*
X127899999Y-116971119D02*
X127566666Y-117971119D01*
D10*
X135600000Y-76900000D02*
X151400000Y-76900000D01*
X151400000Y-80800000D01*
X135600000Y-80800000D01*
X135600000Y-76900000D01*
X118200000Y-76900000D02*
X134400000Y-76900000D01*
X134400000Y-80800000D01*
X118200000Y-80800000D01*
X118200000Y-76900000D01*
D11*
X120658037Y-79618738D02*
X120753275Y-79571119D01*
X120753275Y-79571119D02*
X120896132Y-79571119D01*
X120896132Y-79571119D02*
X121038989Y-79618738D01*
X121038989Y-79618738D02*
X121134227Y-79713976D01*
X121134227Y-79713976D02*
X121181846Y-79809214D01*
X121181846Y-79809214D02*
X121229465Y-79999690D01*
X121229465Y-79999690D02*
X121229465Y-80142547D01*
X121229465Y-80142547D02*
X121181846Y-80333023D01*
X121181846Y-80333023D02*
X121134227Y-80428261D01*
X121134227Y-80428261D02*
X121038989Y-80523500D01*
X121038989Y-80523500D02*
X120896132Y-80571119D01*
X120896132Y-80571119D02*
X120800894Y-80571119D01*
X120800894Y-80571119D02*
X120658037Y-80523500D01*
X120658037Y-80523500D02*
X120610418Y-80475880D01*
X120610418Y-80475880D02*
X120610418Y-80142547D01*
X120610418Y-80142547D02*
X120800894Y-80142547D01*
X120181846Y-80571119D02*
X120181846Y-79571119D01*
X120181846Y-79571119D02*
X119610418Y-80571119D01*
X119610418Y-80571119D02*
X119610418Y-79571119D01*
X119134227Y-80571119D02*
X119134227Y-79571119D01*
X119134227Y-79571119D02*
X118896132Y-79571119D01*
X118896132Y-79571119D02*
X118753275Y-79618738D01*
X118753275Y-79618738D02*
X118658037Y-79713976D01*
X118658037Y-79713976D02*
X118610418Y-79809214D01*
X118610418Y-79809214D02*
X118562799Y-79999690D01*
X118562799Y-79999690D02*
X118562799Y-80142547D01*
X118562799Y-80142547D02*
X118610418Y-80333023D01*
X118610418Y-80333023D02*
X118658037Y-80428261D01*
X118658037Y-80428261D02*
X118753275Y-80523500D01*
X118753275Y-80523500D02*
X118896132Y-80571119D01*
X118896132Y-80571119D02*
X119134227Y-80571119D01*
X128586608Y-79571119D02*
X128253275Y-80571119D01*
X128253275Y-80571119D02*
X127919942Y-79571119D01*
X127158037Y-80523500D02*
X127253275Y-80571119D01*
X127253275Y-80571119D02*
X127443751Y-80571119D01*
X127443751Y-80571119D02*
X127538989Y-80523500D01*
X127538989Y-80523500D02*
X127586608Y-80475880D01*
X127586608Y-80475880D02*
X127634227Y-80380642D01*
X127634227Y-80380642D02*
X127634227Y-80094928D01*
X127634227Y-80094928D02*
X127586608Y-79999690D01*
X127586608Y-79999690D02*
X127538989Y-79952071D01*
X127538989Y-79952071D02*
X127443751Y-79904452D01*
X127443751Y-79904452D02*
X127253275Y-79904452D01*
X127253275Y-79904452D02*
X127158037Y-79952071D01*
X126300894Y-80523500D02*
X126396132Y-80571119D01*
X126396132Y-80571119D02*
X126586608Y-80571119D01*
X126586608Y-80571119D02*
X126681846Y-80523500D01*
X126681846Y-80523500D02*
X126729465Y-80475880D01*
X126729465Y-80475880D02*
X126777084Y-80380642D01*
X126777084Y-80380642D02*
X126777084Y-80094928D01*
X126777084Y-80094928D02*
X126729465Y-79999690D01*
X126729465Y-79999690D02*
X126681846Y-79952071D01*
X126681846Y-79952071D02*
X126586608Y-79904452D01*
X126586608Y-79904452D02*
X126396132Y-79904452D01*
X126396132Y-79904452D02*
X126300894Y-79952071D01*
X131009523Y-80571119D02*
X131009523Y-79571119D01*
X131009523Y-79571119D02*
X130676190Y-80285404D01*
X130676190Y-80285404D02*
X130342857Y-79571119D01*
X130342857Y-79571119D02*
X130342857Y-80571119D01*
X129914285Y-79666357D02*
X129866666Y-79618738D01*
X129866666Y-79618738D02*
X129771428Y-79571119D01*
X129771428Y-79571119D02*
X129533333Y-79571119D01*
X129533333Y-79571119D02*
X129438095Y-79618738D01*
X129438095Y-79618738D02*
X129390476Y-79666357D01*
X129390476Y-79666357D02*
X129342857Y-79761595D01*
X129342857Y-79761595D02*
X129342857Y-79856833D01*
X129342857Y-79856833D02*
X129390476Y-79999690D01*
X129390476Y-79999690D02*
X129961904Y-80571119D01*
X129961904Y-80571119D02*
X129342857Y-80571119D01*
X133705656Y-80571119D02*
X133705656Y-79571119D01*
X133705656Y-79571119D02*
X133372323Y-80285404D01*
X133372323Y-80285404D02*
X133038990Y-79571119D01*
X133038990Y-79571119D02*
X133038990Y-80571119D01*
X132038990Y-80571119D02*
X132610418Y-80571119D01*
X132324704Y-80571119D02*
X132324704Y-79571119D01*
X132324704Y-79571119D02*
X132419942Y-79713976D01*
X132419942Y-79713976D02*
X132515180Y-79809214D01*
X132515180Y-79809214D02*
X132610418Y-79856833D01*
X122324704Y-80047309D02*
X122181847Y-80094928D01*
X122181847Y-80094928D02*
X122134228Y-80142547D01*
X122134228Y-80142547D02*
X122086609Y-80237785D01*
X122086609Y-80237785D02*
X122086609Y-80380642D01*
X122086609Y-80380642D02*
X122134228Y-80475880D01*
X122134228Y-80475880D02*
X122181847Y-80523500D01*
X122181847Y-80523500D02*
X122277085Y-80571119D01*
X122277085Y-80571119D02*
X122658037Y-80571119D01*
X122658037Y-80571119D02*
X122658037Y-79571119D01*
X122658037Y-79571119D02*
X122324704Y-79571119D01*
X122324704Y-79571119D02*
X122229466Y-79618738D01*
X122229466Y-79618738D02*
X122181847Y-79666357D01*
X122181847Y-79666357D02*
X122134228Y-79761595D01*
X122134228Y-79761595D02*
X122134228Y-79856833D01*
X122134228Y-79856833D02*
X122181847Y-79952071D01*
X122181847Y-79952071D02*
X122229466Y-79999690D01*
X122229466Y-79999690D02*
X122324704Y-80047309D01*
X122324704Y-80047309D02*
X122658037Y-80047309D01*
X125134227Y-80285404D02*
X124658037Y-80285404D01*
X125229465Y-80571119D02*
X124896132Y-79571119D01*
X124896132Y-79571119D02*
X124562799Y-80571119D01*
X137961904Y-79618738D02*
X138057142Y-79571119D01*
X138057142Y-79571119D02*
X138199999Y-79571119D01*
X138199999Y-79571119D02*
X138342856Y-79618738D01*
X138342856Y-79618738D02*
X138438094Y-79713976D01*
X138438094Y-79713976D02*
X138485713Y-79809214D01*
X138485713Y-79809214D02*
X138533332Y-79999690D01*
X138533332Y-79999690D02*
X138533332Y-80142547D01*
X138533332Y-80142547D02*
X138485713Y-80333023D01*
X138485713Y-80333023D02*
X138438094Y-80428261D01*
X138438094Y-80428261D02*
X138342856Y-80523500D01*
X138342856Y-80523500D02*
X138199999Y-80571119D01*
X138199999Y-80571119D02*
X138104761Y-80571119D01*
X138104761Y-80571119D02*
X137961904Y-80523500D01*
X137961904Y-80523500D02*
X137914285Y-80475880D01*
X137914285Y-80475880D02*
X137914285Y-80142547D01*
X137914285Y-80142547D02*
X138104761Y-80142547D01*
X137485713Y-80571119D02*
X137485713Y-79571119D01*
X137485713Y-79571119D02*
X136914285Y-80571119D01*
X136914285Y-80571119D02*
X136914285Y-79571119D01*
X136438094Y-80571119D02*
X136438094Y-79571119D01*
X136438094Y-79571119D02*
X136199999Y-79571119D01*
X136199999Y-79571119D02*
X136057142Y-79618738D01*
X136057142Y-79618738D02*
X135961904Y-79713976D01*
X135961904Y-79713976D02*
X135914285Y-79809214D01*
X135914285Y-79809214D02*
X135866666Y-79999690D01*
X135866666Y-79999690D02*
X135866666Y-80142547D01*
X135866666Y-80142547D02*
X135914285Y-80333023D01*
X135914285Y-80333023D02*
X135961904Y-80428261D01*
X135961904Y-80428261D02*
X136057142Y-80523500D01*
X136057142Y-80523500D02*
X136199999Y-80571119D01*
X136199999Y-80571119D02*
X136438094Y-80571119D01*
D10*
X157300000Y-102300000D02*
X151900000Y-102275000D01*
X157300000Y-111000000D02*
X157300000Y-102300000D01*
X156012500Y-112750000D02*
X157337500Y-111050000D01*
X153125000Y-112700000D02*
X155975000Y-112700000D01*
X151887500Y-111050000D02*
X153112500Y-112750000D01*
X151900000Y-102275000D02*
X151900000Y-111000000D01*
D11*
X142864286Y-97504452D02*
X142864286Y-98171119D01*
X143102381Y-97123500D02*
X143340476Y-97837785D01*
X143340476Y-97837785D02*
X142721429Y-97837785D01*
X141578571Y-98171119D02*
X141578571Y-97171119D01*
X141578571Y-97171119D02*
X141245238Y-97885404D01*
X141245238Y-97885404D02*
X140911905Y-97171119D01*
X140911905Y-97171119D02*
X140911905Y-98171119D01*
X140292857Y-98171119D02*
X140388095Y-98123500D01*
X140388095Y-98123500D02*
X140435714Y-98075880D01*
X140435714Y-98075880D02*
X140483333Y-97980642D01*
X140483333Y-97980642D02*
X140483333Y-97694928D01*
X140483333Y-97694928D02*
X140435714Y-97599690D01*
X140435714Y-97599690D02*
X140388095Y-97552071D01*
X140388095Y-97552071D02*
X140292857Y-97504452D01*
X140292857Y-97504452D02*
X140150000Y-97504452D01*
X140150000Y-97504452D02*
X140054762Y-97552071D01*
X140054762Y-97552071D02*
X140007143Y-97599690D01*
X140007143Y-97599690D02*
X139959524Y-97694928D01*
X139959524Y-97694928D02*
X139959524Y-97980642D01*
X139959524Y-97980642D02*
X140007143Y-98075880D01*
X140007143Y-98075880D02*
X140054762Y-98123500D01*
X140054762Y-98123500D02*
X140150000Y-98171119D01*
X140150000Y-98171119D02*
X140292857Y-98171119D01*
X139673809Y-97504452D02*
X139292857Y-97504452D01*
X139530952Y-97171119D02*
X139530952Y-98028261D01*
X139530952Y-98028261D02*
X139483333Y-98123500D01*
X139483333Y-98123500D02*
X139388095Y-98171119D01*
X139388095Y-98171119D02*
X139292857Y-98171119D01*
X138816666Y-98171119D02*
X138911904Y-98123500D01*
X138911904Y-98123500D02*
X138959523Y-98075880D01*
X138959523Y-98075880D02*
X139007142Y-97980642D01*
X139007142Y-97980642D02*
X139007142Y-97694928D01*
X139007142Y-97694928D02*
X138959523Y-97599690D01*
X138959523Y-97599690D02*
X138911904Y-97552071D01*
X138911904Y-97552071D02*
X138816666Y-97504452D01*
X138816666Y-97504452D02*
X138673809Y-97504452D01*
X138673809Y-97504452D02*
X138578571Y-97552071D01*
X138578571Y-97552071D02*
X138530952Y-97599690D01*
X138530952Y-97599690D02*
X138483333Y-97694928D01*
X138483333Y-97694928D02*
X138483333Y-97980642D01*
X138483333Y-97980642D02*
X138530952Y-98075880D01*
X138530952Y-98075880D02*
X138578571Y-98123500D01*
X138578571Y-98123500D02*
X138673809Y-98171119D01*
X138673809Y-98171119D02*
X138816666Y-98171119D01*
X138054761Y-98171119D02*
X138054761Y-97504452D01*
X138054761Y-97694928D02*
X138007142Y-97599690D01*
X138007142Y-97599690D02*
X137959523Y-97552071D01*
X137959523Y-97552071D02*
X137864285Y-97504452D01*
X137864285Y-97504452D02*
X137769047Y-97504452D01*
X136673808Y-98171119D02*
X136673808Y-97171119D01*
X136673808Y-97171119D02*
X136435713Y-97171119D01*
X136435713Y-97171119D02*
X136292856Y-97218738D01*
X136292856Y-97218738D02*
X136197618Y-97313976D01*
X136197618Y-97313976D02*
X136149999Y-97409214D01*
X136149999Y-97409214D02*
X136102380Y-97599690D01*
X136102380Y-97599690D02*
X136102380Y-97742547D01*
X136102380Y-97742547D02*
X136149999Y-97933023D01*
X136149999Y-97933023D02*
X136197618Y-98028261D01*
X136197618Y-98028261D02*
X136292856Y-98123500D01*
X136292856Y-98123500D02*
X136435713Y-98171119D01*
X136435713Y-98171119D02*
X136673808Y-98171119D01*
X135673808Y-98171119D02*
X135673808Y-97504452D01*
X135673808Y-97694928D02*
X135626189Y-97599690D01*
X135626189Y-97599690D02*
X135578570Y-97552071D01*
X135578570Y-97552071D02*
X135483332Y-97504452D01*
X135483332Y-97504452D02*
X135388094Y-97504452D01*
X135054760Y-98171119D02*
X135054760Y-97504452D01*
X135054760Y-97171119D02*
X135102379Y-97218738D01*
X135102379Y-97218738D02*
X135054760Y-97266357D01*
X135054760Y-97266357D02*
X135007141Y-97218738D01*
X135007141Y-97218738D02*
X135054760Y-97171119D01*
X135054760Y-97171119D02*
X135054760Y-97266357D01*
X134673808Y-97504452D02*
X134435713Y-98171119D01*
X134435713Y-98171119D02*
X134197618Y-97504452D01*
X133435713Y-98123500D02*
X133530951Y-98171119D01*
X133530951Y-98171119D02*
X133721427Y-98171119D01*
X133721427Y-98171119D02*
X133816665Y-98123500D01*
X133816665Y-98123500D02*
X133864284Y-98028261D01*
X133864284Y-98028261D02*
X133864284Y-97647309D01*
X133864284Y-97647309D02*
X133816665Y-97552071D01*
X133816665Y-97552071D02*
X133721427Y-97504452D01*
X133721427Y-97504452D02*
X133530951Y-97504452D01*
X133530951Y-97504452D02*
X133435713Y-97552071D01*
X133435713Y-97552071D02*
X133388094Y-97647309D01*
X133388094Y-97647309D02*
X133388094Y-97742547D01*
X133388094Y-97742547D02*
X133864284Y-97837785D01*
X132959522Y-98171119D02*
X132959522Y-97504452D01*
X132959522Y-97694928D02*
X132911903Y-97599690D01*
X132911903Y-97599690D02*
X132864284Y-97552071D01*
X132864284Y-97552071D02*
X132769046Y-97504452D01*
X132769046Y-97504452D02*
X132673808Y-97504452D01*
X132388093Y-98123500D02*
X132292855Y-98171119D01*
X132292855Y-98171119D02*
X132102379Y-98171119D01*
X132102379Y-98171119D02*
X132007141Y-98123500D01*
X132007141Y-98123500D02*
X131959522Y-98028261D01*
X131959522Y-98028261D02*
X131959522Y-97980642D01*
X131959522Y-97980642D02*
X132007141Y-97885404D01*
X132007141Y-97885404D02*
X132102379Y-97837785D01*
X132102379Y-97837785D02*
X132245236Y-97837785D01*
X132245236Y-97837785D02*
X132340474Y-97790166D01*
X132340474Y-97790166D02*
X132388093Y-97694928D01*
X132388093Y-97694928D02*
X132388093Y-97647309D01*
X132388093Y-97647309D02*
X132340474Y-97552071D01*
X132340474Y-97552071D02*
X132245236Y-97504452D01*
X132245236Y-97504452D02*
X132102379Y-97504452D01*
X132102379Y-97504452D02*
X132007141Y-97552071D01*
X130769045Y-97171119D02*
X130769045Y-97980642D01*
X130769045Y-97980642D02*
X130721426Y-98075880D01*
X130721426Y-98075880D02*
X130673807Y-98123500D01*
X130673807Y-98123500D02*
X130578569Y-98171119D01*
X130578569Y-98171119D02*
X130388093Y-98171119D01*
X130388093Y-98171119D02*
X130292855Y-98123500D01*
X130292855Y-98123500D02*
X130245236Y-98075880D01*
X130245236Y-98075880D02*
X130197617Y-97980642D01*
X130197617Y-97980642D02*
X130197617Y-97171119D01*
X129816664Y-97171119D02*
X129197617Y-97171119D01*
X129197617Y-97171119D02*
X129530950Y-97552071D01*
X129530950Y-97552071D02*
X129388093Y-97552071D01*
X129388093Y-97552071D02*
X129292855Y-97599690D01*
X129292855Y-97599690D02*
X129245236Y-97647309D01*
X129245236Y-97647309D02*
X129197617Y-97742547D01*
X129197617Y-97742547D02*
X129197617Y-97980642D01*
X129197617Y-97980642D02*
X129245236Y-98075880D01*
X129245236Y-98075880D02*
X129292855Y-98123500D01*
X129292855Y-98123500D02*
X129388093Y-98171119D01*
X129388093Y-98171119D02*
X129673807Y-98171119D01*
X129673807Y-98171119D02*
X129769045Y-98123500D01*
X129769045Y-98123500D02*
X129816664Y-98075880D01*
X128769045Y-97790166D02*
X128007141Y-97790166D01*
X127530950Y-97171119D02*
X127530950Y-97980642D01*
X127530950Y-97980642D02*
X127483331Y-98075880D01*
X127483331Y-98075880D02*
X127435712Y-98123500D01*
X127435712Y-98123500D02*
X127340474Y-98171119D01*
X127340474Y-98171119D02*
X127149998Y-98171119D01*
X127149998Y-98171119D02*
X127054760Y-98123500D01*
X127054760Y-98123500D02*
X127007141Y-98075880D01*
X127007141Y-98075880D02*
X126959522Y-97980642D01*
X126959522Y-97980642D02*
X126959522Y-97171119D01*
X126054760Y-97171119D02*
X126245236Y-97171119D01*
X126245236Y-97171119D02*
X126340474Y-97218738D01*
X126340474Y-97218738D02*
X126388093Y-97266357D01*
X126388093Y-97266357D02*
X126483331Y-97409214D01*
X126483331Y-97409214D02*
X126530950Y-97599690D01*
X126530950Y-97599690D02*
X126530950Y-97980642D01*
X126530950Y-97980642D02*
X126483331Y-98075880D01*
X126483331Y-98075880D02*
X126435712Y-98123500D01*
X126435712Y-98123500D02*
X126340474Y-98171119D01*
X126340474Y-98171119D02*
X126149998Y-98171119D01*
X126149998Y-98171119D02*
X126054760Y-98123500D01*
X126054760Y-98123500D02*
X126007141Y-98075880D01*
X126007141Y-98075880D02*
X125959522Y-97980642D01*
X125959522Y-97980642D02*
X125959522Y-97742547D01*
X125959522Y-97742547D02*
X126007141Y-97647309D01*
X126007141Y-97647309D02*
X126054760Y-97599690D01*
X126054760Y-97599690D02*
X126149998Y-97552071D01*
X126149998Y-97552071D02*
X126340474Y-97552071D01*
X126340474Y-97552071D02*
X126435712Y-97599690D01*
X126435712Y-97599690D02*
X126483331Y-97647309D01*
X126483331Y-97647309D02*
X126530950Y-97742547D01*
X142438094Y-80285404D02*
X141961904Y-80285404D01*
X142533332Y-80571119D02*
X142199999Y-79571119D01*
X142199999Y-79571119D02*
X141866666Y-80571119D01*
X139628571Y-80047309D02*
X139485714Y-80094928D01*
X139485714Y-80094928D02*
X139438095Y-80142547D01*
X139438095Y-80142547D02*
X139390476Y-80237785D01*
X139390476Y-80237785D02*
X139390476Y-80380642D01*
X139390476Y-80380642D02*
X139438095Y-80475880D01*
X139438095Y-80475880D02*
X139485714Y-80523500D01*
X139485714Y-80523500D02*
X139580952Y-80571119D01*
X139580952Y-80571119D02*
X139961904Y-80571119D01*
X139961904Y-80571119D02*
X139961904Y-79571119D01*
X139961904Y-79571119D02*
X139628571Y-79571119D01*
X139628571Y-79571119D02*
X139533333Y-79618738D01*
X139533333Y-79618738D02*
X139485714Y-79666357D01*
X139485714Y-79666357D02*
X139438095Y-79761595D01*
X139438095Y-79761595D02*
X139438095Y-79856833D01*
X139438095Y-79856833D02*
X139485714Y-79952071D01*
X139485714Y-79952071D02*
X139533333Y-79999690D01*
X139533333Y-79999690D02*
X139628571Y-80047309D01*
X139628571Y-80047309D02*
X139961904Y-80047309D01*
X148313390Y-80571119D02*
X148313390Y-79571119D01*
X148313390Y-79571119D02*
X147980057Y-80285404D01*
X147980057Y-80285404D02*
X147646724Y-79571119D01*
X147646724Y-79571119D02*
X147646724Y-80571119D01*
X147218152Y-79666357D02*
X147170533Y-79618738D01*
X147170533Y-79618738D02*
X147075295Y-79571119D01*
X147075295Y-79571119D02*
X146837200Y-79571119D01*
X146837200Y-79571119D02*
X146741962Y-79618738D01*
X146741962Y-79618738D02*
X146694343Y-79666357D01*
X146694343Y-79666357D02*
X146646724Y-79761595D01*
X146646724Y-79761595D02*
X146646724Y-79856833D01*
X146646724Y-79856833D02*
X146694343Y-79999690D01*
X146694343Y-79999690D02*
X147265771Y-80571119D01*
X147265771Y-80571119D02*
X146646724Y-80571119D01*
X145890475Y-79571119D02*
X145557142Y-80571119D01*
X145557142Y-80571119D02*
X145223809Y-79571119D01*
X144461904Y-80523500D02*
X144557142Y-80571119D01*
X144557142Y-80571119D02*
X144747618Y-80571119D01*
X144747618Y-80571119D02*
X144842856Y-80523500D01*
X144842856Y-80523500D02*
X144890475Y-80475880D01*
X144890475Y-80475880D02*
X144938094Y-80380642D01*
X144938094Y-80380642D02*
X144938094Y-80094928D01*
X144938094Y-80094928D02*
X144890475Y-79999690D01*
X144890475Y-79999690D02*
X144842856Y-79952071D01*
X144842856Y-79952071D02*
X144747618Y-79904452D01*
X144747618Y-79904452D02*
X144557142Y-79904452D01*
X144557142Y-79904452D02*
X144461904Y-79952071D01*
X143604761Y-80523500D02*
X143699999Y-80571119D01*
X143699999Y-80571119D02*
X143890475Y-80571119D01*
X143890475Y-80571119D02*
X143985713Y-80523500D01*
X143985713Y-80523500D02*
X144033332Y-80475880D01*
X144033332Y-80475880D02*
X144080951Y-80380642D01*
X144080951Y-80380642D02*
X144080951Y-80094928D01*
X144080951Y-80094928D02*
X144033332Y-79999690D01*
X144033332Y-79999690D02*
X143985713Y-79952071D01*
X143985713Y-79952071D02*
X143890475Y-79904452D01*
X143890475Y-79904452D02*
X143699999Y-79904452D01*
X143699999Y-79904452D02*
X143604761Y-79952071D01*
X151009523Y-80571119D02*
X151009523Y-79571119D01*
X151009523Y-79571119D02*
X150676190Y-80285404D01*
X150676190Y-80285404D02*
X150342857Y-79571119D01*
X150342857Y-79571119D02*
X150342857Y-80571119D01*
X149342857Y-80571119D02*
X149914285Y-80571119D01*
X149628571Y-80571119D02*
X149628571Y-79571119D01*
X149628571Y-79571119D02*
X149723809Y-79713976D01*
X149723809Y-79713976D02*
X149819047Y-79809214D01*
X149819047Y-79809214D02*
X149914285Y-79856833D01*
D10*
X117533333Y-118954819D02*
X117533333Y-119669104D01*
X117533333Y-119669104D02*
X117580952Y-119811961D01*
X117580952Y-119811961D02*
X117676190Y-119907200D01*
X117676190Y-119907200D02*
X117819047Y-119954819D01*
X117819047Y-119954819D02*
X117914285Y-119954819D01*
X116628571Y-119288152D02*
X116628571Y-119954819D01*
X116866666Y-118907200D02*
X117104761Y-119621485D01*
X117104761Y-119621485D02*
X116485714Y-119621485D01*
X152873333Y-119054819D02*
X152873333Y-119769104D01*
X152873333Y-119769104D02*
X152920952Y-119911961D01*
X152920952Y-119911961D02*
X153016190Y-120007200D01*
X153016190Y-120007200D02*
X153159047Y-120054819D01*
X153159047Y-120054819D02*
X153254285Y-120054819D01*
X152492380Y-119054819D02*
X151873333Y-119054819D01*
X151873333Y-119054819D02*
X152206666Y-119435771D01*
X152206666Y-119435771D02*
X152063809Y-119435771D01*
X152063809Y-119435771D02*
X151968571Y-119483390D01*
X151968571Y-119483390D02*
X151920952Y-119531009D01*
X151920952Y-119531009D02*
X151873333Y-119626247D01*
X151873333Y-119626247D02*
X151873333Y-119864342D01*
X151873333Y-119864342D02*
X151920952Y-119959580D01*
X151920952Y-119959580D02*
X151968571Y-120007200D01*
X151968571Y-120007200D02*
X152063809Y-120054819D01*
X152063809Y-120054819D02*
X152349523Y-120054819D01*
X152349523Y-120054819D02*
X152444761Y-120007200D01*
X152444761Y-120007200D02*
X152492380Y-119959580D01*
X117483333Y-78054819D02*
X117483333Y-78769104D01*
X117483333Y-78769104D02*
X117530952Y-78911961D01*
X117530952Y-78911961D02*
X117626190Y-79007200D01*
X117626190Y-79007200D02*
X117769047Y-79054819D01*
X117769047Y-79054819D02*
X117864285Y-79054819D01*
X116530952Y-78054819D02*
X117007142Y-78054819D01*
X117007142Y-78054819D02*
X117054761Y-78531009D01*
X117054761Y-78531009D02*
X117007142Y-78483390D01*
X117007142Y-78483390D02*
X116911904Y-78435771D01*
X116911904Y-78435771D02*
X116673809Y-78435771D01*
X116673809Y-78435771D02*
X116578571Y-78483390D01*
X116578571Y-78483390D02*
X116530952Y-78531009D01*
X116530952Y-78531009D02*
X116483333Y-78626247D01*
X116483333Y-78626247D02*
X116483333Y-78864342D01*
X116483333Y-78864342D02*
X116530952Y-78959580D01*
X116530952Y-78959580D02*
X116578571Y-79007200D01*
X116578571Y-79007200D02*
X116673809Y-79054819D01*
X116673809Y-79054819D02*
X116911904Y-79054819D01*
X116911904Y-79054819D02*
X117007142Y-79007200D01*
X117007142Y-79007200D02*
X117054761Y-78959580D01*
X153223333Y-78024819D02*
X153223333Y-78739104D01*
X153223333Y-78739104D02*
X153270952Y-78881961D01*
X153270952Y-78881961D02*
X153366190Y-78977200D01*
X153366190Y-78977200D02*
X153509047Y-79024819D01*
X153509047Y-79024819D02*
X153604285Y-79024819D01*
X152318571Y-78024819D02*
X152509047Y-78024819D01*
X152509047Y-78024819D02*
X152604285Y-78072438D01*
X152604285Y-78072438D02*
X152651904Y-78120057D01*
X152651904Y-78120057D02*
X152747142Y-78262914D01*
X152747142Y-78262914D02*
X152794761Y-78453390D01*
X152794761Y-78453390D02*
X152794761Y-78834342D01*
X152794761Y-78834342D02*
X152747142Y-78929580D01*
X152747142Y-78929580D02*
X152699523Y-78977200D01*
X152699523Y-78977200D02*
X152604285Y-79024819D01*
X152604285Y-79024819D02*
X152413809Y-79024819D01*
X152413809Y-79024819D02*
X152318571Y-78977200D01*
X152318571Y-78977200D02*
X152270952Y-78929580D01*
X152270952Y-78929580D02*
X152223333Y-78834342D01*
X152223333Y-78834342D02*
X152223333Y-78596247D01*
X152223333Y-78596247D02*
X152270952Y-78501009D01*
X152270952Y-78501009D02*
X152318571Y-78453390D01*
X152318571Y-78453390D02*
X152413809Y-78405771D01*
X152413809Y-78405771D02*
X152604285Y-78405771D01*
X152604285Y-78405771D02*
X152699523Y-78453390D01*
X152699523Y-78453390D02*
X152747142Y-78501009D01*
X152747142Y-78501009D02*
X152794761Y-78596247D01*
D12*
X137811904Y-99357419D02*
X137811904Y-100166942D01*
X137811904Y-100166942D02*
X137764285Y-100262180D01*
X137764285Y-100262180D02*
X137716666Y-100309800D01*
X137716666Y-100309800D02*
X137621428Y-100357419D01*
X137621428Y-100357419D02*
X137430952Y-100357419D01*
X137430952Y-100357419D02*
X137335714Y-100309800D01*
X137335714Y-100309800D02*
X137288095Y-100262180D01*
X137288095Y-100262180D02*
X137240476Y-100166942D01*
X137240476Y-100166942D02*
X137240476Y-99357419D01*
X136859523Y-99357419D02*
X136240476Y-99357419D01*
X136240476Y-99357419D02*
X136573809Y-99738371D01*
X136573809Y-99738371D02*
X136430952Y-99738371D01*
X136430952Y-99738371D02*
X136335714Y-99785990D01*
X136335714Y-99785990D02*
X136288095Y-99833609D01*
X136288095Y-99833609D02*
X136240476Y-99928847D01*
X136240476Y-99928847D02*
X136240476Y-100166942D01*
X136240476Y-100166942D02*
X136288095Y-100262180D01*
X136288095Y-100262180D02*
X136335714Y-100309800D01*
X136335714Y-100309800D02*
X136430952Y-100357419D01*
X136430952Y-100357419D02*
X136716666Y-100357419D01*
X136716666Y-100357419D02*
X136811904Y-100309800D01*
X136811904Y-100309800D02*
X136859523Y-100262180D01*
X121211904Y-99557419D02*
X121211904Y-100366942D01*
X121211904Y-100366942D02*
X121164285Y-100462180D01*
X121164285Y-100462180D02*
X121116666Y-100509800D01*
X121116666Y-100509800D02*
X121021428Y-100557419D01*
X121021428Y-100557419D02*
X120830952Y-100557419D01*
X120830952Y-100557419D02*
X120735714Y-100509800D01*
X120735714Y-100509800D02*
X120688095Y-100462180D01*
X120688095Y-100462180D02*
X120640476Y-100366942D01*
X120640476Y-100366942D02*
X120640476Y-99557419D01*
X119735714Y-99890752D02*
X119735714Y-100557419D01*
X119973809Y-99509800D02*
X120211904Y-100224085D01*
X120211904Y-100224085D02*
X119592857Y-100224085D01*
X137761904Y-81857419D02*
X137761904Y-82666942D01*
X137761904Y-82666942D02*
X137714285Y-82762180D01*
X137714285Y-82762180D02*
X137666666Y-82809800D01*
X137666666Y-82809800D02*
X137571428Y-82857419D01*
X137571428Y-82857419D02*
X137380952Y-82857419D01*
X137380952Y-82857419D02*
X137285714Y-82809800D01*
X137285714Y-82809800D02*
X137238095Y-82762180D01*
X137238095Y-82762180D02*
X137190476Y-82666942D01*
X137190476Y-82666942D02*
X137190476Y-81857419D01*
X136285714Y-81857419D02*
X136476190Y-81857419D01*
X136476190Y-81857419D02*
X136571428Y-81905038D01*
X136571428Y-81905038D02*
X136619047Y-81952657D01*
X136619047Y-81952657D02*
X136714285Y-82095514D01*
X136714285Y-82095514D02*
X136761904Y-82285990D01*
X136761904Y-82285990D02*
X136761904Y-82666942D01*
X136761904Y-82666942D02*
X136714285Y-82762180D01*
X136714285Y-82762180D02*
X136666666Y-82809800D01*
X136666666Y-82809800D02*
X136571428Y-82857419D01*
X136571428Y-82857419D02*
X136380952Y-82857419D01*
X136380952Y-82857419D02*
X136285714Y-82809800D01*
X136285714Y-82809800D02*
X136238095Y-82762180D01*
X136238095Y-82762180D02*
X136190476Y-82666942D01*
X136190476Y-82666942D02*
X136190476Y-82428847D01*
X136190476Y-82428847D02*
X136238095Y-82333609D01*
X136238095Y-82333609D02*
X136285714Y-82285990D01*
X136285714Y-82285990D02*
X136380952Y-82238371D01*
X136380952Y-82238371D02*
X136571428Y-82238371D01*
X136571428Y-82238371D02*
X136666666Y-82285990D01*
X136666666Y-82285990D02*
X136714285Y-82333609D01*
X136714285Y-82333609D02*
X136761904Y-82428847D01*
X121161904Y-81707419D02*
X121161904Y-82516942D01*
X121161904Y-82516942D02*
X121114285Y-82612180D01*
X121114285Y-82612180D02*
X121066666Y-82659800D01*
X121066666Y-82659800D02*
X120971428Y-82707419D01*
X120971428Y-82707419D02*
X120780952Y-82707419D01*
X120780952Y-82707419D02*
X120685714Y-82659800D01*
X120685714Y-82659800D02*
X120638095Y-82612180D01*
X120638095Y-82612180D02*
X120590476Y-82516942D01*
X120590476Y-82516942D02*
X120590476Y-81707419D01*
X119638095Y-81707419D02*
X120114285Y-81707419D01*
X120114285Y-81707419D02*
X120161904Y-82183609D01*
X120161904Y-82183609D02*
X120114285Y-82135990D01*
X120114285Y-82135990D02*
X120019047Y-82088371D01*
X120019047Y-82088371D02*
X119780952Y-82088371D01*
X119780952Y-82088371D02*
X119685714Y-82135990D01*
X119685714Y-82135990D02*
X119638095Y-82183609D01*
X119638095Y-82183609D02*
X119590476Y-82278847D01*
X119590476Y-82278847D02*
X119590476Y-82516942D01*
X119590476Y-82516942D02*
X119638095Y-82612180D01*
X119638095Y-82612180D02*
X119685714Y-82659800D01*
X119685714Y-82659800D02*
X119780952Y-82707419D01*
X119780952Y-82707419D02*
X120019047Y-82707419D01*
X120019047Y-82707419D02*
X120114285Y-82659800D01*
X120114285Y-82659800D02*
X120161904Y-82612180D01*
X135610000Y-98830000D02*
X137515000Y-98830000D01*
X148945000Y-98830000D02*
X150850000Y-98830000D01*
X150850000Y-98830000D02*
X150850000Y-100735000D01*
X135610000Y-100862000D02*
X135610000Y-98830000D01*
X135610000Y-112165000D02*
X135610000Y-114070000D01*
X135610000Y-114070000D02*
X137642000Y-114070000D01*
X148691000Y-114070000D02*
X150850000Y-114070000D01*
X150850000Y-114070000D02*
X150850000Y-112038000D01*
X119060000Y-98800000D02*
X120965000Y-98800000D01*
X132395000Y-98800000D02*
X134300000Y-98800000D01*
X134300000Y-98800000D02*
X134300000Y-100705000D01*
X119060000Y-100832000D02*
X119060000Y-98800000D01*
X119060000Y-112135000D02*
X119060000Y-114040000D01*
X119060000Y-114040000D02*
X121092000Y-114040000D01*
X132141000Y-114040000D02*
X134300000Y-114040000D01*
X134300000Y-114040000D02*
X134300000Y-112008000D01*
X135610000Y-81254600D02*
X137515000Y-81254600D01*
X148945000Y-81254600D02*
X150850000Y-81254600D01*
X150850000Y-81254600D02*
X150850000Y-83159600D01*
X135610000Y-83286600D02*
X135610000Y-81254600D01*
X135610000Y-94589600D02*
X135610000Y-96494600D01*
X135610000Y-96494600D02*
X137642000Y-96494600D01*
X148691000Y-96494600D02*
X150850000Y-96494600D01*
X150850000Y-96494600D02*
X150850000Y-94462600D01*
X134400000Y-96494600D02*
X134400000Y-94462600D01*
X132241000Y-96494600D02*
X134400000Y-96494600D01*
X119160000Y-96494600D02*
X121192000Y-96494600D01*
X119160000Y-94589600D02*
X119160000Y-96494600D01*
X119160000Y-83286600D02*
X119160000Y-81254600D01*
X134400000Y-81254600D02*
X134400000Y-83159600D01*
X132495000Y-81254600D02*
X134400000Y-81254600D01*
X119160000Y-81254600D02*
X121065000Y-81254600D01*
%LPC*%
D13*
X156000000Y-97610000D03*
X156000000Y-95070000D03*
D14*
X156000000Y-92530000D03*
X156000000Y-89990000D03*
D13*
X156000000Y-87450000D03*
X120100000Y-119400000D03*
X122640000Y-119400000D03*
X125180000Y-119400000D03*
X127720000Y-119400000D03*
X130260000Y-119400000D03*
D15*
X132800000Y-119400000D03*
D13*
X137000000Y-119400000D03*
X139540000Y-119400000D03*
X142080000Y-119400000D03*
X144620000Y-119400000D03*
X147160000Y-119400000D03*
D15*
X149700000Y-119400000D03*
D13*
X132800000Y-78300000D03*
X130260000Y-78300000D03*
X127720000Y-78300000D03*
X125180000Y-78300000D03*
X122640000Y-78300000D03*
D16*
X120100000Y-78300000D03*
D13*
X149900000Y-78300000D03*
X147360000Y-78300000D03*
X144820000Y-78300000D03*
X142280000Y-78300000D03*
X139740000Y-78300000D03*
D16*
X137200000Y-78300000D03*
D17*
X154600000Y-110000000D03*
D18*
X154600000Y-105000000D03*
D13*
X148295000Y-110300000D03*
X145755000Y-110300000D03*
X143215000Y-110300000D03*
X140675000Y-110300000D03*
X138135000Y-110300000D03*
X135595000Y-110300000D03*
X133055000Y-110300000D03*
X130515000Y-110300000D03*
X127975000Y-110300000D03*
D19*
X117815200Y-104521000D03*
X120355200Y-104521000D03*
X122895200Y-104521000D03*
X125435200Y-104521000D03*
X120355200Y-89281000D03*
X127975200Y-104521000D03*
X130515200Y-104521000D03*
X133055200Y-104521000D03*
X135595200Y-104521000D03*
X138135200Y-104521000D03*
X140675200Y-104521000D03*
X143215200Y-104521000D03*
X145755200Y-104521000D03*
X148295200Y-104521000D03*
X148295200Y-89281000D03*
X145755200Y-89281000D03*
X143215200Y-89281000D03*
X140675200Y-89281000D03*
X138135200Y-89281000D03*
X135595200Y-89281000D03*
X133055200Y-89281000D03*
X130515200Y-89281000D03*
X127975200Y-89281000D03*
X125435200Y-89281000D03*
X122895200Y-89281000D03*
X117815200Y-89281000D03*
X115275200Y-104521000D03*
X115275200Y-89281000D03*
X144500000Y-100100000D03*
X147040000Y-100100000D03*
X149580000Y-100100000D03*
X136880000Y-112800000D03*
D16*
X139420000Y-112800000D03*
D19*
X141960000Y-112800000D03*
X144500000Y-112800000D03*
X147040000Y-112800000D03*
D16*
X149580000Y-112800000D03*
D19*
X127950000Y-100070000D03*
X130490000Y-100070000D03*
X133030000Y-100070000D03*
X120330000Y-112770000D03*
D16*
X122870000Y-112770000D03*
D19*
X125410000Y-112770000D03*
X127950000Y-112770000D03*
X130490000Y-112770000D03*
D16*
X133030000Y-112770000D03*
D19*
X144500000Y-82524600D03*
X147040000Y-82524600D03*
X149580000Y-82524600D03*
X136880000Y-95224600D03*
D16*
X139420000Y-95224600D03*
D19*
X141960000Y-95224600D03*
X144500000Y-95224600D03*
X147040000Y-95224600D03*
D16*
X149580000Y-95224600D03*
X133130000Y-95224600D03*
D19*
X130590000Y-95224600D03*
X128050000Y-95224600D03*
X125510000Y-95224600D03*
D16*
X122970000Y-95224600D03*
D19*
X120430000Y-95224600D03*
X133130000Y-82524600D03*
X130590000Y-82524600D03*
X128050000Y-82524600D03*
D18*
X114000000Y-120000000D03*
X156000000Y-78000000D03*
X156000000Y-120000000D03*
X114000000Y-78000000D03*
%LPD*%
M02*
