M48
; DRILL file {KiCad 7.0.5} date Fri Aug 11 11:44:36 2023
; FORMAT={-:-/ absolute / metric / decimal}
; #@! TF.CreationDate,2023-08-11T11:44:36-04:00
; #@! TF.GenerationSoftware,Kicad,Pcbnew,7.0.5
; #@! TF.FileFunction,Plated,1,4,PTH
FMAT,2
METRIC
; #@! TA.AperFunction,Plated,PTH,ComponentDrill
T1C1.000
; #@! TA.AperFunction,Plated,PTH,ComponentDrill
T2C2.200
; #@! TA.AperFunction,Plated,PTH,ComponentDrill
T3C2.700
%
G90
G05
T1
X115.275Y-89.281
X115.275Y-104.521
X117.815Y-89.281
X117.815Y-104.521
X120.1Y-78.3
X120.1Y-119.4
X120.33Y-112.77
X120.355Y-89.281
X120.355Y-104.521
X120.43Y-95.225
X122.64Y-78.3
X122.64Y-119.4
X122.87Y-112.77
X122.895Y-89.281
X122.895Y-104.521
X122.97Y-95.225
X125.18Y-78.3
X125.18Y-119.4
X125.41Y-112.77
X125.435Y-89.281
X125.435Y-104.521
X125.51Y-95.225
X127.72Y-78.3
X127.72Y-119.4
X127.95Y-100.07
X127.95Y-112.77
X127.975Y-110.3
X127.975Y-89.281
X127.975Y-104.521
X128.05Y-82.525
X128.05Y-95.225
X130.26Y-78.3
X130.26Y-119.4
X130.49Y-100.07
X130.49Y-112.77
X130.515Y-110.3
X130.515Y-89.281
X130.515Y-104.521
X130.59Y-82.525
X130.59Y-95.225
X132.8Y-78.3
X132.8Y-119.4
X133.03Y-100.07
X133.03Y-112.77
X133.055Y-110.3
X133.055Y-89.281
X133.055Y-104.521
X133.13Y-82.525
X133.13Y-95.225
X135.595Y-110.3
X135.595Y-89.281
X135.595Y-104.521
X136.88Y-95.225
X136.88Y-112.8
X137.0Y-119.4
X137.2Y-78.3
X138.135Y-110.3
X138.135Y-89.281
X138.135Y-104.521
X139.42Y-95.225
X139.42Y-112.8
X139.54Y-119.4
X139.74Y-78.3
X140.675Y-110.3
X140.675Y-89.281
X140.675Y-104.521
X141.96Y-95.225
X141.96Y-112.8
X142.08Y-119.4
X142.28Y-78.3
X143.215Y-110.3
X143.215Y-89.281
X143.215Y-104.521
X144.5Y-82.525
X144.5Y-95.225
X144.5Y-100.1
X144.5Y-112.8
X144.62Y-119.4
X144.82Y-78.3
X145.755Y-110.3
X145.755Y-89.281
X145.755Y-104.521
X147.04Y-82.525
X147.04Y-95.225
X147.04Y-100.1
X147.04Y-112.8
X147.16Y-119.4
X147.36Y-78.3
X148.295Y-110.3
X148.295Y-89.281
X148.295Y-104.521
X149.58Y-82.525
X149.58Y-95.225
X149.58Y-100.1
X149.58Y-112.8
X149.7Y-119.4
X149.9Y-78.3
X156.0Y-87.45
X156.0Y-89.99
X156.0Y-92.53
X156.0Y-95.07
X156.0Y-97.61
T2
X114.0Y-78.0
X114.0Y-120.0
X156.0Y-78.0
X156.0Y-120.0
T3
X154.6Y-105.0
X154.6Y-110.0
T0
M30
