G04 #@! TF.GenerationSoftware,KiCad,Pcbnew,7.0.5*
G04 #@! TF.CreationDate,2023-08-11T11:43:47-04:00*
G04 #@! TF.ProjectId,Tadpole,54616470-6f6c-4652-9e6b-696361645f70,rev?*
G04 #@! TF.SameCoordinates,Original*
G04 #@! TF.FileFunction,Copper,L1,Top*
G04 #@! TF.FilePolarity,Positive*
%FSLAX46Y46*%
G04 Gerber Fmt 4.6, Leading zero omitted, Abs format (unit mm)*
G04 Created by KiCad (PCBNEW 7.0.5) date 2023-08-11 11:43:47*
%MOMM*%
%LPD*%
G01*
G04 APERTURE LIST*
G04 #@! TA.AperFunction,ComponentPad*
%ADD10O,1.700000X1.700000*%
G04 #@! TD*
G04 #@! TA.AperFunction,ComponentPad*
%ADD11R,1.700000X1.700000*%
G04 #@! TD*
G04 #@! TA.AperFunction,ComponentPad*
%ADD12R,3.800000X3.800000*%
G04 #@! TD*
G04 #@! TA.AperFunction,ComponentPad*
%ADD13C,3.800000*%
G04 #@! TD*
G04 #@! TA.AperFunction,ComponentPad*
%ADD14C,1.700000*%
G04 #@! TD*
G04 #@! TA.AperFunction,Conductor*
%ADD15C,1.000000*%
G04 #@! TD*
G04 #@! TA.AperFunction,Conductor*
%ADD16C,0.600000*%
G04 #@! TD*
G04 #@! TA.AperFunction,Conductor*
%ADD17C,0.300000*%
G04 #@! TD*
G04 APERTURE END LIST*
D10*
X156000000Y-97610000D03*
X156000000Y-95070000D03*
D11*
X156000000Y-92530000D03*
X156000000Y-89990000D03*
D10*
X156000000Y-87450000D03*
X120100000Y-119400000D03*
X122640000Y-119400000D03*
X125180000Y-119400000D03*
X127720000Y-119400000D03*
X130260000Y-119400000D03*
D11*
X132800000Y-119400000D03*
D10*
X137000000Y-119400000D03*
X139540000Y-119400000D03*
X142080000Y-119400000D03*
X144620000Y-119400000D03*
X147160000Y-119400000D03*
D11*
X149700000Y-119400000D03*
D10*
X132800000Y-78300000D03*
X130260000Y-78300000D03*
X127720000Y-78300000D03*
X125180000Y-78300000D03*
X122640000Y-78300000D03*
D11*
X120100000Y-78300000D03*
D10*
X149900000Y-78300000D03*
X147360000Y-78300000D03*
X144820000Y-78300000D03*
X142280000Y-78300000D03*
X139740000Y-78300000D03*
D11*
X137200000Y-78300000D03*
D12*
X154600000Y-110000000D03*
D13*
X154600000Y-105000000D03*
D10*
X148295000Y-110300000D03*
X145755000Y-110300000D03*
X143215000Y-110300000D03*
X140675000Y-110300000D03*
X138135000Y-110300000D03*
X135595000Y-110300000D03*
X133055000Y-110300000D03*
X130515000Y-110300000D03*
X127975000Y-110300000D03*
D14*
X117815200Y-104521000D03*
X120355200Y-104521000D03*
X122895200Y-104521000D03*
X125435200Y-104521000D03*
X120355200Y-89281000D03*
X127975200Y-104521000D03*
X130515200Y-104521000D03*
X133055200Y-104521000D03*
X135595200Y-104521000D03*
X138135200Y-104521000D03*
X140675200Y-104521000D03*
X143215200Y-104521000D03*
X145755200Y-104521000D03*
X148295200Y-104521000D03*
X148295200Y-89281000D03*
X145755200Y-89281000D03*
X143215200Y-89281000D03*
X140675200Y-89281000D03*
X138135200Y-89281000D03*
X135595200Y-89281000D03*
X133055200Y-89281000D03*
X130515200Y-89281000D03*
X127975200Y-89281000D03*
X125435200Y-89281000D03*
X122895200Y-89281000D03*
X117815200Y-89281000D03*
X115275200Y-104521000D03*
X115275200Y-89281000D03*
X144500000Y-100100000D03*
X147040000Y-100100000D03*
X149580000Y-100100000D03*
X136880000Y-112800000D03*
D11*
X139420000Y-112800000D03*
D14*
X141960000Y-112800000D03*
X144500000Y-112800000D03*
X147040000Y-112800000D03*
D11*
X149580000Y-112800000D03*
D14*
X127950000Y-100070000D03*
X130490000Y-100070000D03*
X133030000Y-100070000D03*
X120330000Y-112770000D03*
D11*
X122870000Y-112770000D03*
D14*
X125410000Y-112770000D03*
X127950000Y-112770000D03*
X130490000Y-112770000D03*
D11*
X133030000Y-112770000D03*
D14*
X144500000Y-82524600D03*
X147040000Y-82524600D03*
X149580000Y-82524600D03*
X136880000Y-95224600D03*
D11*
X139420000Y-95224600D03*
D14*
X141960000Y-95224600D03*
X144500000Y-95224600D03*
X147040000Y-95224600D03*
D11*
X149580000Y-95224600D03*
X133130000Y-95224600D03*
D14*
X130590000Y-95224600D03*
X128050000Y-95224600D03*
X125510000Y-95224600D03*
D11*
X122970000Y-95224600D03*
D14*
X120430000Y-95224600D03*
X133130000Y-82524600D03*
X130590000Y-82524600D03*
X128050000Y-82524600D03*
D13*
X114000000Y-120000000D03*
X156000000Y-78000000D03*
X156000000Y-120000000D03*
X114000000Y-78000000D03*
D15*
X130714200Y-84400000D02*
X135595200Y-89281000D01*
X127400000Y-84400000D02*
X130714200Y-84400000D01*
X125200000Y-82200000D02*
X127400000Y-84400000D01*
X125200000Y-78320000D02*
X125200000Y-82200000D01*
X118550000Y-113902944D02*
X120647056Y-116000000D01*
X118550000Y-106326200D02*
X118550000Y-113902944D01*
X120647056Y-116000000D02*
X126860000Y-116000000D01*
X126860000Y-116000000D02*
X130260000Y-119400000D01*
X120355200Y-104521000D02*
X118550000Y-106326200D01*
X116950000Y-114850000D02*
X119700000Y-117600000D01*
X119700000Y-117600000D02*
X125920000Y-117600000D01*
X116950000Y-105386200D02*
X116950000Y-114850000D01*
X125920000Y-117600000D02*
X127720000Y-119400000D01*
X117815200Y-104521000D02*
X116950000Y-105386200D01*
D16*
X120330000Y-114030000D02*
X120330000Y-112770000D01*
X131250000Y-114700000D02*
X121000000Y-114700000D01*
X132450000Y-115900000D02*
X131250000Y-114700000D01*
X121000000Y-114700000D02*
X120330000Y-114030000D01*
D15*
X129524200Y-85750000D02*
X133055200Y-89281000D01*
X126150000Y-85750000D02*
X129524200Y-85750000D01*
X122650000Y-82250000D02*
X126150000Y-85750000D01*
X122650000Y-78310000D02*
X122650000Y-82250000D01*
D17*
X151300000Y-107295000D02*
X148295000Y-110300000D01*
X151300000Y-92285800D02*
X151300000Y-107295000D01*
X148295200Y-89281000D02*
X151300000Y-92285800D01*
D16*
X149645200Y-100165200D02*
X149580000Y-100100000D01*
X149645200Y-105654800D02*
X149645200Y-100165200D01*
X147900000Y-107400000D02*
X149645200Y-105654800D01*
X130875000Y-107400000D02*
X147900000Y-107400000D01*
X127975000Y-110300000D02*
X130875000Y-107400000D01*
X120355200Y-89281000D02*
X122944200Y-91870000D01*
X131005400Y-80400000D02*
X133105400Y-82500000D01*
X120355200Y-89255200D02*
X117300000Y-86200000D01*
X117300000Y-86200000D02*
X117300000Y-78190000D01*
X117300000Y-78190000D02*
X119040000Y-76450000D01*
X133105400Y-82500000D02*
X140050000Y-82500000D01*
X119040000Y-76450000D02*
X125870000Y-76450000D01*
X129820000Y-80400000D02*
X131005400Y-80400000D01*
X125870000Y-76450000D02*
X129820000Y-80400000D01*
X140050000Y-82500000D02*
X144250000Y-78300000D01*
X144250000Y-78300000D02*
X144820000Y-78300000D01*
X122944200Y-91870000D02*
X123440000Y-91870000D01*
X135275000Y-120725000D02*
X135850000Y-121300000D01*
X134175000Y-120725000D02*
X135275000Y-120725000D01*
X134750000Y-120200000D02*
X135275000Y-120725000D01*
X134175000Y-120725000D02*
X134750000Y-120150000D01*
X133600000Y-121300000D02*
X134175000Y-120725000D01*
X134750000Y-120150000D02*
X134750000Y-120200000D01*
X140180000Y-121300000D02*
X135850000Y-121300000D01*
X135850000Y-121300000D02*
X133600000Y-121300000D01*
X134750000Y-118200000D02*
X132450000Y-115900000D01*
X134750000Y-120150000D02*
X134750000Y-118200000D01*
X133600000Y-121300000D02*
X127080000Y-121300000D01*
X137050000Y-119400000D02*
X137000000Y-119400000D01*
D15*
X140350000Y-116100000D02*
X137050000Y-119400000D01*
X141200000Y-116100000D02*
X140350000Y-116100000D01*
X144500000Y-112800000D02*
X141200000Y-116100000D01*
D16*
X127080000Y-121300000D02*
X125180000Y-119400000D01*
X142080000Y-119400000D02*
X140180000Y-121300000D01*
X135550000Y-112800000D02*
X132450000Y-115900000D01*
X136880000Y-112800000D02*
X135550000Y-112800000D01*
X120330000Y-112220000D02*
X120330000Y-112770000D01*
X122250000Y-110300000D02*
X120330000Y-112220000D01*
X127975000Y-110300000D02*
X122250000Y-110300000D01*
X145355400Y-78300000D02*
X149580000Y-82524600D01*
X144820000Y-78300000D02*
X145355400Y-78300000D01*
X137200000Y-97700000D02*
X134830000Y-100070000D01*
X147200000Y-97700000D02*
X137200000Y-97700000D01*
X149580000Y-100080000D02*
X147200000Y-97700000D01*
X149580000Y-100100000D02*
X149580000Y-100080000D01*
X134830000Y-100070000D02*
X133030000Y-100070000D01*
X136880000Y-96980000D02*
X137600000Y-97700000D01*
X136880000Y-95224600D02*
X136880000Y-96980000D01*
X136880000Y-96994200D02*
X136880000Y-97970000D01*
X134820000Y-91870000D02*
X123440000Y-91870000D01*
X136880000Y-95224600D02*
X136880000Y-93930000D01*
X136880000Y-93930000D02*
X134820000Y-91870000D01*
X122723150Y-92926850D02*
X123780000Y-91870000D01*
X123440000Y-92090000D02*
X123440000Y-91870000D01*
X122682100Y-92643700D02*
X122886300Y-92643700D01*
X122886300Y-92643700D02*
X123440000Y-92090000D01*
X120430000Y-95220000D02*
X120430000Y-95224600D01*
X122682100Y-92967900D02*
X120430000Y-95220000D01*
X122682100Y-92643700D02*
X122682100Y-92967900D01*
X122682100Y-91607900D02*
X122682100Y-92643700D01*
M02*
